<?xml version="1.0" encoding="UTF-8" standalone="no"?>
<svg
   version="1.1"
   id="Layer_1"
   x="0px"
   y="0px"
   width="100%"
   viewBox="0 0 1184 880"
   enable-background="new 0 0 1184 880"
   xml:space="preserve"
   sodipodi:docname="RavenTag_Logo.svg"
   inkscape:version="1.4.3 (1:1.4.3+202512261035+0d15f75042)"
   inkscape:export-filename="RavenTag_Logo.jpg"
   inkscape:export-xdpi="96"
   inkscape:export-ydpi="96"
   xmlns:inkscape="http://www.inkscape.org/namespaces/inkscape"
   xmlns:sodipodi="http://sodipodi.sourceforge.net/DTD/sodipodi-0.dtd"
   xmlns="http://www.w3.org/2000/svg"
   xmlns:svg="http://www.w3.org/2000/svg"><defs
   id="defs30" /><sodipodi:namedview
   id="namedview30"
   pagecolor="#ffffff"
   bordercolor="#000000"
   borderopacity="0.25"
   inkscape:showpageshadow="2"
   inkscape:pageopacity="0.0"
   inkscape:pagecheckerboard="0"
   inkscape:deskcolor="#d1d1d1"
   inkscape:zoom="0.70710678"
   inkscape:cx="30.405592"
   inkscape:cy="452.54834"
   inkscape:window-width="2560"
   inkscape:window-height="1284"
   inkscape:window-x="0"
   inkscape:window-y="0"
   inkscape:window-maximized="1"
   inkscape:current-layer="Layer_1" />
<path
   fill="#f6f7f5"
   opacity="1"
   stroke="none"
   d="m 696.09588,373.02612 c 2.06785,1.83613 1.46721,3.18633 -0.29851,5.09036 -19.65156,21.19021 -39.29437,42.39081 -58.72931,63.78461 -16.21664,17.85118 -32.15446,35.96244 -48.67909,54.47763 5.15673,7.08676 10.28266,14.28378 15.56876,21.3578 6.91082,9.24825 13.83922,18.48876 21.04088,27.50229 1.17656,1.47266 3.77532,2.39512 5.75902,2.47333 5.80168,0.22877 11.6429,-0.44334 17.43517,-0.12931 9.87183,0.53515 16.57533,5.98574 21.30664,15.64081 -44.93864,0 -89.22623,0 -133.49493,0 4.42517,-11.85292 13.37518,-16.33522 26.44622,-15.00129 -6.64958,-9.00044 -12.38883,-16.58428 -17.92863,-24.31491 -6.51691,-9.09406 -13.00399,-18.21729 -19.21658,-27.52482 -2.90895,-4.35805 -5.95262,-6.50472 -11.64635,-6.11376 -9.80692,0.67325 -19.70952,-0.21213 -29.55169,0.13964 -3.01379,0.1077 -6.53357,1.42381 -8.84969,3.37243 -20.99709,17.66521 -41.60748,35.80385 -62.6679,53.38978 -24.45799,20.42282 -52.91654,27.01503 -83.93428,23.08304 -8.40682,-1.06563 -16.65569,-3.41025 -24.97704,-5.16785 0.042,-0.5738 0.084,-1.14756 0.12597,-1.72132 25.22719,-18.37365 50.45437,-36.74731 76.19703,-55.50056 0.95587,-0.82276 1.39626,-1.26593 1.83667,-1.7091 0.465,-0.27851 0.92992,-0.55704 1.86835,-1.24567 3.68703,-2.86618 6.55716,-6.28979 10.17462,-7.60774 14.22115,-5.18101 28.69393,-9.64916 43.04274,-14.47536 21.53467,-7.24317 43.01797,-14.64386 64.57025,-21.83276 25.90327,-8.64024 51.87309,-17.07608 77.76037,-25.76461 2.55541,-0.85771 5.19962,-2.42673 7.00674,-4.41005 5.96026,-6.54123 11.49772,-13.47542 17.3029,-20.16484 9.76663,-11.25434 19.70666,-22.3562 29.33611,-33.72869 1.59823,-1.88753 2.79354,-4.8168 2.81453,-7.27655 0.20622,-24.19906 0.12446,-48.40063 0.12446,-73.9745 8.95729,11.42102 17.04282,21.66693 25.05975,31.96762 11.75806,15.10752 23.46698,30.25427 35.19682,45.38435 M 564.40703,523.16996 c 4.89755,6.74108 9.74202,13.523 14.73284,20.1925 1.14143,1.52541 2.72882,3.71526 4.21126,3.8 7.01946,0.40146 14.07373,0.17929 22.47559,0.17929 -14.72998,-21.14178 -28.48513,-40.88445 -42.21914,-60.59673 -4.72453,5.14645 -9.44795,10.29158 -14.10046,15.3595 5.0284,7.09241 9.75409,13.75794 14.89991,21.06544 z"
   id="path38"
   style="stroke-width:1.06513" /><path
   fill="#f7f9f6"
   opacity="1"
   stroke="none"
   d="m 698.90121,288.71404 c -0.0362,16.1916 -0.0843,32.38322 -0.10444,48.57487 -0.0145,11.66777 0.008,23.33566 0.0154,36.15503 0.002,2.98376 0.002,4.81595 0.002,8.3167 -2.85404,-3.58476 -4.95191,-5.93118 -6.76562,-8.54206 -21.38154,-30.77884 -42.69537,-61.62087 -64.14331,-92.33746 -1.09731,-1.57157 -3.23703,-3.03504 -4.9127,-3.06725 -21.38801,-0.41217 -42.77979,-0.55818 -64.17069,-0.75848 -3.6266,-0.0339 -7.25366,-0.005 -11.6436,-0.005 1.12469,-1.7336 1.63951,-2.57615 2.19682,-3.37904 14.39546,-20.73975 28.79162,-41.47873 43.19566,-62.21052 9.42173,-13.56082 19.49785,-26.59305 28.06315,-40.84274 5.91191,-9.83531 12.99761,-11.97922 22.50163,-11.43141 17.3984,1.00283 34.84117,0.97565 52.26545,1.37797 1.74488,1.07262 3.72635,1.82517 5.19157,3.27615 4.97848,4.93003 10.14663,9.71468 14.53754,15.29764 4.53523,5.76664 9.78322,6.90598 16.06095,6.50057 17.25906,-1.11462 33.60878,3.39577 48.45933,13.38133 6.95993,4.67983 12.79237,11.60642 20.26984,18.57109 -9.7998,2.20368 -17.77736,4.03004 -25.76628,5.78745 -17.44836,3.8383 -34.91295,7.57939 -52.33612,11.56438 -1.57419,0.36005 -3.25847,1.88075 -4.26496,3.4137 -2.71216,4.13117 -5.0852,8.56059 -8.01362,13.51078 -6.84607,11.56653 -12.48233,22.7922 -10.63772,36.84613 m -36.91805,-98.21979 c -1.53237,0.34244 -3.0648,0.68488 -4.51529,1.00902 7.8156,7.80044 15.34738,15.31752 21.38353,21.34197 7.06734,-7.51789 13.44767,-14.30496 21.16845,-22.51794 -13.3201,0 -25.2036,0 -38.03669,0.16695 z"
   id="path37"
   style="stroke-width:1.21284" /><path
   fill="#020101"
   opacity="1"
   stroke="none"
   d="m 828.11164,879.99833 c -276.35196,0 -552.20382,0 -828.10571436,0 0,-293.29708 0,-586.59415 0,-879.99446008 394.57432436,0 789.19873436,0 1183.99787436,0 0,293.26259008 0,586.62853008 0,879.99446008 -118.3769,0 -236.88449,0 -355.89216,0 M 688.08928,190.87642 c -3.893,-1.28316 -7.7097,-2.94101 -11.69861,-3.75376 -4.88404,-0.99515 -10.15249,3.34177 -14.95735,-0.87381 -0.28551,-0.25051 -0.95727,-0.11651 -1.4421,-0.0758 -6.85206,0.5753 -13.69813,1.48795 -20.55635,1.58867 -2.63582,0.0387 -5.27321,-1.84489 -7.96018,-2.69331 -1.31043,-0.41379 -3.10746,-1.10686 -4.04678,-0.5662 -4.51221,2.59711 -9.39887,4.96218 -10.22861,11.1211 -0.18064,1.341 -1.26525,2.64274 -2.15355,3.79259 -6.09667,7.89137 -12.31671,15.68837 -18.33474,23.63858 -1.23925,1.63717 -1.6869,3.85136 -2.70149,5.68798 -0.76913,1.3924 -1.71609,2.7516 -2.83959,3.86841 -1.80186,1.79109 -3.81127,3.37409 -5.74089,5.03573 -1.06294,0.91526 -2.03621,2.38213 -3.2348,2.60481 -3.05996,0.56844 -4.13627,2.34699 -5.2008,5.08687 -1.33565,3.4375 -3.64058,6.50829 -5.60983,9.68612 -1.20366,1.9423 -2.56273,3.78838 -4.3818,6.45409 -2.69271,1.82707 -6.60005,4.05614 -9.92844,6.95072 -1.27893,1.11224 -1.27557,3.73127 -1.78763,5.68181 -0.3705,1.41132 -0.36329,3.95115 -0.97852,4.09899 -3.53204,0.84892 -2.17808,3.01627 -1.64978,4.91425 1.13436,4.07589 -0.12124,6.12495 -4.55842,5.82743 -1.82523,-0.1224 -3.67604,-0.2113 -5.49065,-0.0461 -1.77695,0.16182 -3.52276,0.66618 -5.28224,1.02016 1.06935,1.17899 2.13864,2.35803 3.34333,3.68623 -2.14884,1.54741 -4.38259,3.15596 -6.76036,4.86825 -1.12851,-0.46282 -2.44724,-1.00368 -3.76603,-1.54451 0.31182,0.44768 0.62365,0.89539 0.93548,1.3431 -1.68025,1.06363 -3.73263,1.81456 -4.9518,3.2655 -1.74831,2.08067 -4.98977,3.86719 -3.2826,8.14608 -1.98737,1.51011 -3.92707,3.08823 -5.96944,4.52006 -23.68524,16.60493 -47.43379,33.12001 -71.07041,49.79376 -28.39767,20.03241 -56.73017,40.15757 -85.02385,60.33653 -4.91072,3.50235 -9.48898,7.47074 -15.00891,11.84895 21.16634,0 40.96401,0 61.65848,0 -30.90122,23.49567 -60.93623,46.33278 -90.97127,69.16984 0.28185,0.57474 0.56374,1.14948 0.84559,1.72425 4.16039,-1.19025 8.37135,-2.22891 12.47255,-3.59662 19.22363,-6.41096 38.41706,-12.91241 57.46748,-18.58177 2.23144,1.84179 4.46288,3.68357 5.90239,4.87172 -0.98053,3.9705 -1.73012,7.00582 -2.77329,10.47635 -0.43944,0.25983 -0.87888,0.51965 -1.71925,0.29765 -0.47748,0.63758 -0.95499,1.27516 -1.82244,2.43017 -23.84469,17.13957 -47.68941,34.2791 -71.53414,51.41863 -0.0397,0.53522 -0.0794,1.07044 -0.11907,1.60571 7.86534,1.63953 15.66216,3.82667 23.60829,4.82073 29.31795,3.66788 56.21697,-2.48154 79.33466,-21.5326 19.90629,-16.40471 39.38723,-33.32502 59.23367,-49.80369 2.18919,-1.81773 5.51609,-3.04544 8.36473,-3.14591 9.30281,-0.32814 18.66275,0.49777 27.93225,-0.13026 5.3817,-0.3647 8.25858,1.63778 11.00812,5.70311 5.87214,8.68236 12.00372,17.1928 18.16351,25.67604 5.23621,7.21137 10.66094,14.28582 16.94612,22.68172 -12.35474,-1.24434 -20.81428,2.9369 -24.99695,13.99367 41.84276,0 83.70337,0 126.17936,0 -4.47203,-9.00655 -10.80818,-14.09103 -20.13903,-14.59024 -5.47485,-0.29294 -10.99597,0.33403 -16.47972,0.12062 -1.87499,-0.0729 -4.33133,-0.93345 -5.44342,-2.3072 -6.807,-8.4081 -13.35572,-17.02795 -19.88783,-25.65501 -4.99642,-6.59887 -9.84145,-13.31248 -14.71559,-19.92323 15.61908,-17.27157 30.6835,-34.16633 46.01146,-50.81848 18.3699,-19.95681 36.93627,-39.73341 55.51093,-59.50031 1.66895,-1.77614 2.23668,-3.03565 0.29613,-5.53025 -0.24754,-3.17415 -0.49503,-6.3483 -0.81467,-10.44702 5.42442,4.83388 7.10461,-0.32712 8.16469,-2.70834 0.9862,-2.21524 3.06228,-6.53368 -2.24353,-8.90532 -0.005,-8.94282 -0.0249,-17.88571 -0.012,-26.8285 0.018,-12.41013 0.0606,-24.82024 0.89007,-37.26995 0.66351,-1.28496 1.66107,-2.50806 1.9132,-3.86923 0.38819,-2.09566 -0.004,-4.33895 0.40731,-6.42671 1.49887,-7.61404 2.4526,-8.49978 7.49976,-8.23514 0.20083,-1.82357 0.65197,-3.59918 0.50662,-5.32454 -0.11928,-1.41668 -0.94733,-2.7737 -1.31275,-4.83543 2.22484,-3.30423 4.33029,-6.69917 6.73662,-9.86551 0.89299,-1.17493 2.38735,-2.34048 3.78403,-2.61644 15.45848,-3.05431 30.9537,-5.92168 46.43453,-8.86355 7.08806,-1.34697 14.16605,-2.74679 22.86079,-4.4358 -6.63429,-5.33809 -11.80904,-10.64699 -17.98415,-14.23386 -13.17594,-7.65346 -27.68202,-11.11046 -42.9949,-10.25616 -5.56983,0.31073 -10.22605,-0.56252 -14.24987,-4.98238 -3.89576,-4.27907 -8.48115,-7.94628 -12.89824,-11.72491 -1.29999,-1.11211 -3.05801,-1.6889 -4.70352,-3.35914 M 291.77067,627.83734 c -7.56649,-13.44784 -19.56798,-20.84923 -34.44007,-21.74325 -20.58137,-1.23738 -41.26324,-0.8046 -61.90242,-1.05945 -0.24279,-0.003 -0.4901,0.3621 -0.52983,0.39342 0,39.57269 0,78.97135 0,118.45028 9.30444,0 18.17541,0 27.3084,0 0,-11.15652 0,-21.92052 0,-33.01807 7.64913,0 14.955,-0.0911 22.25396,0.0924 1.17204,0.0295 2.73475,1.00524 3.40323,2.01566 6.33324,9.57247 12.49765,19.25641 18.75903,28.87687 0.57832,0.88864 1.47946,2.21942 2.24907,2.23211 9.34679,0.15469 18.69703,0.10035 29.22459,0.10035 -9.01458,-13.66514 -17.23048,-26.11952 -25.03752,-37.95422 4.87024,-4.17642 10.37091,-7.63158 14.20561,-12.42051 11.10463,-13.8678 10.9054,-29.35865 4.50595,-45.96555 M 900.43548,181.13686 c 21.49983,61.18537 6.86067,114.31607 -35.8776,161.7936 5.23976,5.47512 10.80875,11.29428 16.36399,17.09912 74.24363,-69.46453 67.40727,-192.39039 -0.27142,-252.94748 -5.52551,5.8482 -11.05432,11.69998 -16.74747,17.72561 15.82518,16.09569 28.79668,34.06431 36.5325,56.32915 M 675.76549,660.98037 c 1.28277,5.08809 3.51592,10.14828 3.66621,15.26964 0.41494,14.13938 -0.0421,28.30435 -0.15017,42.45918 -0.0133,1.74567 -0.002,3.49147 -0.002,5.16414 9.2745,0 17.84589,0 25.80368,0 0,-21.11012 0.84818,-41.93317 -0.26653,-62.6505 -0.90349,-16.79185 -13.18486,-27.67122 -29.95235,-29.56999 -13.4501,-1.52306 -25.61834,1.06419 -35.74146,11.12476 -0.17996,-3.62564 -0.34022,-6.85317 -0.50981,-10.26926 -8.49903,0 -16.41628,0 -24.72828,0 0,30.62754 0,60.98552 0,91.30468 8.83424,0 17.26369,0 25.95587,0 0,-0.8887 -0.0113,-1.51261 0.002,-2.13597 0.35298,-16.79447 0.30725,-33.61128 1.24695,-50.37296 0.41707,-7.44035 5.17772,-13.12072 12.53501,-15.31439 7.79217,-2.32331 15.50663,-2.25055 22.14088,4.99067 m -162.48216,46.25787 c 19.66105,26.1823 65.33529,21.51088 77.92457,2.74751 -4.47716,-5.10946 -8.93839,-10.20078 -13.40523,-15.29852 -17.39939,16.25364 -44.76263,9.66172 -47.1907,-8.67613 22.45412,0 44.86513,0 67.23286,0 2.77249,-24.0374 -5.57911,-41.60624 -26.20158,-50.73396 -17.67343,-7.8224 -43.21681,-5.57283 -58.79207,14.15129 -10.94893,13.86543 -13.73006,40.82112 0.43215,57.80981 M 360.28541,655.9742 c 4.39429,3.48586 6.53761,7.96499 6.55537,14.08347 -3.01075,0 -5.48653,-0.0777 -7.95605,0.0139 -9.14921,0.33939 -18.40528,-0.0262 -27.42203,1.26436 -19.96884,2.85823 -29.89508,23.193 -19.71058,40.25081 6.59402,11.04412 17.78169,13.92707 29.78072,13.83826 10.33476,-0.0765 19.47943,-3.61533 27.34034,-12.34647 0,4.43874 0,7.64032 0,10.81053 8.41772,0 16.36899,0 24.34351,0 0.1951,-0.65113 0.45842,-1.11395 0.45372,-1.57402 -0.19318,-18.82515 -0.17791,-37.65628 -0.69339,-56.47295 -0.46787,-17.07879 -11.13179,-30.09489 -27.93134,-32.84061 -9.07935,-1.48381 -18.60558,-1.16877 -27.84344,-0.48773 -9.48215,0.69899 -18.41526,3.95014 -26.52827,10.09298 3.47731,6.13227 6.80832,12.00651 10.20266,17.99241 12.46821,-8.0897 25.11251,-10.70193 39.40878,-4.62496 m 73.60567,56.81544 c 1.42651,3.70549 2.85299,7.41098 4.2729,11.09938 9.43137,0 18.69068,0 27.72418,0 12.36564,-30.61546 24.58718,-60.87418 37.00067,-91.60818 -7.29135,0 -13.61361,0.25527 -19.90266,-0.0914 -4.06376,-0.22397 -6.23593,0.99364 -7.71923,4.937 -5.15005,13.69152 -10.64883,27.25205 -16.03106,40.85604 -2.13627,5.39941 -4.3146,10.7822 -6.94348,17.34531 -8.3882,-21.86229 -16.28456,-42.44258 -24.03861,-62.65197 -9.27164,0 -17.95506,0 -27.3697,0 11.0509,26.85442 21.86604,53.13596 33.00699,80.1138 m 430.06745,2.59655 c 0.88762,-0.56055 1.77523,-1.12104 3.18072,-2.00865 0,3.47225 0,6.26553 0,9.40803 5.17089,0 10.04455,0 15.75558,0 -0.59447,-21.51216 -0.86332,-42.78741 -1.92272,-64.02335 -0.43697,-8.75902 -5.18194,-16.2518 -13.06307,-20.10288 -5.95425,-2.90943 -12.89469,-4.66927 -19.52564,-5.14809 -14.57177,-1.05217 -28.31367,2.09362 -40.33211,11.57484 2.28919,4.25956 4.4423,8.26592 6.45501,12.01103 0.87369,-0.069 1.06892,-0.0281 1.19542,-0.10315 1.28521,-0.76145 2.55834,-1.54339 3.83672,-2.31655 9.31437,-5.63374 19.29177,-8.09697 30.11949,-6.03045 10.0788,1.92362 15.54046,8.37031 16.24586,18.59868 0.22874,3.31763 -0.57403,4.82365 -4.31412,4.68198 -7.48418,-0.28342 -15.03736,-0.65523 -22.46509,0.0422 -6.6865,0.62787 -13.62445,1.71381 -19.76843,4.25132 -9.29704,3.83985 -13.81992,11.96807 -13.75258,21.92371 0.0635,9.39404 3.97999,16.93796 12.69604,21.67342 13.78104,7.48716 32.23508,5.99408 45.65892,-4.43207 m 128.27211,-69.89363 c 0,-3.61465 0,-7.22937 0,-11.02893 -5.57863,0 -10.64373,0 -16.24176,0 0,3.54116 0,6.75448 0,10.44574 -19.66563,-18.70691 -51.07211,-12.75508 -63.45548,-0.27475 -14.10208,14.21233 -17.59315,38.2377 -7.04161,54.31303 5.80114,8.83821 13.41811,15.75041 23.87247,18.71241 16.48644,4.67105 31.82802,2.47306 45.81972,-9.05538 0.17459,2.14964 0.45656,3.45069 0.34845,4.71847 -0.26787,3.14281 -0.50241,6.31326 -1.12686,9.39637 -2.14609,10.59633 -8.42858,16.73611 -19.00998,18.32723 -13.81888,2.07799 -26.84514,-0.13069 -38.73361,-7.83607 -1.47104,-0.95348 -3.08749,-1.68287 -5.05569,-2.74146 -1.69375,3.32288 -2.88507,6.26754 -4.59431,8.87245 -2.63136,4.01032 -1.14127,6.19629 2.63904,8.09929 17.57033,8.84448 35.837,12.2453 55.198,7.27759 13.03077,-3.34339 21.88932,-11.29342 24.97919,-24.51224 1.53838,-6.58111 2.23473,-13.48483 2.32374,-20.2556 0.27825,-21.15176 0.0855,-42.30969 0.0787,-64.45815 m -128.3817,-342.29 c 9.20687,-11.79986 15.02309,-25.45947 17.83282,-39.78802 7.38414,-37.65756 2.86712,-73.35444 -21.39074,-104.74011 -4.32118,-5.59084 -9.04979,-10.86681 -13.72999,-16.45501 -6.15479,5.87514 -11.62506,11.0969 -17.53687,16.74011 19.45629,21.0605 31.55243,45.28065 31.75389,73.84719 0.20304,28.78053 -11.88065,53.20011 -31.79034,75.43867 6.01352,5.29055 11.67334,10.2699 18.02347,15.85661 5.37052,-6.67237 10.87473,-13.51083 16.83776,-20.89944 m -98.24907,302.02145 c -18.72727,0 -37.45455,0 -56.24464,0 0,5.3319 0,10.07321 0,15.37812 13.23289,0 26.14853,0 39.54119,0 0,34.45786 0,68.35244 0,102.54171 6.04886,0 11.60765,0 17.76615,0 0,-34.37961 0,-68.53544 0,-102.76782 2.24799,0 3.89997,-0.0122 5.55171,0.002 10.15676,0.0876 20.31516,0.29294 30.46838,0.14356 1.40596,-0.0206 3.84459,-1.6491 3.98695,-2.7652 0.4957,-3.88416 0.19162,-7.87031 0.19162,-12.52727 -13.71791,0 -26.98962,0 -41.26136,-0.005 m 34.65618,-405.87331 c 7.05266,9.84778 11.84427,20.76207 11.53458,32.90082 -0.3946,15.46757 -4.65328,29.87574 -16.67819,41.20366 5.16962,5.5375 10.02045,10.73352 14.84643,15.90291 32.72942,-19.11546 36.63976,-84.55503 1.67487,-111.96129 -5.55573,4.85602 -11.13869,9.73581 -16.86248,14.73866 1.84684,2.41783 3.45475,4.52278 5.48479,7.21524 z"
   id="path1"
   style="stroke-width:1.00015" />
<path
   fill="#f8faf8"
   opacity="1"
   stroke="none"
   d="m 387.39818,484.10567 c -19.20423,6.4691 -38.39766,12.97055 -57.62129,19.38151 -4.1012,1.36771 -8.31216,2.40637 -12.47255,3.59662 -0.28185,-0.57477 -0.56374,-1.14951 -0.84559,-1.72425 30.03504,-22.83706 60.07005,-45.67417 90.97127,-69.16984 -20.69447,0 -40.49214,0 -61.65848,0 5.51993,-4.37821 10.09819,-8.3466 15.00891,-11.84895 28.29368,-20.17896 56.62618,-40.30412 85.02385,-60.33653 23.63662,-16.67375 47.38517,-33.18883 71.07041,-49.79376 2.04237,-1.43183 3.98207,-3.00995 6.43877,-4.92731 6.58827,-4.7066 12.64319,-9.10248 18.86921,-13.24094 1.66303,-1.1054 3.84795,-2.00843 5.79595,-2.01361 22.16475,-0.0591 44.32993,0.0703 66.49492,0.17564 0.6109,0.003 1.22026,0.29978 1.69112,0.42312 0.21305,0.54492 0.44039,0.85461 0.4399,1.16397 -0.0388,24.99491 -0.0485,49.9902 -0.25248,74.98385 -0.014,1.72685 -1.13774,3.7455 -2.33351,5.11507 -11.05872,12.6659 -22.17416,25.28448 -33.4347,37.77104 -4.28499,4.75153 -8.24715,9.5367 -15.11771,11.62498 -22.59018,6.86615 -44.96158,14.45567 -67.38881,21.85288 -20.69041,6.82437 -41.34856,13.74677 -62.01312,20.64927 -16.22818,5.42067 -32.44449,10.87688 -48.66607,16.31724 z"
   id="path2"
   style="stroke-width:1.00015" />
<path
   fill="#f6f7f5"
   opacity="1"
   stroke="none"
   d="m 686.09128,376.84615 c 1.95453,1.7128 1.3868,2.97231 -0.28215,4.74845 -18.57466,19.7669 -37.14103,39.5435 -55.51093,59.50031 -15.32796,16.65215 -30.39238,33.54691 -46.01146,50.81848 4.87414,6.61075 9.71917,13.32436 14.71559,19.92323 6.53211,8.62706 13.08083,17.24691 19.88783,25.65501 1.11209,1.37375 3.56843,2.23425 5.44342,2.3072 5.48375,0.21341 11.00487,-0.41356 16.47972,-0.12062 9.33085,0.49921 15.667,5.58369 20.13903,14.59024 -42.47599,0 -84.3366,0 -126.17936,0 4.18267,-11.05677 12.64221,-15.23801 24.99695,-13.99367 -6.28518,-8.3959 -11.70991,-15.47035 -16.94612,-22.68172 -6.15979,-8.48324 -12.29137,-16.99368 -18.16351,-25.67604 -2.74954,-4.06533 -5.62642,-6.06781 -11.00812,-5.70311 -9.2695,0.62803 -18.62944,-0.19788 -27.93225,0.13026 -2.84864,0.10047 -6.17554,1.32818 -8.36473,3.14591 -19.84644,16.47867 -39.32738,33.39898 -59.23367,49.80369 -23.11769,19.05106 -50.01671,25.20048 -79.33466,21.5326 -7.94613,-0.99406 -15.74295,-3.1812 -23.60829,-4.82073 0.0397,-0.53527 0.0794,-1.07049 0.11907,-1.60571 23.84473,-17.13953 47.68945,-34.27906 72.0214,-51.7727 0.90349,-0.76749 1.31975,-1.18089 1.73603,-1.5943 0.43952,-0.2598 0.87896,-0.51962 1.76596,-1.162 3.48497,-2.67366 6.19782,-5.86731 9.61704,-7.09673 13.44183,-4.83302 27.1215,-9.00105 40.68398,-13.50308 20.35457,-6.75667 40.66058,-13.66027 61.03178,-20.3663 24.48376,-8.05989 49.03043,-15.92911 73.49908,-24.03405 2.41537,-0.8001 4.91468,-2.26373 6.62277,-4.11383 5.63363,-6.10187 10.86764,-12.5703 16.35469,-18.81041 9.23142,-10.49841 18.62674,-20.85457 27.72849,-31.4632 1.51065,-1.76075 2.64045,-4.49327 2.66029,-6.7878 0.19492,-22.57365 0.11763,-45.14964 0.11763,-69.00577 8.46644,10.65389 16.10887,20.2116 23.68647,29.82042 11.11372,14.09278 22.18099,28.22215 33.26803,42.33597 M 561.61902,516.90511 c 4.62916,6.2883 9.20816,12.61468 13.92547,18.8362 1.07888,1.42295 2.57929,3.46572 3.98049,3.54477 6.63479,0.37449 13.30248,0.16725 21.24392,0.16725 -13.92278,-19.72173 -26.92413,-38.13833 -39.90552,-56.52657 -4.46562,4.80077 -8.9302,9.60032 -13.32775,14.32783 4.75284,6.61603 9.21956,12.83385 14.08339,19.65052 z"
   id="path3"
   style="stroke-width:1.00015" />
<path
   fill="#f7f9f6"
   opacity="1"
   stroke="none"
   d="m 691.29246,289.94484 c -0.0321,12.41009 -0.0747,24.8202 -0.0927,37.23033 -0.0129,8.94279 0.007,17.88568 0.0136,27.71111 0.002,2.28691 0.002,3.6912 0.002,6.37436 -2.53222,-2.74755 -4.39353,-4.54597 -6.00272,-6.54708 -18.97048,-23.59053 -37.8809,-47.22948 -56.9103,-70.77229 -0.97357,-1.20453 -2.872,-2.32621 -4.35873,-2.3509 -18.97622,-0.3159 -37.9558,-0.42782 -56.93459,-0.58134 -3.21765,-0.026 -6.43572,-0.004 -10.33063,-0.004 0.99787,-1.32873 1.45463,-1.9745 1.9491,-2.58988 12.77218,-15.89603 25.54498,-31.79147 38.32478,-47.68141 8.3593,-10.39372 17.29921,-20.38231 24.89866,-31.30402 5.24526,-7.5383 11.53196,-9.1815 19.96427,-8.76163 15.4365,0.76862 30.91237,0.74779 46.37182,1.05615 1.54814,0.82211 3.30616,1.3989 4.60615,2.51101 4.41709,3.77863 9.00248,7.44584 12.89824,11.72491 4.02382,4.41986 8.68004,5.29311 14.24987,4.98238 15.31288,-0.8543 29.81896,2.6027 42.9949,10.25616 6.17511,3.58687 11.34986,8.89577 17.98415,14.23386 -8.69474,1.68901 -15.77273,3.08883 -22.86079,4.4358 -15.48083,2.94187 -30.97605,5.80924 -46.43453,8.86355 -1.39668,0.27596 -2.89104,1.44151 -3.78403,2.61644 -2.40633,3.16634 -4.51178,6.56128 -7.10998,10.35537 -6.07408,8.86519 -11.07478,17.46914 -9.43817,28.24081 m -32.75506,-75.28081 c -1.35957,0.26246 -2.7192,0.52493 -4.00612,0.77337 6.93428,5.97866 13.61676,11.74015 18.97225,16.3576 6.2704,-5.7621 11.93126,-10.96407 18.78143,-17.25893 -11.81809,0 -22.36157,0 -33.74756,0.12796 z"
   id="path4"
   style="stroke-width:1.00015" />
<path
   fill="#f7f8f7"
   opacity="1"
   stroke="none"
   d="m 291.90945,628.18449 c 6.26067,16.25975 6.4599,31.7506 -4.64473,45.6184 -3.8347,4.78893 -9.33537,8.24409 -14.20561,12.42051 7.80704,11.8347 16.02294,24.28908 25.03752,37.95422 -10.52756,0 -19.8778,0.0543 -29.22459,-0.10035 -0.76961,-0.0127 -1.67075,-1.34347 -2.24907,-2.23211 -6.26138,-9.62046 -12.42579,-19.3044 -18.75903,-28.87687 -0.66848,-1.01042 -2.23119,-1.98618 -3.40323,-2.01566 -7.29896,-0.18343 -14.60483,-0.0924 -22.25396,-0.0924 0,11.09755 0,21.86155 0,33.01807 -9.13299,0 -18.00396,0 -27.3084,0 0,-39.47893 0,-78.87759 0,-118.45028 0.0397,-0.0313 0.28704,-0.39641 0.52983,-0.39342 20.63918,0.25485 41.32105,-0.17793 61.90242,1.05945 14.87209,0.89402 26.87358,8.29541 34.57885,22.0904 m -53.4194,-0.50621 c -5.44054,0 -10.88108,0 -16.48824,0 0,13.69126 0,26.91277 0,40.10454 10.03419,0 19.86401,0.65779 29.56522,-0.17757 10.55032,-0.90848 16.60643,-8.74169 16.64648,-19.50345 0.042,-11.2955 -5.34516,-17.99535 -16.29432,-19.70892 -4.08242,-0.6388 -8.28622,-0.50243 -13.42914,-0.7146 z"
   id="path5"
   style="stroke-width:1.00015" />
<path
   fill="#0D0D0C"
   opacity="1"
   stroke="none"
   d="m 688.38263,191.3005 c -15.42327,0.11569 -30.91173,0.13652 -46.36079,-0.6321 -8.43916,-0.41987 -14.73098,1.22333 -19.98049,8.76163 -7.60564,10.92171 -16.55283,20.9103 -24.91893,31.30402 -12.7902,15.88994 -25.57338,31.78538 -38.35594,47.68141 -0.49489,0.61538 -0.95201,1.26115 -1.95069,2.58988 3.89807,0 7.11876,-0.0223 10.33902,0.004 18.99423,0.15352 37.98925,0.26544 56.98091,0.58134 1.48794,0.0247 3.38792,1.14637 4.36228,2.3509 19.04487,23.54281 37.97067,47.18176 56.95659,70.77229 1.6105,2.00111 3.47332,3.79953 6.0076,6.54708 0,-2.68316 0,-4.08745 0.0934,-5.91551 5.21347,1.03018 3.13571,5.34862 2.14869,7.56386 -1.06094,2.38122 -2.74248,7.54222 -8.17132,2.70834 0.3199,4.09872 0.56758,7.27287 0.80831,10.83794 -11.10304,-13.72294 -22.1793,-27.8523 -33.30207,-41.94509 -7.58376,-9.60882 -15.23241,-19.16653 -23.70573,-29.82042 0,23.85613 0.0773,46.43212 -0.11773,69.00577 -0.0199,2.29453 -1.15057,5.02705 -2.66245,6.7878 -9.10916,10.60863 -18.51213,20.96479 -27.75104,31.4632 -5.49152,6.24011 -10.72979,12.70854 -16.368,18.81041 -1.70948,1.8501 -4.21082,3.31373 -6.62816,4.11383 -24.48855,8.10494 -49.05519,15.97416 -73.55887,24.03405 -20.38778,6.70603 -40.7103,13.60963 -61.08142,20.3663 -13.57352,4.50203 -27.26432,8.67006 -40.71707,13.50308 -3.42201,1.22942 -6.13707,4.42307 -9.47797,6.87912 0.44919,-2.87037 1.19939,-5.90569 2.18071,-9.87619 -1.44068,-1.18815 -3.67393,-3.02993 -5.8302,-5.27157 16.31173,-5.84025 32.54123,-11.29646 48.78261,-16.71713 20.68137,-6.9025 41.35633,-13.8249 62.06357,-20.64927 22.44547,-7.39721 44.83506,-14.98673 67.44362,-21.85288 6.87615,-2.08828 10.84154,-6.87345 15.13001,-11.62498 11.2697,-12.48656 22.39418,-25.10514 33.46189,-37.77104 1.19676,-1.36957 2.32136,-3.38822 2.33541,-5.11507 0.20418,-24.99365 0.21383,-49.98894 0.25269,-74.98385 4.9e-4,-0.30936 -0.22703,-0.61905 -0.44025,-1.16397 -0.47124,-0.12334 -1.08111,-0.42022 -1.69249,-0.42312 -22.18303,-0.10538 -44.36625,-0.23477 -66.54903,-0.17564 -1.94957,0.005 -4.13627,0.90821 -5.80066,2.01361 -6.23109,4.13846 -12.29093,8.53434 -18.74575,12.93644 -2.31708,-3.56714 0.92701,-5.35366 2.67675,-7.43433 1.22016,-1.45094 3.27422,-2.20187 4.95583,-3.2655 -0.31208,-0.44771 -0.62416,-0.89542 -0.93624,-1.3431 1.31986,0.54083 2.63966,1.08169 3.7691,1.54451 2.37969,-1.71229 4.61526,-3.32084 6.76586,-4.86825 -1.20568,-1.3282 -2.27584,-2.50724 -3.34606,-3.68623 1.76091,-0.35398 3.50815,-0.85834 5.28653,-1.02016 1.81609,-0.16524 3.66841,-0.0763 5.49513,0.046 4.44078,0.29752 5.69741,-1.75154 4.56212,-5.82743 -0.52873,-1.89798 -1.88378,-4.06533 1.65112,-4.91425 0.61574,-0.14784 0.60853,-2.68767 0.97932,-4.09899 0.51247,-1.95054 0.50911,-4.56957 1.78909,-5.68181 3.33108,-2.89458 7.24162,-5.12365 9.93651,-6.95072 1.82055,-2.66571 3.18073,-4.51179 4.38537,-6.45409 1.97085,-3.17783 4.27765,-6.24862 5.61438,-9.68612 1.0654,-2.73988 2.14259,-4.51843 5.20504,-5.08687 1.19957,-0.22268 2.17362,-1.68955 3.23743,-2.60481 1.93119,-1.66164 3.94224,-3.24464 5.74556,-5.03573 1.12441,-1.11681 2.07214,-2.47601 2.8419,-3.86841 1.01542,-1.83662 1.46343,-4.05081 2.70369,-5.68798 6.02293,-7.95021 12.24804,-15.74721 18.34966,-23.63858 0.88901,-1.14985 1.97451,-2.45159 2.15529,-3.79259 0.83043,-6.15892 5.72106,-8.52399 10.23694,-11.1211 0.94008,-0.54066 2.73857,0.15241 4.05007,0.5662 2.68915,0.84842 5.32869,2.73201 7.96665,2.69331 6.8638,-0.10072 13.71545,-1.01337 20.57307,-1.58867 0.48524,-0.0407 1.15753,-0.17468 1.44329,0.0758 4.80876,4.21558 10.08149,-0.12134 14.9695,0.87381 3.99215,0.81275 7.81196,2.4706 11.75682,4.17784 m -291.93806,298.8502 c 0.38509,0.004 0.77016,0.009 1.15524,0.0129 0.002,-0.15962 0.014,-0.45794 0.003,-0.45879 -0.38307,-0.0297 -0.76828,-0.0316 -1.15854,0.44591 z"
   id="path6"
   style="fill:#000000;fill-opacity:1;stroke-width:1.00056" />
<path
   fill="#d77749"
   opacity="1"
   stroke="none"
   d="m 900.29672,180.77205 c -7.59706,-21.90003 -20.56856,-39.86865 -36.39374,-55.96434 5.69315,-6.02563 11.22196,-11.87741 16.74747,-17.72561 67.67869,60.55709 74.51505,183.48295 0.27142,252.94748 -5.55524,-5.80484 -11.12423,-11.624 -16.36399,-17.09912 42.73827,-47.47753 57.37743,-100.60823 35.73884,-162.15841 z"
   id="path7"
   style="stroke-width:1.00015" />
<path
   fill="#f5f7f6"
   opacity="1"
   stroke="none"
   d="m 675.53718,660.67516 c -6.40594,-6.93601 -14.1204,-7.00877 -21.91257,-4.68546 -7.35729,2.19367 -12.11794,7.87404 -12.53501,15.31439 -0.9397,16.76168 -0.89397,33.57849 -1.24695,50.37296 -0.0131,0.62336 -0.002,1.24727 -0.002,2.13597 -8.69218,0 -17.12163,0 -25.95587,0 0,-30.31916 0,-60.67714 0,-91.30468 8.312,0 16.22925,0 24.72828,0 0.16959,3.41609 0.32985,6.64362 0.50981,10.26926 10.12312,-10.06057 22.29136,-12.64782 35.74146,-11.12476 16.76749,1.89877 29.04886,12.77814 29.95235,29.56999 1.11471,20.71733 0.26653,41.54038 0.26653,62.6505 -7.95779,0 -16.52918,0 -25.80368,0 0,-1.67267 -0.0115,-3.41847 0.002,-5.16414 0.10811,-14.15483 0.56511,-28.3198 0.15017,-42.45918 -0.15029,-5.12136 -2.38344,-10.18155 -3.89452,-15.57485 z"
   id="path8"
   style="stroke-width:1.00015" />
<path
   fill="#f5f7f5"
   opacity="1"
   stroke="none"
   d="m 513.07785,706.94702 c -13.95673,-16.69747 -11.1756,-43.65316 -0.22667,-57.51859 15.57526,-19.72412 41.11864,-21.97369 58.79207,-14.15129 20.62247,9.12772 28.97407,26.69656 26.20158,50.73396 -22.36773,0 -44.77874,0 -67.23286,0 2.42807,18.33785 29.79131,24.92977 47.1907,8.67613 4.46684,5.09774 8.92807,10.18906 13.40523,15.29852 -12.58928,18.76337 -58.26352,23.43479 -78.13005,-3.03873 m 59.45497,-40.53533 c -4.2795,-11.39133 -12.83988,-16.79422 -24.26336,-15.31359 -9.50318,1.23171 -16.73251,8.81653 -17.67806,18.89663 12.68457,0 25.33398,-1.2e-4 37.9834,3.7e-4 0.66614,6e-5 1.34149,-0.0648 1.99671,0.0213 2.34834,0.3087 3.05483,-0.66425 1.96131,-3.60471 z"
   id="path9"
   style="stroke-width:1.00015" />
<path
   fill="#f5f6f5"
   opacity="1"
   stroke="none"
   d="m 359.9608,655.76177 c -13.97166,-5.86454 -26.61596,-3.25231 -39.08417,4.83739 -3.39434,-5.9859 -6.72535,-11.86014 -10.20266,-17.99241 8.11301,-6.14284 17.04612,-9.39399 26.52827,-10.09298 9.23786,-0.68104 18.76409,-0.99608 27.84344,0.48773 16.79955,2.74572 27.46347,15.76182 27.93134,32.84061 0.51548,18.81667 0.50021,37.6478 0.69339,56.47295 0.005,0.46007 -0.25862,0.92289 -0.45372,1.57402 -7.97452,0 -15.92579,0 -24.34351,0 0,-3.17021 0,-6.37179 0,-10.81053 -7.86091,8.73114 -17.00558,12.26998 -27.34034,12.34647 -11.99903,0.0888 -23.1867,-2.79414 -29.78072,-13.83826 -10.1845,-17.05781 -0.25826,-37.39258 19.71058,-40.25081 9.01675,-1.29061 18.27282,-0.92497 27.42203,-1.26436 2.46952,-0.0916 4.9453,-0.0139 7.95605,-0.0139 -0.0178,-6.11848 -2.16108,-10.59761 -6.87998,-14.2959 m 6.30066,30.63768 c -8.04428,-0.0296 -16.12746,-0.55432 -24.12008,0.0735 -6.0022,0.47149 -9.15044,4.31457 -9.4198,9.19689 -0.27456,4.9754 2.88216,9.19035 8.31119,11.09766 14.0478,4.935 24.82541,-3.31208 25.22869,-20.36804 z"
   id="path10"
   style="stroke-width:1.00015" />
<path
   fill="#f5f7f6"
   opacity="1"
   stroke="none"
   d="m 433.72821,712.44152 c -10.97808,-26.62972 -21.79322,-52.91126 -32.84412,-79.76568 9.41464,0 18.09806,0 27.3697,0 7.75405,20.20939 15.65041,40.78968 24.03861,62.65197 2.62888,-6.56311 4.80721,-11.9459 6.94348,-17.34531 5.38223,-13.60399 10.88101,-27.16452 16.03106,-40.85604 1.4833,-3.94336 3.65547,-5.16097 7.71923,-4.937 6.28905,0.34665 12.61131,0.0914 19.90266,0.0914 -12.41349,30.734 -24.63503,60.99272 -37.00067,91.60818 -9.0335,0 -18.29281,0 -27.72418,0 -1.41991,-3.6884 -2.84639,-7.39389 -4.43577,-11.4475 z"
   id="path11"
   style="stroke-width:1.00015" />
<path
   fill="#d4784e"
   opacity="1"
   stroke="none"
   d="m 863.69231,715.61533 c -13.15762,10.19701 -31.61166,11.69009 -45.3927,4.20293 -8.71605,-4.73546 -12.6325,-12.27938 -12.69604,-21.67342 -0.0673,-9.95564 4.45554,-18.08386 13.75258,-21.92371 6.14398,-2.53751 13.08193,-3.62345 19.76843,-4.25132 7.42773,-0.69741 14.98091,-0.3256 22.46509,-0.0422 3.74009,0.14167 4.54286,-1.36435 4.31412,-4.68198 -0.7054,-10.22837 -6.16706,-16.67506 -16.24586,-18.59868 -10.82772,-2.06652 -20.80512,0.39671 -30.11949,6.03045 -1.27838,0.77316 -2.55151,1.5551 -3.83672,2.31655 -0.1265,0.075 -0.32173,0.0342 -1.19542,0.10315 -2.01271,-3.74511 -4.16582,-7.75147 -6.45501,-12.01103 12.01844,-9.48122 25.76034,-12.62701 40.33211,-11.57484 6.63095,0.47882 13.57139,2.23866 19.52564,5.14809 7.88113,3.85108 12.6261,11.34386 13.06307,20.10288 1.0594,21.23594 1.32825,42.51119 1.92272,64.02335 -5.71103,0 -10.58469,0 -15.75558,0 0,-3.1425 0,-5.93578 0,-9.40803 -1.40549,0.88761 -2.2931,1.4481 -3.44694,2.23779 m -37.87388,-8.87 c 8.66612,6.41069 21.97953,6.70595 31.0021,0.68765 7.68949,-5.12905 10.81691,-14.1187 8.07892,-24.09119 -10.33026,0.46765 -20.8699,0.23691 -31.19844,1.60266 -11.33148,1.49828 -15.02401,11.82211 -7.88258,21.80088 z"
   id="path12"
   style="stroke-width:1.00015" />
<path
   fill="#bf7658"
   opacity="1"
   stroke="none"
   d="m 992.22899,645.98902 c 0.008,21.652 0.20121,42.80993 -0.077,63.96169 -0.089,6.77077 -0.78536,13.67449 -2.32374,20.2556 -3.08987,13.21882 -11.94842,21.16885 -24.97919,24.51224 -19.361,4.96771 -37.62767,1.56689 -55.198,-7.27759 -3.78031,-1.903 -5.2704,-4.08897 -2.63904,-8.09929 1.70924,-2.60491 2.90056,-5.54957 4.59431,-8.87245 1.9682,1.05859 3.58465,1.78798 5.05569,2.74146 11.88847,7.70538 24.91473,9.91406 38.73361,7.83607 10.5814,-1.59112 16.86389,-7.7309 19.00998,-18.32723 0.62445,-3.08311 0.85899,-6.25356 1.12686,-9.39637 0.10811,-1.26778 -0.17386,-2.56883 -0.34845,-4.71847 -13.9917,11.52844 -29.33328,13.72643 -45.81972,9.05538 -10.45436,-2.962 -18.07133,-9.8742 -23.87247,-18.71241 -10.55154,-16.07533 -7.06047,-40.1007 7.04162,-54.31303 12.38336,-12.48033 43.78984,-18.43216 63.45547,0.27475 0,-3.69126 0,-6.90458 0,-10.44574 5.59803,0 10.66313,0 16.24176,0 0,3.79956 0,7.41428 -0.002,11.52539 m -2.07754,51.48856 c 0.29816,-9.12686 0.82987,-18.25367 0.82884,-27.38054 -10e-4,-9.12656 -0.57159,-18.25208 -0.8159,-27.38012 -0.0884,-3.30388 -0.50845,-5.88498 -4.87054,-5.8229 -4.12584,0.0588 -7.20979,0.47612 -7.24593,5.77462 -0.0313,4.59805 -1.45603,5.09157 -5.46264,2.54698 -3.34535,-2.12468 -6.60249,-4.43299 -10.1142,-6.24172 -7.41217,-3.81774 -15.52013,-2.85146 -23.46975,-3.04502 -12.12399,-0.29526 -21.47847,6.09956 -28.21099,14.61332 -9.89932,12.51823 -13.13425,29.8321 -2.80186,46.95674 5.89033,9.76239 14.64588,16.34612 25.95611,18.40067 13.536,2.45901 26.83391,2.65386 37.88085,-7.9031 2.49527,-2.38461 5.07279,-0.95122 5.26007,2.68988 0.18809,3.65628 0.80272,7.54593 -0.15205,10.94506 -1.38314,4.92364 -2.97585,10.4613 -6.30594,14.03512 -8.81441,9.45986 -20.8492,9.49117 -32.44128,7.60601 -8.59141,-1.39712 -16.87097,-4.71207 -25.58825,-7.26002 -4.07572,5.86253 -3.29273,8.70433 3.85802,11.60884 13.02101,5.28878 26.14671,9.04549 40.56317,6.46726 15.17828,-2.71453 28.7603,-10.44293 31.07487,-27.37803 1.27521,-9.33057 1.40866,-18.81709 2.0574,-29.23305 z"
   id="path13"
   style="stroke-width:1.00015" />
<path
   fill="#c07657"
   opacity="1"
   stroke="none"
   d="m 863.61954,303.47759 c -5.73362,7.11356 -11.23783,13.95202 -16.60835,20.62439 -6.35013,-5.58671 -12.00995,-10.56606 -18.02347,-15.85661 19.90969,-22.23856 31.99338,-46.65814 31.79034,-75.43867 -0.20146,-28.56654 -12.2976,-52.78669 -31.75389,-73.84719 5.91181,-5.64321 11.38208,-10.86497 17.53687,-16.74011 4.6802,5.5882 9.40881,10.86417 13.72999,16.45501 24.25786,31.38567 28.77488,67.08255 21.39074,104.74011 -2.80973,14.32855 -8.62595,27.98816 -18.06223,40.06307 M 846.9082,176.69453 c 0.5001,1.03477 0.8828,2.14854 1.51775,3.09262 10.76258,16.00154 13.90483,34.1632 14.61676,52.88057 0.48965,12.87324 -1.8894,25.32698 -6.74901,37.36381 -4.27088,10.57856 -7.89315,21.41012 -16.90497,29.24317 -1.18522,1.03024 -1.80412,2.76258 -2.55035,4.23802 -2.60065,5.1418 -2.04971,6.7068 2.98078,10.87291 3.68557,3.05225 7.31559,4.81547 10.98639,0.30442 5.2146,-6.40822 11.42285,-12.3696 15.08333,-19.59708 5.69988,-11.25431 10.77352,-23.10612 13.98683,-35.26631 3.78319,-14.31666 2.25055,-29.30718 1.13584,-44.01824 -0.39773,-5.2492 -0.90996,-10.66448 -2.56849,-15.60135 -2.33392,-6.94717 -6.05453,-13.41539 -8.69389,-20.27621 -3.94068,-10.24348 -9.93241,-19.01218 -17.73881,-26.61963 -1.7817,-1.73629 -3.55627,-4.58409 -5.50036,-4.73173 -1.85545,-0.14095 -3.95124,2.54166 -5.9004,4.03638 -6.65231,5.10144 -6.91707,6.33057 -1.993,13.38132 2.44248,3.49746 5.31881,6.69196 8.2916,10.69733 z"
   id="path14"
   style="stroke-width:1.00015" />
<path
   fill="#c2795a"
   opacity="1"
   stroke="none"
   d="m 766.09992,605.22662 c 13.7717,0.003 27.04341,0.003 40.76132,0.003 0,4.65696 0.30408,8.64311 -0.19162,12.52727 -0.14236,1.1161 -2.58099,2.74457 -3.98695,2.7652 -10.15322,0.14938 -20.31162,-0.056 -30.46838,-0.14356 -1.65174,-0.0143 -3.30372,-0.002 -5.55171,-0.002 0,34.23237 0,68.3882 0,102.76781 -6.1585,0 -11.71729,0 -17.76615,0 0,-34.18927 0,-68.08385 0,-102.54171 -13.39266,0 -26.3083,0 -39.54119,0 0,-5.30491 0,-10.04622 0,-15.37812 18.79009,0 37.51737,0 56.74468,0.003 m -14.78702,65.54457 c 0.25707,3.95167 0.69721,7.90163 0.73592,11.85544 0.10444,10.65561 0.0149,21.31304 0.0492,31.96955 0.0152,4.72367 2.04879,6.62934 7.2869,6.15772 3.46837,-0.31222 4.87427,-2.63267 4.78294,-6.27772 -0.20633,-8.23927 -0.0481,-16.48725 -0.0673,-24.73164 -0.0512,-21.97436 -0.0985,-43.94878 -0.19309,-65.92302 -0.0203,-4.72007 2.79447,-6.64161 7.3834,-6.4058 9.78608,0.50268 19.60886,0.50487 29.41154,0.36308 3.7504,-0.0541 3.9543,-3.40278 3.23041,-5.95635 -0.43264,-1.52599 -2.49852,-3.684 -3.84484,-3.69462 -27.64106,-0.21671 -55.28432,-0.16152 -82.9271,-0.16958 -3.91821,-0.001 -5.07291,2.20019 -5.12626,5.78439 -0.057,3.82812 2.11795,4.27922 5.15728,4.25499 9.32468,-0.0742 18.65103,0.0497 27.97523,-0.0497 3.85998,-0.0411 5.99515,1.31606 5.94893,5.4641 -0.0788,7.07788 -0.0864,14.158 -0.005,21.23582 0.0976,8.43251 0.3211,16.86356 0.20133,26.12332 z"
   id="path15"
   style="stroke-width:1.00015" />
<path
   fill="#c17656"
   opacity="1"
   stroke="none"
   d="m 800.04496,199.05693 c -1.81894,-2.39871 -3.42685,-4.50366 -5.27369,-6.92149 5.72379,-5.00285 11.30675,-9.88264 16.86248,-14.73866 34.96489,27.40626 31.05455,92.84583 -1.67487,111.96129 -4.82598,-5.16939 -9.67681,-10.36541 -14.84643,-15.90291 12.02491,-11.32792 16.28359,-25.73609 16.67819,-41.20366 0.30969,-12.13875 -4.48192,-23.05304 -11.74568,-33.19457 m 10.24461,-16.63526 c -2.68807,2.47877 -5.21174,5.17429 -8.11164,7.37375 -2.75138,2.08674 -2.44675,3.84914 -0.51896,6.21074 5.8675,7.18751 9.77729,15.50985 11.31365,24.51233 3.02523,17.72739 0.82731,34.55633 -10.89292,49.20633 -0.78303,0.97887 -0.83187,3.40455 -0.16146,4.5196 1.75387,2.91708 4.10686,5.4722 6.20057,8.18735 2.22497,2.88526 4.35806,3.07754 6.86957,0.18517 7.74658,-8.92147 13.7098,-18.69687 16.3218,-30.42742 2.49369,-11.19909 2.64997,-22.394 0.65088,-33.5903 -0.52763,-2.95528 -2.70913,-5.57629 -3.74118,-8.489 -1.90869,-5.38681 -2.50072,-11.56652 -5.56282,-16.12543 -2.99018,-4.45178 -4.95381,-10.81655 -12.36749,-11.56312 z"
   id="path16"
   style="stroke-width:1.00015" />
<path
   fill="#0D0D0C"
   opacity="1"
   stroke="none"
   d="m 691.69121,289.92503 c -2.03536,-10.75186 2.96534,-19.35581 8.96519,-27.88188 0.81301,1.23275 1.64106,2.58977 1.76034,4.00645 0.14535,1.72536 -0.30579,3.50097 -0.50662,5.32454 -5.04716,-0.26464 -6.00089,0.6211 -7.49976,8.23514 -0.41103,2.08776 -0.0191,4.33105 -0.40731,6.42671 -0.25213,1.36117 -1.24969,2.58427 -2.31184,3.88904 z"
   id="path17"
   style="fill:#000000;fill-opacity:1;stroke-width:1.00015" />
<path
   fill="#0d0d0c"
   opacity="1"
   stroke="none"
   d="m 388.85466,500.79199 c -0.21587,0.65435 -0.63213,1.06775 -1.34065,1.57651 0.18522,-0.54221 0.66273,-1.17979 1.34065,-1.57651 z"
   id="path18"
   style="stroke-width:1.00015" />
<path
   fill="#0b0c0a"
   opacity="1"
   stroke="none"
   d="m 561.4205,516.6057 c -4.66531,-6.51726 -9.13203,-12.73508 -13.88487,-19.35111 4.39755,-4.72751 8.86213,-9.52706 13.32775,-14.32783 12.98139,18.38824 25.98274,36.80484 39.90552,56.52657 -7.94144,0 -14.60913,0.20724 -21.24392,-0.16725 -1.4012,-0.079 -2.90161,-2.12182 -3.98049,-3.54477 -4.71731,-6.22152 -9.29631,-12.5479 -14.12399,-19.13561 z"
   id="path19"
   style="stroke-width:1.00015" />
<path
   fill="#121212"
   opacity="1"
   stroke="none"
   d="m 658.95898,214.59974 c 10.96477,-0.064 21.50825,-0.064 33.32634,-0.064 -6.85017,6.29486 -12.51103,11.49683 -18.78143,17.25893 -5.35549,-4.61745 -12.03797,-10.37894 -18.97225,-16.3576 1.28692,-0.24844 2.64655,-0.51091 4.42734,-0.83735 z"
   id="path20"
   style="stroke-width:1.00015" />
<path
   fill="#040504"
   opacity="1"
   stroke="none"
   d="m 238.98727,627.67577 c 4.6457,0.21468 8.8495,0.0783 12.93192,0.71711 10.94916,1.71357 16.33635,8.41342 16.29432,19.70892 -0.04,10.76176 -6.09616,18.59497 -16.64648,19.50345 -9.70121,0.83536 -19.53103,0.17757 -29.56522,0.17757 0,-13.19177 0,-26.41328 0,-40.10454 5.60716,0 11.0477,0 16.98546,-0.003 z"
   id="path21"
   style="stroke-width:1.00015" />
<path
   fill="#020101"
   opacity="1"
   stroke="none"
   d="m 396.43979,489.90926 c 0.38728,-0.23587 0.77219,-0.23394 1.15495,-0.20425 0.0107,8.5e-4 -0.002,0.29917 -0.003,0.45879 -0.38477,-0.004 -0.76953,-0.009 -1.15165,-0.25454 z"
   id="path22"
   style="stroke-width:1.00015" />
<path
   fill="#0b0c0a"
   opacity="1"
   stroke="none"
   d="m 572.70729,666.79278 c 0.91905,2.55937 0.21256,3.53232 -2.13578,3.22362 -0.65522,-0.0861 -1.33057,-0.0212 -1.99671,-0.0213 -12.64942,-4.9e-4 -25.29883,-3.7e-4 -37.9834,-3.7e-4 0.94555,-10.0801 8.17488,-17.66492 17.67806,-18.89663 11.42348,-1.48063 19.98386,3.92226 24.43783,15.69468 z"
   id="path23"
   style="stroke-width:1.00015" />
<path
   fill="#090909"
   opacity="1"
   stroke="none"
   d="m 366.30861,686.89475 c -0.45043,16.56066 -11.22804,24.80774 -25.27584,19.87274 -5.42903,-1.90731 -8.58575,-6.12226 -8.31119,-11.09766 0.26936,-4.88232 3.4176,-8.7254 9.4198,-9.19689 7.99262,-0.62781 16.0758,-0.1031 24.16723,0.42181 z"
   id="path24"
   style="stroke-width:1.00015" />
<path
   fill="#0f0403"
   opacity="1"
   stroke="none"
   d="m 825.56502,706.47046 c -6.88802,-9.7039 -3.19549,-20.02773 8.13599,-21.52601 10.32854,-1.36575 20.86818,-1.13501 31.19844,-1.60266 2.73799,9.97249 -0.38943,18.96214 -8.07892,24.09119 -9.02257,6.0183 -22.33598,5.72304 -31.25551,-0.96252 z"
   id="path25"
   style="stroke-width:1.00015" />
<path
   fill="#dc7849"
   opacity="1"
   stroke="none"
   d="m 990.15115,697.97746 c -0.64844,9.91608 -0.78189,19.4026 -2.0571,28.73317 -2.31457,16.9351 -15.89659,24.6635 -31.07487,27.37803 -14.41646,2.57823 -27.54216,-1.17848 -40.56317,-6.46726 -7.15075,-2.90451 -7.93374,-5.74631 -3.85802,-11.60884 8.71728,2.54795 16.99684,5.8629 25.58825,7.26002 11.59208,1.88516 23.62687,1.85385 32.44128,-7.60601 3.33009,-3.57382 4.9228,-9.11148 6.30594,-14.03512 0.95477,-3.39913 0.34014,-7.28878 0.15205,-10.94506 -0.18728,-3.6411 -2.7648,-5.07449 -5.26007,-2.68988 -11.04694,10.55696 -24.34485,10.36211 -37.88085,7.9031 -11.31023,-2.05455 -20.06578,-8.63828 -25.95611,-18.40067 -10.33239,-17.12464 -7.09746,-34.43851 2.80186,-46.95674 6.73252,-8.51376 16.087,-14.90858 28.21099,-14.61332 7.94962,0.19356 16.05758,-0.77272 23.46975,3.04502 3.51171,1.80873 6.76885,4.11704 10.1142,6.24172 4.00661,2.54459 5.43132,2.05107 5.46264,-2.54698 0.0361,-5.2985 3.12009,-5.71578 7.24593,-5.77462 4.36209,-0.0621 4.78215,2.51902 4.87054,5.8229 0.24431,9.12804 0.81486,18.25356 0.8159,27.38012 10e-4,9.12687 -0.53068,18.25368 -0.82914,27.88042 m -38.3426,-49.34587 c -2.15555,-0.15615 -4.31179,-0.4544 -6.46662,-0.44549 -15.00312,0.0618 -27.05097,10.52803 -28.92565,25.056 -1.79941,13.94491 6.75981,26.24827 21.13617,30.38185 16.67691,4.79516 34.1305,-4.02906 37.89995,-19.42964 3.72934,-15.23655 -5.07365,-32.63252 -23.64385,-35.56272 z"
   id="path26"
   style="stroke-width:1.00015" />
<path
   fill="#e17745"
   opacity="1"
   stroke="none"
   d="m 846.76188,176.35762 c -2.82647,-3.66846 -5.7028,-6.86296 -8.14528,-10.36042 -4.92407,-7.05075 -4.65931,-8.27988 1.993,-13.38132 1.94916,-1.49472 4.04495,-4.17733 5.9004,-4.03638 1.94409,0.14764 3.71866,2.99544 5.50036,4.73173 7.8064,7.60745 13.79813,16.37615 17.73881,26.61963 2.63936,6.86082 6.35997,13.32904 8.69389,20.27621 1.65853,4.93687 2.17076,10.35215 2.56849,15.60135 1.11471,14.71106 2.64735,29.70158 -1.13584,44.01824 -3.21331,12.16019 -8.28695,24.012 -13.98683,35.26631 -3.66048,7.22748 -9.86873,13.18886 -15.08333,19.59708 -3.6708,4.51105 -7.30082,2.74783 -10.98639,-0.30442 -5.03049,-4.16611 -5.58143,-5.73111 -2.98078,-10.87291 0.74623,-1.47544 1.36513,-3.20778 2.55035,-4.23802 9.01182,-7.83305 12.63409,-18.66461 16.90497,-29.24317 4.85961,-12.03683 7.23866,-24.49057 6.74901,-37.36381 -0.71193,-18.71737 -3.85418,-36.87903 -14.61676,-52.88057 -0.63495,-0.94408 -1.01765,-2.05785 -1.66407,-3.42953 z"
   id="path27"
   style="stroke-width:1.00015" />
<path
   fill="#e27847"
   opacity="1"
   stroke="none"
   d="m 751.45727,670.35714 c -0.0246,-8.84571 -0.24803,-17.27676 -0.3457,-25.70927 -0.0819,-7.07782 -0.0743,-14.15794 0.005,-21.23582 0.0462,-4.14804 -2.08895,-5.50525 -5.94893,-5.4641 -9.3242,0.0994 -18.65055,-0.0245 -27.97523,0.0497 -3.03933,0.0242 -5.21424,-0.42687 -5.15728,-4.25499 0.0533,-3.5842 1.20805,-5.78549 5.12626,-5.78439 27.64278,0.008 55.28604,-0.0471 82.9271,0.16958 1.34632,0.0106 3.4122,2.16863 3.84484,3.69462 0.72389,2.55357 0.51999,5.9022 -3.23041,5.95635 -9.80268,0.14179 -19.62546,0.1396 -29.41154,-0.36308 -4.58893,-0.23581 -7.40373,1.68573 -7.3834,6.4058 0.0946,21.97424 0.14193,43.94866 0.19309,65.92302 0.0192,8.24439 -0.13906,16.49237 0.0673,24.73164 0.0913,3.64505 -1.31457,5.9655 -4.78294,6.27772 -5.23811,0.47162 -7.27169,-1.43405 -7.2869,-6.15772 -0.0342,-10.65651 0.0552,-21.31394 -0.0492,-31.96955 -0.0387,-3.95381 -0.47885,-7.90377 -0.59155,-12.26949 z"
   id="path28"
   style="stroke-width:1.00015" />
<path
   fill="#e27744"
   opacity="1"
   stroke="none"
   d="m 810.61519,182.26898 c 7.08806,0.89926 9.05169,7.26403 12.04187,11.71581 3.0621,4.55891 3.65413,10.73862 5.56282,16.12543 1.03205,2.91271 3.21355,5.53372 3.74118,8.489 1.99909,11.1963 1.84281,22.39121 -0.65088,33.5903 -2.612,11.73055 -8.57522,21.50595 -16.3218,30.42742 -2.51151,2.89237 -4.6446,2.70009 -6.86957,-0.18517 -2.09371,-2.71515 -4.4467,-5.27027 -6.20057,-8.18735 -0.67041,-1.11505 -0.62157,-3.54073 0.16146,-4.5196 11.72023,-14.65 13.91815,-31.47894 10.89292,-49.20633 -1.53636,-9.00248 -5.44615,-17.32482 -11.31365,-24.51233 -1.92779,-2.3616 -2.23242,-4.124 0.51896,-6.21074 2.8999,-2.19946 5.42357,-4.89498 8.43726,-7.52644 z"
   id="path29"
   style="stroke-width:1.00015" />
<path
   fill="#090302"
   opacity="1"
   stroke="none"
   d="m 952.23117,648.69385 c 18.14758,2.86794 26.95057,20.26391 23.22123,35.50046 -3.76945,15.40058 -21.22304,24.2248 -37.89995,19.42964 -14.37636,-4.13358 -22.93558,-16.43694 -21.13617,-30.38185 1.87468,-14.52797 13.92253,-24.99416 28.92565,-25.056 2.15483,-0.009 4.31107,0.28934 6.88924,0.50775 z"
   id="path30"
   style="stroke-width:1.00015" />
<path
   style="fill:#000000;fill-opacity:1;stroke-width:1.00015"
   d="m 521.92465,310.29082 2.14724,-1.80202 -0.74131,-3.38675 -1.35481,-0.17892 -0.81799,5.03541 z"
   id="path31" /><path
   style="fill:#000000;fill-opacity:1;stroke-width:1.00015"
   d="m 522.82376,309.65769 0.95721,-0.91026 -0.336,-0.30472 -0.88688,0.44146 -0.48838,0.64851 0.42587,0.22267 z"
   id="path32" /><path
   style="fill:#000000;fill-opacity:1;stroke-width:1.00015"
   d="m 521.17892,299.55891 -3.37564,7.00078 6.00113,0.75008 22.37921,-15.50172 6.87629,-1.62518 1.87536,-9.87609 72.01354,-90.88509 57.88589,1.3439 1.75032,0.53131 c 0,0 3.09434,0.0312 3.59443,-0.15627 0.50009,-0.18752 -1.15647,-3.56289 -1.15647,-3.56289 l -42.32046,-6.53198 -29.13047,3.12535 z"
   id="path33" /><path
   style="fill:#000000;fill-opacity:1;stroke-width:1.00015"
   d="m 701.09947,261.21482 -0.55479,1.05871 -8.00776,18.74974 -0.83984,8.83982 0.17681,4.6851 1.41447,-0.99448 11.84627,-29.0609 z"
   id="path34" /><path
   style="fill:#000000;fill-opacity:1;stroke-width:1.00015"
   d="m 691.21085,353.55395 0.0221,9.17131 -7.2271,2.25415 1.63549,10.49729 0.77354,0.95028 6.54197,-7.04976 3.5362,-14.1879 z"
   id="path35" /><path
   style="fill:#000000;fill-opacity:1;stroke-width:1.00015"
   d="m 374.10221,489.02413 15.22776,-5.19339 9.34882,3.97791 0.50834,2.71825 -5.68002,6.32047 -2.09963,2.43095 -4.70756,3.82322 z"
   id="path36" /></svg>
