<?xml version="1.0" encoding="UTF-8" standalone="no"?>
<svg
   version="1.1"
   id="Layer_1"
   x="0px"
   y="0px"
   width="100%"
   viewBox="0 0 1168 880"
   enable-background="new 0 0 1168 880"
   xml:space="preserve"
   sodipodi:docname="RavenTag_Logo_Accent.svg"
   inkscape:version="1.4.3 (1:1.4.3+202512261035+0d15f75042)"
   inkscape:export-filename="RavenTag_Logo_Accent.jpg"
   inkscape:export-xdpi="96"
   inkscape:export-ydpi="96"
   xmlns:inkscape="http://www.inkscape.org/namespaces/inkscape"
   xmlns:sodipodi="http://sodipodi.sourceforge.net/DTD/sodipodi-0.dtd"
   xmlns="http://www.w3.org/2000/svg"
   xmlns:svg="http://www.w3.org/2000/svg"><defs
   id="defs103" /><sodipodi:namedview
   id="namedview103"
   pagecolor="#ffffff"
   bordercolor="#000000"
   borderopacity="0.25"
   inkscape:showpageshadow="2"
   inkscape:pageopacity="0.0"
   inkscape:pagecheckerboard="0"
   inkscape:deskcolor="#d1d1d1"
   inkscape:zoom="0.70710678"
   inkscape:cx="399.51533"
   inkscape:cy="381.83766"
   inkscape:window-width="2560"
   inkscape:window-height="1284"
   inkscape:window-x="0"
   inkscape:window-y="0"
   inkscape:window-maximized="1"
   inkscape:current-layer="Layer_1" />
<path
   fill="#0c0c0c"
   opacity="1"
   stroke="none"
   d="m 796.66769,881 c -265.87173,0 -531.243,0 -796.6628401,0 0,-293.62961 0,-587.25928 0,-880.99118901 389.5170101,0 779.0825701,0 1168.8218501,0 0,293.59544901 0,587.29331901 0,880.99118901 -123.8011,0 -247.72985,0 -372.15901,0 M 616.60982,448.47435 c 0,0 0.20282,0.304 0.69637,0.13136 0.1683,-0.29575 0.3366,-0.59152 0.31687,-1.00054 0,0 0.14906,0.16115 0.64608,0.015 0.18883,-0.27524 0.37772,-0.55051 0.55244,-1.00866 0,0 0.032,0.19051 0.51199,0.052 0.31211,-0.18089 0.48976,-0.45042 0.44156,-0.94862 0,0 0.14197,0.0883 0.61242,-0.10857 0.14362,-0.30021 0.28718,-0.60041 0.27625,-0.9757 0,0 0.108,0.13368 0.68121,-0.0812 0.46281,-0.65105 0.92563,-1.30213 1.26657,-1.98312 0,0 0.0822,0.0949 0.7062,-0.13612 1.87771,-2.18151 3.75543,-4.36302 5.50534,-6.64225 0,0 0.15835,0.0284 0.6076,-0.17291 0.26776,-0.22587 0.41095,-0.51373 0.19115,-1.08044 0,0 0.20508,0.2486 0.81237,-0.0144 14.4928,-15.89498 28.9856,-31.78992 43.46508,-47.74074 0,0 0.043,-0.0381 0.51242,-0.19898 0.29739,-0.1958 0.4655,-0.47071 0.53735,-0.88128 0,0 0.0561,0.0337 0.67308,-0.24484 4.03938,-3.47511 0.97408,-5.4042 -1.61179,-7.29268 0,0 -0.0539,-0.13338 -0.20783,-0.68545 -0.41608,-0.37098 -0.83216,-0.74192 -1.24812,-1.10071 0,0 0.0122,0.001 -0.22261,-0.639 -17.45498,-22.41802 -34.90996,-44.83607 -52.36493,-67.25409 -0.43704,0.18394 -0.87401,0.36786 -1.31105,0.5518 0,1.77628 -10e-4,3.5526 1.8e-4,5.32888 0.0175,19.79856 0.15847,39.59849 -0.0638,59.39436 -0.0387,3.43917 -1.61191,6.86111 -2.51579,10.30811 0,0 -0.004,-0.0429 -0.61267,0.17939 -2.997,3.38084 -5.99406,6.76166 -8.96327,10.15164 0,0 -0.0134,-0.0263 -0.61199,0.26916 -1.6008,2.11716 -3.20159,4.23432 -4.79719,6.48085 0,0 -0.0781,-0.10318 -0.64975,0.18196 -6.12376,7.02841 -11.98935,14.30569 -18.44922,21.01005 -5.64126,5.8548 -9.54178,13.4531 -18.3153,16.22733 -30.46073,9.63185 -60.78233,19.70423 -91.14883,29.63376 -23.71176,7.75349 -47.32784,15.81467 -71.16019,23.17628 -8.83287,2.72843 -16.3579,7.0711 -23.75296,13.33387 -2.25754,1.69819 -4.51896,3.39124 -6.77195,5.09538 -17.35131,13.12484 -34.70096,26.25185 -52.68828,39.61505 -3.1138,2.27541 -6.2276,4.55081 -9.75169,7.12603 25.6082,11.6004 76.27563,13.4853 112.29992,-24.63397 0,0 -0.0528,0.0526 0.51823,-0.0752 0.38773,-0.4125 0.77547,-0.825 1.1122,-1.27111 0,0 0.0326,0.0518 0.67992,-0.13438 5.21221,-4.51892 10.42441,-9.03789 15.55479,-13.83437 0,0 0.0407,0.28649 0.6696,0.13432 1.05224,-1.05514 2.10448,-2.11022 3.11231,-3.18712 0,0 0.023,0.0439 0.67183,-0.16421 2.89407,-2.47545 5.78813,-4.95094 8.43973,-7.44692 0,0 0.24249,-0.0192 0.88534,-0.22468 3.59901,-2.91951 7.06771,-6.02172 10.83273,-8.70847 3.95831,-2.82473 8.03003,-7.10229 12.35066,-7.49997 12.16201,-1.11934 24.47745,-0.5712 36.70838,-0.82778 0,0 -0.13025,0.0728 0.0203,0.76059 3.26659,4.47204 6.53318,8.94408 10.11908,13.38429 0,0 -0.31797,0.009 -0.168,0.65832 1.38521,1.71211 2.77036,3.4242 4.21978,5.07792 0,0 -0.0792,0.035 0.0669,0.70033 1.48466,1.87468 2.96932,3.74932 4.49913,5.72326 0,0 0.0628,0.0893 0.22628,0.67253 0.93699,1.07219 1.87405,2.14432 2.80273,3.12235 0,0 0.0334,0.082 0.14613,0.70155 0.65134,0.78466 1.30268,1.56933 2.2164,2.26844 0,0 -0.27234,0.0445 -0.15212,0.70571 1.2992,1.46605 2.59845,2.9321 4.07701,4.30698 0,0 -0.19897,0.0298 -0.0663,0.68273 0.66386,0.87951 1.32772,1.75908 2.02194,2.93229 0,0 0.2209,0.1958 0.31822,0.82145 0.54461,0.63024 1.08929,1.26042 1.68571,2.18167 0,0 0.22658,0.18962 0.36861,0.87022 1.2254,2.74156 2.4508,5.48318 3.68878,8.31452 0,0 0.0263,-0.0867 -0.68897,-0.20436 -0.72049,0.0697 -1.44104,0.13946 -2.51714,0.011 -0.51284,0.0865 -1.02575,0.17307 -2.36484,0.17466 -2.46118,0.67014 -4.92243,1.34028 -7.33241,2.04587 0,0 -0.0205,-0.0589 -0.66588,0.15174 -2.60951,3.24353 -5.21902,6.48699 -7.82853,9.73046 0.30289,0.473 0.60583,0.94606 0.90878,1.41906 20.19821,0 40.39642,0 61.46308,0.38567 5.47009,-0.10554 10.94013,-0.21108 17.2196,-0.27732 11.92013,0.0244 23.84026,0.0488 36.21104,0.38157 0.68182,-0.1092 1.36365,-0.21841 2.5475,-0.31435 0.33465,-0.006 0.66936,-0.0125 1.32901,0.23986 0.37845,-0.0836 0.75696,-0.1672 1.6898,-0.72429 -1.92701,-8.41376 -7.43773,-13.4091 -15.74147,-13.75327 -6.28143,-0.26034 -12.59358,0.16212 -18.86817,-0.17111 -2.33759,-0.12418 -4.6072,-1.53144 -6.97455,-2.26533 0,0 0.11064,5.5e-4 0.009,-0.59723 -0.39177,-0.43414 -0.7836,-0.86827 -1.21165,-1.23549 0,0 0.0751,-0.0121 -0.0726,-0.536 -0.29757,-0.19042 -0.5952,-0.38084 -0.89624,-0.48779 0,0 0.0827,-0.0114 -0.0776,-0.6138 -0.58377,-0.55 -1.16761,-1.09993 -1.7727,-1.50681 0,0 0.13965,-0.0379 0.0492,-0.63776 -0.41541,-0.40962 -0.83082,-0.81919 -1.25399,-1.19973 0,0 0.0297,-0.005 -0.14167,-0.5008 -0.284,-0.19097 -0.56801,-0.38201 -0.99723,-1.01616 -0.17325,-0.28355 -0.42317,-0.45558 -0.90932,-1.10671 -0.54748,-0.56406 -1.09503,-1.12811 -1.72474,-1.59812 0,0 0.12303,0.0218 0.0737,-0.59113 -0.37326,-0.46401 -0.74658,-0.92809 -1.14928,-1.30074 0,0 0.0944,-0.0171 0.002,-0.6927 -0.66551,-0.90083 -1.33108,-1.80161 -2.08248,-3.19476 -0.33135,-0.34735 -0.6627,-0.69477 -1.13566,-1.63252 -0.54999,-0.56185 -1.09998,-1.1237 -1.73024,-1.59169 0,0 0.12303,-0.0113 -0.0133,-0.68683 -1.30952,-1.7988 -2.61904,-3.5976 -3.99777,-5.30071 0,0 0.11741,0.0122 0.0293,-0.58403 -0.40441,-0.42143 -0.80883,-0.84285 -1.23352,-1.2346 0,0 0.031,-0.0174 -0.12988,-0.6328 -0.96393,-1.11149 -1.92787,-2.22301 -2.86627,-3.36569 0,0 -0.0386,0.01 -0.16812,-0.64897 -1.19497,-1.54507 -2.38995,-3.09011 -3.65353,-4.54006 0,0 0.11613,0.0159 0.009,-0.57255 -0.3911,-0.42832 -0.78219,-0.85662 -1.19772,-1.25348 0,0 0.0318,-0.0231 -0.17863,-0.72984 -0.76472,-2.00955 -1.52938,-4.01912 -1.86476,-6.46521 0.0564,-0.1962 0.11271,-0.39236 0.76979,-0.71433 0.4418,-0.35713 0.8836,-0.71426 1.26993,-1.09388 0,0 0.0221,0.0557 0.51987,-0.12146 0.17197,-0.29541 0.34394,-0.59079 0.48084,-0.89119 0,0 0.0135,0.0328 0.54119,-0.19882 0.43356,-0.61077 0.86711,-1.22155 1.86917,-2.19535 3.27483,-3.74167 6.54967,-7.48338 10.34939,-11.51047 0.13849,-0.35289 0.27698,-0.70574 0.66936,-1.48885 0.24203,-0.23216 0.45163,-0.49069 1.00657,-0.85888 0.22078,-0.17591 0.31718,-0.40441 0.76949,-1.13126 0.27826,-0.33568 0.55658,-0.67136 1.45253,-1.11656 1.59163,-1.70328 3.1832,-3.40657 5.19384,-5.35708 0.25878,-0.2123 0.44132,-0.47719 1.11165,-1.1267 1.13957,-1.54296 2.27908,-3.08596 3.41082,-4.69556 0,0 0.0663,-0.01 0.62856,-0.2387 0.78781,-0.90811 1.57556,-1.81625 2.2192,-2.76304 0,0 0.14741,-0.023 0.63136,-0.19064 0.16989,-0.28563 0.33985,-0.57126 0.24473,-1.18909 0,0 0.25346,0.3384 0.73802,0.14471 0.15945,-0.30049 0.31889,-0.60094 0.28041,-0.87682 0,0 0.19805,0.0241 0.78488,-0.2285 1.06296,-1.32754 2.12592,-2.65506 3.13481,-4.02333 0,0 0.0425,0.0524 0.56747,-0.18065 0.28651,-0.47813 0.57296,-0.95626 0.45487,-1.58833 0,0 0.41413,0.12482 0.87694,-0.0634 0.1446,-0.29177 0.28914,-0.58354 0.20465,-1.16019 m -296.46124,51.95553 c 0,0 10e-4,-0.10019 -0.66035,-0.10718 -0.82401,0.66476 -1.64805,1.32953 -2.34438,2.19223 0,0 -0.13871,-0.19907 -0.7737,0.0149 -1.96175,1.69088 -3.92349,3.38179 -5.88523,5.07267 2.9397,0.19696 5.3733,-0.47807 7.76398,-1.28094 13.47581,-4.52579 26.94126,-9.08235 41.1854,-13.6625 9.83281,-3.08626 19.69797,-6.07358 29.49099,-9.28129 15.79929,-5.17507 31.53732,-10.53694 47.32726,-15.74085 12.31911,-4.06003 24.69723,-7.94095 37.01407,-12.00767 16.58301,-5.47521 33.1211,-11.08657 49.6999,-16.57477 12.78155,-4.23114 25.61356,-8.31027 38.37423,-12.60274 1.63781,-0.55097 3.27086,-1.72687 4.41538,-3.041 12.79646,-14.69341 25.59628,-29.38718 38.11191,-44.31852 1.81931,-2.17054 3.01869,-5.58072 3.03604,-8.42623 0.11057,-18.17007 -0.20252,-36.34259 -0.34797,-54.5145 -0.0465,-5.80719 -0.007,-11.61506 -0.007,-17.84893 -1.86703,-0.14065 -3.65378,-0.37672 -5.44279,-0.39453 -20.66365,-0.20567 -41.32749,-0.43649 -61.99157,-0.46573 -1.96752,-0.003 -4.21837,0.91153 -5.86186,2.0735 -16.5828,11.72365 -33.08423,23.56287 -49.56935,35.42406 -7.28822,5.24396 -14.48693,10.61238 -22.33562,16.22017 -40.4777,28.79874 -80.9554,57.59748 -121.4331,86.39619 0.21998,0.58383 0.43997,1.16768 0.65995,1.7515 18.12247,0 36.24495,0 54.36742,0 -13.11061,11.84747 -26.59668,22.39104 -39.96494,33.08205 -11.04438,8.83258 -21.94956,17.8394 -33.40843,26.79387 -0.50497,0.40468 -1.00991,0.80938 -1.41997,1.24623 m 407.57865,106.29241 c -1.68876,0.0628 -3.37753,0.12564 -5.99418,0.0395 -4.40145,0.0391 -8.80297,0.078 -14.06151,-0.0752 -2.29221,0 -4.58435,0 -7.06233,0 0,3.87859 0,7.4688 0,11.90852 13.5448,0 26.76828,0 39.97386,0.94832 0,34.41759 0,68.83512 0,103.45096 4.6791,0 8.70754,0 13.10893,0 0,-35.04808 0,-69.68102 0.91635,-104.46192 11.76551,-0.032 23.53169,-0.14538 35.29598,-0.0421 3.1818,0.0279 4.61221,-0.93805 4.32851,-4.26292 -0.20434,-2.39463 -0.0398,-4.82086 -0.0398,-7.31547 -6.24911,0 -11.86252,0 -18.4128,-0.13982 -15.7427,0.049 -31.48539,0.098 -48.05298,-0.0499 M 582.97597,285.48344 c 10.00484,0.0142 20.01653,-0.16421 30.00946,0.18868 2.27578,0.0804 5.16337,1.43317 6.61113,3.16772 6.50709,7.79608 12.5598,15.97001 18.84605,23.95273 8.45525,10.73689 16.99106,21.41021 25.46017,32.13619 5.29013,6.69994 10.52118,13.44662 15.77868,20.17235 1.1199,-2.6425 1.12656,-4.76113 1.1188,-6.87973 -0.0747,-20.35121 0.23391,-40.71437 -0.39428,-61.04854 -0.30538,-9.88684 1.04293,-18.68582 7.39601,-26.57656 3.00892,-3.73703 5.60633,-7.94629 7.63402,-12.29446 2.1049,-4.5136 5.64029,-5.45146 9.94375,-6.16435 15.76854,-2.61211 31.50298,-5.4335 47.23438,-8.26454 4.93849,-0.88875 9.82689,-2.05577 15.18513,-3.19003 -10.7312,-16.34418 -26.6207,-22.5628 -44.0659,-24.1741 -14.26274,-1.31733 -28.12735,-1.78195 -38.39787,-13.66502 -4.78046,-5.53112 -11.11179,-6.23726 -18.11359,-6.06482 -14.82507,0.36514 -29.67011,-0.12474 -44.49982,0.14051 -2.37272,0.0425 -5.39709,1.6023 -6.94467,3.44738 -7.81093,9.31244 -15.19033,18.98555 -22.80094,28.46799 -11.57351,14.42003 -23.22435,28.77804 -34.81698,43.18276 -3.3848,4.20584 -6.6837,8.48086 -10.58886,13.44482 12.20053,0 23.30267,0 35.40533,0.021 M 286.98114,632.52916 c -2.74906,-4.12811 -4.92853,-8.82107 -8.35441,-12.27793 -10.11114,-10.20267 -23.2253,-13.2053 -37.01422,-13.45114 -16.33111,-0.29132 -32.67105,-0.095 -49.00715,-0.0863 -1.09333,5.5e-4 -2.18657,0.20026 -3.08921,0.28862 0,38.96609 0,77.58152 0,116.50024 9.05206,0 17.77352,0 26.97928,0 0,-11.05853 0,-21.80575 0,-32.92777 7.96086,0 15.44474,-0.11916 22.91751,0.11544 1.26812,0.0398 2.88977,1.33173 3.66729,2.49895 6.00063,9.00831 11.79339,18.15492 17.76454,27.18327 0.83351,1.26029 2.26359,2.97599 3.45981,3.01045 8.85774,0.25532 17.72616,0.1383 27.30023,0.1383 -8.71982,-13.18537 -17.0078,-25.71771 -25.34933,-38.33108 22.34188,-9.38696 27.49233,-34.46777 20.72566,-52.66106 M 897.334,147.96791 c -8.03806,-13.04069 -17.34795,-25.01218 -29.28494,-35.5119 -5.26099,5.70623 -10.20522,11.06894 -15.3651,16.66557 29.87219,30.04733 46.19335,66.37626 46.22939,109.37596 0.036,42.9787 -16.34467,79.2368 -46.517,109.91672 5.53723,5.3851 10.98863,10.68663 16.43698,15.98526 C 926.16944,311.5562 940.19368,219.11431 897.334,147.96791 M 670.88858,682.27058 c 0,13.7622 0,27.52445 0,41.219 9.39535,0 17.80551,0 26.40437,0 0,-18.52543 0.10642,-36.68621 -0.0837,-54.84394 -0.0415,-3.95578 -0.85037,-7.97334 -1.81156,-11.83665 -3.04434,-12.23742 -13.57657,-21.26944 -25.97308,-23.20917 -14.03805,-2.19645 -26.67867,0.43811 -38.16695,10.43691 0,-3.76291 0,-6.79713 0,-9.91661 -8.54456,0 -16.62575,0 -24.75685,0 0,29.94641 0,59.58836 0,89.44218 8.61322,0 17.01348,0 25.92702,0 0,-2.20287 10e-4,-4.15958 -2.4e-4,-6.11635 -0.009,-12.67791 -0.0949,-25.35654 0.0266,-38.03317 0.0299,-3.13059 0.44351,-6.32498 1.18129,-9.36862 2.31964,-9.56857 11.72244,-15.40272 22.78909,-14.38168 8.34388,0.76994 13.42574,6.8503 14.19493,17.11591 0.21155,2.82418 0.18632,5.66609 0.2691,9.49219 m -161.98675,27.51736 c 21.39863,22.86163 62.41432,17.56716 74.49444,-0.34393 -4.27927,-4.86236 -8.64627,-9.82445 -13.06373,-14.8438 -9.36157,9.39735 -20.28111,11.40667 -32.05383,7.65629 -7.46467,-2.37801 -13.32317,-7.15811 -14.94144,-16.2342 11.42072,0 22.38901,0 33.3573,0 10.96829,0 21.93652,0 34.23724,0 -0.87707,-7.87891 -0.61915,-15.38224 -2.65722,-22.19863 -9.71363,-32.48636 -46.4776,-37.46409 -68.79104,-24.90982 -25.15741,14.15441 -30.12746,47.51509 -10.58172,70.87409 M 382.5525,652.07967 c -3.80317,-7.39547 -9.20111,-13.57972 -17.2495,-15.73761 -7.79132,-2.08902 -16.03748,-3.43835 -24.0789,-3.41464 -12.55739,0.037 -24.60633,3.08281 -35.29605,10.75114 3.01487,6.22189 5.87543,12.12527 8.84405,18.25177 9.17311,-6.81161 19.15083,-9.24896 29.99807,-8.22315 9.82182,0.92882 15.80666,7.64688 15.01347,17.01098 -2.95781,0 -5.96141,-0.20748 -8.92762,0.0377 -10.23543,0.84596 -20.68699,0.8283 -30.62543,3.05971 -11.66554,2.61915 -17.98903,11.76197 -18.16493,22.71001 -0.1943,12.09038 6.31921,22.01939 17.56839,25.71257 15.52677,5.09751 30.03185,3.96183 42.72928,-9.16243 0,4.00191 0,7.22326 0,10.47962 8.27491,0 16.03578,0 23.87236,0 0,-17.11933 0.30612,-33.93616 -0.15061,-50.73228 -0.18275,-6.72019 -2.04623,-13.39461 -3.53258,-20.74339 M 870.63059,213.75518 c -5.76168,-25.8531 -17.41851,-48.35805 -36.57203,-65.47534 -5.92087,5.15709 -11.66263,10.15814 -17.39621,15.15213 48.01767,48.36074 38.30814,112.55161 -0.039,150.63076 5.74909,5.19951 11.49898,10.39975 17.74558,16.04915 30.4341,-32.33706 44.45669,-70.34905 36.26163,-116.3567 M 935.25164,718.978 c 12.8107,0.48174 22.86924,-5.14879 31.59596,-15.06178 0,5.4093 0.12841,9.91532 -0.0252,14.41168 -0.39208,11.47732 -6.17153,21.16317 -15.87765,23.77138 -16.31296,4.38356 -32.05517,2.56239 -46.24631,-7.48689 -1.15795,-0.81998 -2.30901,-1.64981 -3.70179,-2.64561 -1.17591,1.99276 -1.92817,3.68572 -3.04813,5.08406 -2.90127,3.6223 -1.9396,5.65882 1.8884,8.1406 15.02777,9.7428 31.63543,11.31568 48.59925,9.02664 14.52371,-1.95982 25.05673,-10.11423 28.67037,-24.94398 1.6033,-6.57933 2.27352,-13.51836 2.37108,-20.30853 0.33318,-23.1871 0.22963,-46.38055 0.26842,-69.57163 0.002,-1.26793 -0.2165,-2.53623 -0.37612,-4.28412 -3.92471,0.17838 -7.50982,0.34136 -11.69105,0.53142 0,4.71129 0,9.06264 0,14.79668 -10.47206,-12.69734 -22.95164,-16.63282 -37.72032,-15.96647 -29.26521,1.32055 -48.60621,32.06739 -36.0389,60.55617 7.51135,17.02736 21.981,24.25697 41.33195,23.95038 M 480.91823,633.76776 c -2.16618,-0.0168 -4.35781,0.1697 -6.49258,-0.0978 -3.20175,-0.40125 -4.56289,0.88348 -5.71424,3.90952 -4.30878,11.32441 -9.00762,22.50045 -13.57059,33.72789 -3.06833,7.54971 -6.15424,15.09228 -9.76987,23.95588 -7.3938,-19.37922 -14.21807,-37.51745 -21.3145,-55.54856 -0.89298,-2.26905 -3.09557,-5.52877 -4.9015,-5.67165 -7.89328,-0.62437 -15.86405,-0.26864 -24.25943,-0.26864 12.32388,30.2321 24.46261,60.00996 36.64799,89.90234 7.73567,0 15.23819,-0.2302 22.71566,0.10267 3.43816,0.15302 4.83934,-0.95675 6.07898,-4.10366 6.88227,-17.47066 14.02818,-34.83761 21.1203,-52.22516 4.50997,-11.05706 9.08339,-22.0882 13.85557,-33.68304 -4.86693,0 -9.14021,0 -14.39579,1.9e-4 m 374.01896,39.23277 c -12.96274,0.54303 -25.9947,0.4436 -38.86618,1.83309 -10.23809,1.105 -18.08115,9.39936 -19.5247,18.20789 -1.96587,11.99579 1.60971,20.83018 11.84548,26.19548 12.72297,6.66898 25.85224,7.13226 38.70283,-0.0452 3.25657,-1.81891 6.22571,-4.15274 9.42125,-6.31375 0.61854,3.57243 0.0966,8.20336 2.06758,9.85232 2.08982,1.74838 6.54796,0.66397 10.09667,0.82231 0.25584,-1.36761 0.54064,-2.16425 0.53355,-2.9582 -0.1793,-20.0001 -0.0818,-40.00974 -0.72446,-59.99548 -0.31889,-9.9196 -6.23121,-17.06274 -14.64974,-21.86142 -8.99454,-5.12715 -19.01808,-4.90263 -28.76971,-3.75197 -9.81803,1.15848 -18.82729,4.97217 -26.40046,11.8889 1.80783,3.28031 3.39384,6.15815 5.04576,9.15553 10.73829,-8.86898 22.72348,-11.65693 35.82319,-9.55159 12.9099,2.07484 19.94872,13.65727 15.39894,26.52205 M 806.91158,287.01008 c 27.38676,-34.00896 16.3586,-88.73694 -8.55005,-104.9283 -5.04681,4.80838 -10.06294,9.58763 -15.03241,14.32237 20.81351,28.33829 21.68783,56.19945 0.0798,83.80336 5.30875,5.3166 10.32477,10.34001 15.72033,15.74351 2.57164,-2.9238 4.9655,-5.64544 7.78228,-8.94094 z"
   id="path1"
   style="stroke-width:1.00107" />
<path
   fill="#e36c33"
   opacity="1"
   stroke="none"
   d="m 582.47571,285.47293 c -11.6024,-0.0105 -22.70454,-0.0105 -34.90507,-0.0105 3.90516,-4.96396 7.20406,-9.23898 10.58886,-13.44482 11.59263,-14.40472 23.24347,-28.76273 34.81698,-43.18276 7.61061,-9.48244 14.99001,-19.15555 22.80094,-28.46799 1.54758,-1.84508 4.57195,-3.40492 6.94467,-3.44738 14.82971,-0.26525 29.67475,0.22463 44.49982,-0.14051 7.0018,-0.17244 13.33313,0.5337 18.11359,6.06482 10.27052,11.88307 24.13513,12.34769 38.39787,13.66502 17.4452,1.6113 33.3347,7.82992 44.0659,24.1741 -5.35824,1.13426 -10.24664,2.30128 -15.18513,3.19003 -15.7314,2.83104 -31.46584,5.65243 -47.23438,8.26454 -4.30346,0.71289 -7.83885,1.65075 -9.94375,6.16435 -2.02769,4.34817 -4.6251,8.55743 -7.63402,12.29446 -6.35308,7.89074 -7.70139,16.68972 -7.39601,26.57656 0.62819,20.33417 0.31957,40.69733 0.39428,61.04854 0.008,2.1186 10e-4,4.23723 -1.1188,6.87973 -5.2575,-6.72573 -10.48855,-13.47241 -15.77868,-20.17235 -8.46911,-10.72598 -17.00492,-21.3993 -25.46017,-32.13619 -6.28625,-7.98272 -12.33896,-16.15665 -18.84605,-23.95273 -1.44776,-1.73455 -4.33535,-3.08736 -6.61113,-3.16772 -9.99293,-0.35289 -20.00462,-0.17447 -30.50972,-0.19919 m 72.89352,-56.61788 c 3.16224,2.34931 6.32455,4.69861 10.01718,7.44193 5.2173,-5.6183 10.15292,-10.93329 15.25446,-16.42688 -11.48327,0 -22.99349,0 -35.88537,0 4.03174,3.42278 7.04432,5.9804 10.61373,8.98495 z"
   id="path2"
   style="stroke-width:1.00107" />
<path
   fill="#e36b31"
   opacity="1"
   stroke="none"
   d="m 595.50993,472.12119 c -0.27827,0.33569 -0.55659,0.67137 -1.24012,1.30084 -0.60901,0.45357 -0.72123,0.66257 -0.742,0.92082 -0.17716,0.28484 -0.38676,0.54337 -1.04378,0.97307 -0.60698,0.19583 -0.79905,0.19412 -1.35277,0.23375 -6.22186,2.51173 -11.3446,5.62799 -11.6685,13.29348 0.002,0.79407 0.0115,1.24779 0.0207,1.70148 0,0 -0.0135,-0.0328 -0.23287,0.0731 -0.39941,0.39135 -0.57938,0.67693 -0.75929,0.9625 0,0 -0.0221,-0.0557 -0.33666,-0.0671 -0.77144,-0.015 -1.22815,-0.0186 -1.89305,-0.25254 -3.80485,1.20648 -3.80485,1.20648 -3.92385,10.8179 3.9142,0.98859 9.98041,9.53915 8.14026,13.44445 -0.90694,-1.46019 -1.34971,-3.17833 -2.27644,-3.49965 -5.45525,-1.89163 -9.72689,-5.50228 -11.71536,-10.56089 -2.73175,-6.94949 -7.04047,-12.15639 -12.95132,-16.40516 -3.35762,-2.41346 -8.77542,-2.36179 -9.91169,1.13691 -1.48173,4.56291 -3.85659,7.5539 -7.74617,10.21867 -2.24547,1.53838 -2.2255,4.32663 1.93324,3.95153 -0.0238,0.027 0.009,-0.007 -0.0883,0.38299 0.19115,1.99802 0.44718,3.61306 0.77437,5.21359 0.91708,4.48662 -1.2078,7.51998 -6.41222,8.67651 -0.58328,0.20148 -0.8043,0.31527 -1.02527,0.429 0,0 -0.0628,-0.0893 0.0586,-0.51217 -1.50794,-2.27052 -3.13726,-4.11812 -4.76659,-5.96569 0,0 0.0792,-0.035 0.0748,-0.37156 -1.45809,-2.02124 -2.91172,-3.70595 -4.36535,-5.39063 0,0 0.31797,-0.009 0.23996,-0.36562 -3.44925,-4.80956 -6.82042,-9.26254 -10.19166,-13.71548 0,0 0.13025,-0.0728 -0.0757,-0.3648 -9.28013,-0.47814 -18.35819,-0.55651 -27.42717,-0.88517 -6.98264,-0.25306 -13.69258,-0.41473 -19.09737,5.37759 -4.31003,4.61907 -9.18175,8.71372 -13.80414,13.04118 0,0 -0.24249,0.0192 -0.48615,-0.0691 -3.11075,2.52224 -5.97787,5.13278 -8.84496,7.74332 3e-5,0 -0.0229,-0.0439 -0.34369,-0.0182 -1.354,1.12164 -2.38721,2.2176 -3.42042,3.31363 0,0 -0.0407,-0.28649 -0.36757,-0.21872 -3.17874,1.84983 -6.34261,3.28655 -8.79887,5.50671 -2.69855,2.43919 -4.74554,5.59979 -7.07645,8.44603 0,0 -0.0326,-0.0518 -0.32802,-0.0224 -0.65956,0.47606 -1.02365,0.92278 -1.38775,1.36944 0,0 0.0528,-0.0526 -0.3228,-0.11709 -1.91571,0.53833 -3.45584,1.14119 -5.03553,1.39119 -1.73571,-5.90595 3.99719,-7.68538 6.27703,-10.53003 2.32144,-2.89648 4.20089,-4.81885 3.00253,-8.46925 1.63216,-0.53729 2.9177,-0.96048 5.59548,-1.84195 -3.09517,-0.6834 -4.75886,-1.05071 -7.63224,-1.68514 1.2243,-3.67961 2.31462,-6.9566 3.40495,-10.23361 3.4016,1.50929 5.53137,1.8171 7.65799,1.79684 0.45598,-0.004 0.90071,-1.19631 1.35061,-1.84121 -1.74253,-0.66122 -3.48502,-1.32247 -5.50095,-2.08746 0.45463,-1.31016 0.95862,-2.76258 1.84488,-5.31663 -5.11449,1.06612 -9.40916,1.93649 -13.69246,2.85951 -8.71674,1.87843 -17.29386,6.00822 -26.1905,1.27102 0.57412,-0.63223 0.90183,-1.12316 1.33719,-1.25302 14.09703,-4.20526 28.26566,-8.18173 42.29161,-12.61053 11.95947,-3.77627 23.74951,-8.08771 35.62727,-12.1247 16.59676,-5.64088 33.17427,-11.34101 49.81865,-16.83819 13.67634,-4.51696 27.5302,-8.51313 41.11154,-13.29152 4.68283,-1.64752 9.50128,-4.22616 12.99231,-7.665 6.71621,-6.61569 12.64001,-14.05709 18.66908,-21.34106 2.85106,-3.44446 5.18694,-7.31575 7.75625,-10.99368 0,3e-5 0.0781,0.10321 0.43698,0.0453 1.91821,-2.2781 3.47759,-4.4982 5.03691,-6.7183 0,-3e-5 0.0134,0.0262 0.34723,-0.001 3.30202,-3.4672 6.27019,-6.90674 9.23841,-10.34628 0,0 0.004,0.0429 0.40435,0.0151 3.54425,-1.5983 4.09473,-4.28315 4.07615,-7.54303 -0.10085,-17.67809 -0.10122,-35.35738 0.004,-53.03542 0.0157,-2.63822 0.77279,-5.27199 1.38301,-9.15583 1.87766,2.08984 2.81899,2.97665 3.5707,4.00243 3.03793,4.14525 5.89772,8.42601 9.04115,12.48803 8.93742,11.54906 17.85823,23.11554 27.05052,34.46034 3.26207,4.02584 7.28733,7.43275 10.9642,11.12223 0,0 -0.0122,-0.001 0.0123,0.30868 0.47558,0.65416 0.92655,0.99861 1.37751,1.34306 0,0 0.0539,0.13338 -0.0542,0.42827 0.29556,2.62206 0.69924,4.94919 1.10292,7.27636 0,0 -0.0561,-0.0337 -0.35738,0.003 -0.43599,0.3598 -0.57082,0.68243 -0.70558,1.00507 0,0 -0.043,0.0381 -0.39611,-0.0393 -1.09283,0.22795 -2.03814,0.33795 -2.54109,0.86799 -6.82097,7.18791 -13.64108,14.37869 -20.33768,21.68234 -6.11422,6.66849 -12.07816,13.47482 -18.43681,20.2138 -0.77132,0.66086 -1.21409,1.32831 -1.7044,2.33396 -0.26476,1.2198 -0.482,2.10139 -0.69923,2.98301 0,0 -0.20508,-0.2486 -0.37216,-0.1108 -0.26916,0.47319 -0.37124,0.80856 -0.47332,1.14391 0,0 -0.15835,-0.0284 -0.45341,-0.005 -2.14144,2.29872 -3.98788,4.57453 -5.83431,6.8503 0,0 -0.0822,-0.0949 -0.34015,-0.0139 -0.69923,0.75964 -1.14055,1.43834 -1.5818,2.117 0,0 -0.108,-0.13368 -0.31259,-0.0485 -0.31712,0.41922 -0.42958,0.75335 -0.54211,1.08744 0,0 -0.14197,-0.0883 -0.38395,-0.0266 -0.38786,0.38295 -0.53368,0.70421 -0.67956,1.02547 0,0 -0.032,-0.19051 -0.31077,-0.0877 -0.44265,0.41919 -0.60668,0.73559 -0.7707,1.05199 0,0 -0.14906,-0.16115 -0.33801,-0.0645 -0.33312,0.42328 -0.4773,0.74989 -0.62147,1.07653 0,0 -0.20282,-0.304 -0.3746,-0.13133 -0.27979,0.50701 -0.38774,0.84138 -0.49568,1.17575 0,0 -0.41413,-0.12482 -0.53661,-0.0393 -0.36752,0.63562 -0.61249,1.18571 -0.8574,1.73583 0,0 -0.0425,-0.0524 -0.36971,-0.009 -1.3496,1.43968 -2.37199,2.83631 -3.39439,4.23291 0,0 -0.19805,-0.0241 -0.37686,0.0191 -0.31462,0.37122 -0.45042,0.69926 -0.58622,1.02734 6e-5,0 -0.2534,-0.3384 -0.40466,-0.14597 -0.29329,0.51639 -0.43532,0.84034 -0.57742,1.16426 0,0 -0.14741,0.023 -0.44882,-0.0409 -1.02766,0.97591 -1.75383,2.01577 -2.48006,3.05561 0,0 -0.0663,0.01 -0.43753,-0.0743 -0.89026,-0.11782 -1.40934,-0.15122 -2.1743,-0.46371 -4.44287,-0.50985 -9.14336,6.00354 -7.8223,10.47949 0.005,0.63461 0.0194,0.99605 0.0339,1.35746 z"
   id="path3"
   style="stroke-width:1.00107" />
<path
   fill="#fafafa"
   opacity="1"
   stroke="none"
   d="m 287.13949,632.88397 c 6.60832,17.83848 1.45787,42.91929 -20.88401,52.30625 8.34153,12.61337 16.62951,25.14571 25.34933,38.33108 -9.57407,0 -18.44249,0.11702 -27.30023,-0.1383 -1.19622,-0.0345 -2.6263,-1.75016 -3.45981,-3.01045 -5.97115,-9.02835 -11.76391,-18.17496 -17.76454,-27.18327 -0.77752,-1.16722 -2.39917,-2.45911 -3.66729,-2.49895 -7.47277,-0.2346 -14.95665,-0.11544 -22.91751,-0.11544 0,11.12202 0,21.86924 0,32.92777 -9.20576,0 -17.92722,0 -26.97928,0 0,-38.91872 0,-77.53415 0,-116.50024 0.90264,-0.0884 1.99588,-0.28807 3.08921,-0.28862 16.3361,-0.009 32.67604,-0.20503 49.00715,0.0863 13.78892,0.24584 26.90308,3.24847 37.01422,13.45114 3.42588,3.45686 5.60535,8.14982 8.51276,12.63274 m -26.52848,24.49139 c 4.86637,-13.53633 0.0166,-25.10213 -12.74707,-27.29418 -10.18252,-1.7487 -20.73748,-1.32727 -31.22182,-1.8741 0,14.03885 0,26.98314 0,39.57811 10.17668,0 20.12115,0.40926 30.01067,-0.15143 6.06024,-0.34369 11.01965,-3.60701 13.95822,-10.2584 z"
   id="path4"
   style="stroke-width:1.00107" />
<path
   fill="#fafbfb"
   opacity="1"
   stroke="none"
   d="m 897.54928,148.26101 c 42.6444,70.8533 28.62016,163.29519 -28.71595,216.13851 -5.44835,-5.29863 -10.89975,-10.60016 -16.43698,-15.98526 30.17233,-30.67992 46.55304,-66.93802 46.517,-109.91672 -0.036,-42.9997 -16.3572,-79.32863 -46.22939,-109.37596 5.15988,-5.59663 10.10411,-10.95934 15.3651,-16.66557 11.93699,10.49972 21.24688,22.47121 29.50022,35.805 z"
   id="path5"
   style="stroke-width:1.00107" />
<path
   fill="#f9f9f9"
   opacity="1"
   stroke="none"
   d="m 670.88888,681.77442 c -0.0831,-3.32994 -0.0578,-6.17185 -0.2694,-8.99603 -0.76919,-10.26561 -5.85105,-16.34597 -14.19493,-17.11591 -11.06665,-1.02104 -20.46945,4.81311 -22.78909,14.38168 -0.73778,3.04364 -1.15135,6.23803 -1.18129,9.36862 -0.12144,12.67663 -0.0355,25.35526 -0.0266,38.03317 0.001,1.95677 2.4e-4,3.91348 2.4e-4,6.11635 -8.91354,0 -17.3138,0 -25.92702,0 0,-29.85382 0,-59.49577 0,-89.44218 8.1311,0 16.21229,0 24.75685,0 0,3.11948 0,6.1537 0,9.91661 11.48828,-9.9988 24.1289,-12.63336 38.16695,-10.43691 12.39651,1.93973 22.92874,10.97175 25.97308,23.20917 0.96119,3.86331 1.77008,7.88087 1.81156,11.83665 0.19011,18.15773 0.0837,36.31851 0.0837,54.84394 -8.59886,0 -17.00902,0 -26.40437,0 0,-13.69455 0,-27.4568 3e-4,-41.71516 z"
   id="path6"
   style="stroke-width:1.00107" />
<path
   fill="#fafafa"
   opacity="1"
   stroke="none"
   d="m 508.65234,709.53721 c -19.29625,-23.10827 -14.3262,-56.46895 10.83121,-70.62336 22.31344,-12.55427 59.07741,-7.57654 68.79104,24.90982 2.03807,6.81639 1.78015,14.31972 2.65722,22.19863 -12.30072,0 -23.26895,0 -34.23724,0 -10.96829,0 -21.93658,0 -33.3573,0 1.61827,9.07609 7.47677,13.85619 14.94144,16.2342 11.77272,3.75038 22.69226,1.74106 32.05383,-7.65629 4.41746,5.01935 8.78446,9.98144 13.06373,14.8438 -12.08012,17.91109 -53.09581,23.20556 -74.74393,0.0932 m 51.4847,-50.97672 c -7.7777,-7.174 -16.74029,-7.76984 -25.95849,-3.84975 -6.5416,2.78177 -10.6161,7.96991 -11.29603,15.74745 14.47465,0 28.41422,0 43.91232,0 -2.3486,-4.30619 -4.26853,-7.82636 -6.6578,-11.8977 z"
   id="path7"
   style="stroke-width:1.00107" />
<path
   fill="#fafafa"
   opacity="1"
   stroke="none"
   d="m 382.74646,652.40643 c 1.29239,7.02202 3.15587,13.69644 3.33862,20.41663 0.45673,16.79612 0.15061,33.61295 0.15061,50.73228 -7.83658,0 -15.59745,0 -23.87236,0 0,-3.25636 0,-6.47771 0,-10.47962 -12.69743,13.12426 -27.20251,14.25994 -42.72928,9.16243 -11.24918,-3.69318 -17.76269,-13.62219 -17.56839,-25.71257 0.1759,-10.94804 6.49939,-20.09086 18.16493,-22.71001 9.93844,-2.23141 20.39,-2.21375 30.62543,-3.05971 2.96621,-0.24518 5.96981,-0.0377 8.92762,-0.0377 0.79319,-9.3641 -5.19165,-16.08216 -15.01347,-17.01098 -10.84724,-1.02581 -20.82496,1.41154 -29.99807,8.22315 -2.96862,-6.1265 -5.82918,-12.02988 -8.84405,-18.25177 10.68972,-7.66833 22.73866,-10.71417 35.29605,-10.75114 8.04142,-0.0237 16.28758,1.32562 24.0789,3.41464 8.04839,2.15789 13.44633,8.34214 17.44346,16.06437 m -39.81469,33.36385 c -2.64183,0.26376 -5.36072,0.21933 -7.90907,0.8569 -4.93825,1.23548 -7.82825,5.05101 -7.82236,9.67668 0.006,4.85839 3.03076,9.3058 7.72135,10.47052 12.02957,2.98723 28.93248,-2.67972 24.76708,-21.02286 -5.20833,0 -10.50297,0 -16.757,0.0188 z"
   id="path8"
   style="stroke-width:1.00107" />
<path
   fill="#fbfbfa"
   opacity="1"
   stroke="none"
   d="m 870.68764,214.17735 c 8.13801,45.58548 -5.88458,83.59747 -36.31868,115.93453 -6.2466,-5.6494 -11.99649,-10.84964 -17.74558,-16.04915 38.34711,-38.07915 48.05664,-102.27002 0.039,-150.63076 5.73358,-4.99399 11.47534,-9.99504 17.39621,-15.15213 19.15352,17.11729 30.81035,39.62224 36.62908,65.89751 z"
   id="path9"
   style="stroke-width:1.00107" />
<path
   fill="#d16638"
   opacity="1"
   stroke="none"
   d="m 934.76427,718.97335 c -18.86358,0.31124 -33.33323,-6.91837 -40.84458,-23.94573 -12.56731,-28.48878 6.77369,-59.23562 36.0389,-60.55617 14.76868,-0.66635 27.24826,3.26913 37.72032,15.96647 0,-5.73404 0,-10.08539 0,-14.79668 4.18123,-0.19006 7.76634,-0.35304 11.69105,-0.53142 0.15962,1.74789 0.37826,3.01619 0.37612,4.28412 -0.0388,23.19108 0.0648,46.38453 -0.26842,69.57163 -0.0976,6.79017 -0.76778,13.7292 -2.37108,20.30853 -3.61364,14.82975 -14.14666,22.98416 -28.67037,24.94398 -16.96382,2.28904 -33.57148,0.71616 -48.59925,-9.02664 -3.828,-2.48178 -4.78967,-4.5183 -1.8884,-8.1406 1.11996,-1.39834 1.87222,-3.0913 3.04813,-5.08406 1.39278,0.9958 2.54384,1.82563 3.70179,2.64561 14.19114,10.04928 29.93335,11.87045 46.24631,7.48689 9.70612,-2.60821 15.48557,-12.29406 15.87765,-23.77138 0.15357,-4.49636 0.0252,-9.00238 0.0252,-14.41168 -8.72672,9.91299 -18.78526,15.54352 -32.08333,15.05713 m -30.63832,-33.30964 c 4.42723,16.27972 18.84184,24.48882 37.30901,22.30423 21.62899,-2.55866 33.97901,-29.79363 20.98547,-49.09945 -9.4725,-14.07429 -27.38547,-16.18733 -41.28155,-10.67328 -14.76367,5.85822 -21.19342,20.49693 -17.01293,37.4685 z"
   id="path10"
   style="stroke-width:1.00107" />
<path
   fill="#fafafa"
   opacity="1"
   stroke="none"
   d="m 481.40939,633.76764 c 4.76442,-7e-5 9.0377,-7e-5 13.90463,-7e-5 -4.77218,11.59484 -9.3456,22.62598 -13.85557,33.68304 -7.09212,17.38755 -14.23803,34.7545 -21.1203,52.22516 -1.23964,3.14691 -2.64082,4.25668 -6.07898,4.10366 -7.47747,-0.33287 -14.97999,-0.10267 -22.71566,-0.10267 -12.18538,-29.89238 -24.32411,-59.67024 -36.64799,-89.90234 8.39538,0 16.36615,-0.35573 24.25943,0.26864 1.80593,0.14288 4.00852,3.4026 4.9015,5.67165 7.09643,18.03111 13.9207,36.16934 21.3145,55.54856 3.61563,-8.8636 6.70154,-16.40617 9.76987,-23.95588 4.56297,-11.22744 9.26181,-22.40348 13.57059,-33.72789 1.15135,-3.02604 2.51249,-4.31077 5.71424,-3.90952 2.13477,0.26748 4.3264,0.081 6.98374,0.0977 z"
   id="path11"
   style="stroke-width:1.00107" />
<path
   fill="#cf6638"
   opacity="1"
   stroke="none"
   d="m 855.39121,672.87886 c 4.09576,-12.74311 -2.94306,-24.32554 -15.85296,-26.40038 -13.09971,-2.10534 -25.0849,0.68261 -35.82319,9.55159 -1.65192,-2.99738 -3.23793,-5.87522 -5.04576,-9.15553 7.57317,-6.91673 16.58243,-10.73042 26.40046,-11.8889 9.75163,-1.15066 19.77517,-1.37518 28.76971,3.75197 8.41853,4.79868 14.33085,11.94182 14.64974,21.86142 0.64266,19.98574 0.54516,39.99538 0.72446,59.99548 0.007,0.79395 -0.27771,1.59059 -0.53355,2.9582 -3.54871,-0.15834 -8.00685,0.92607 -10.09667,-0.82231 -1.971,-1.64896 -1.44904,-6.27989 -2.06758,-9.85232 -3.19554,2.16101 -6.16468,4.49484 -9.42125,6.31375 -12.85059,7.17742 -25.97986,6.71414 -38.70283,0.0452 -10.23577,-5.3653 -13.81135,-14.19969 -11.84548,-26.19548 1.44355,-8.80853 9.28661,-17.10289 19.5247,-18.20789 12.87148,-1.38949 25.90344,-1.29006 39.3202,-1.95476 m -25.21514,41.11077 c 18.21286,0.30134 30.33519,-12.03043 25.59292,-31.23927 -10.80054,0 -21.63901,-0.209 -32.46466,0.0728 -7.34903,0.19122 -13.48787,5.87167 -14.65554,12.73511 -1.23322,7.2485 2.41036,13.82905 9.84613,16.55252 3.35933,1.23047 7.14811,1.28755 11.68115,1.87886 z"
   id="path12"
   style="stroke-width:1.00107" />
<path
   fill="#fafafa"
   opacity="1"
   stroke="none"
   d="m 806.70009,287.297 c -2.60529,3.00858 -4.99915,5.73022 -7.57079,8.65402 -5.39556,-5.4035 -10.41158,-10.42691 -15.72033,-15.74351 21.60798,-27.60391 20.73366,-55.46507 -0.0798,-83.80336 4.96947,-4.73474 9.9856,-9.51399 15.03241,-14.32237 24.90865,16.19136 35.93681,70.91934 8.33856,105.21522 z"
   id="path13"
   style="stroke-width:1.00107" />
<path
   fill="#da6833"
   opacity="1"
   stroke="none"
   d="m 537.83404,500.33733 c -4.18257,0.40211 -4.20254,-2.38614 -1.95707,-3.92452 3.88958,-2.66477 6.26444,-5.65576 7.74617,-10.21867 1.13627,-3.4987 6.55407,-3.55037 9.91169,-1.13691 5.91085,4.24877 10.21957,9.45567 12.95132,16.40516 1.98847,5.05861 6.26011,8.66926 11.71536,10.56089 0.92673,0.32132 1.3695,2.03946 2.27644,3.49965 1.84015,-3.9053 -4.22606,-12.45586 -8.14026,-13.44445 0.119,-9.61142 0.119,-9.61142 3.9387,-10.50254 0.25602,0.75328 0.28913,0.96076 0.32218,1.16826 -0.0564,0.19617 -0.11271,0.39233 -0.60949,0.95654 -0.50888,2.99768 -2.18829,6.36773 2.51555,6.80398 0,0 -0.0318,0.0231 -7.3e-4,0.32379 0.44516,0.71421 0.85929,1.12768 1.27341,1.54116 0,0 -0.11613,-0.0159 -0.13592,0.30852 1.25448,1.84109 2.52869,3.3578 3.80283,4.87452 0,0 0.0386,-0.01 0.0297,0.36776 1.00603,1.45292 2.02103,2.52817 3.03604,3.60341 0,0 -0.031,0.0174 -10e-4,0.3201 0.45042,0.71115 0.87127,1.11968 1.29211,1.52821 0,0 -0.11741,-0.0122 -0.1416,0.3094 1.36999,2.09935 2.76412,3.87694 4.15825,5.6546 0,0 -0.12303,0.0113 -0.13592,0.31454 0.61963,0.82842 1.25221,1.35361 1.88474,1.8788 0.33135,0.34741 0.6627,0.69483 1.01036,1.66374 0.73051,1.49728 1.44459,2.373 2.15873,3.24879 0,0 -0.0944,0.0171 -0.11064,0.30659 0.39409,0.73437 0.80449,1.17926 1.21483,1.62415 0,0 -0.12303,-0.0218 -0.14356,0.28453 0.62128,0.83166 1.26303,1.35709 1.90484,1.88246 0.32658,0.0605 0.5765,0.23253 0.9219,0.97637 0.44687,0.65756 0.72166,0.85489 0.99644,1.05215 0,0 -0.0297,0.005 -0.003,0.30831 0.45707,0.70112 0.88738,1.09841 1.3177,1.49575 0,0 -0.13965,0.0379 -0.0996,0.2896 0.6577,0.78699 1.27537,1.32232 1.89299,1.8576 0,0 -0.0827,0.0114 0.0114,0.22006 0.37931,0.40681 0.66466,0.60487 0.94995,0.80299 0,0 -0.0751,0.0121 -0.0496,0.30275 0.44639,0.70803 0.86717,1.12536 1.28796,1.54262 0,0 -0.11064,-5.5e-4 -0.13257,0.35127 1.88865,1.51066 3.7456,3.5481 5.71965,3.66892 6.80344,0.41629 13.64915,0.0788 20.47617,0.18987 6.44649,0.10475 10.44542,3.49763 12.31947,10.47052 -1.29028,0.17697 -2.53119,0.495 -3.77241,0.49591 -31.81222,0.0233 -63.6245,0.0553 -95.43648,-0.0335 -5.07893,-0.0142 -10.15622,-0.59644 -15.39509,-0.9262 1.96587,-3.7183 3.3829,-6.39856 4.8,-9.07883 -6e-5,0 0.0204,0.0589 0.4341,0.0616 4.44776,-0.70369 8.48188,-1.41014 12.51594,-2.11652 0,-6e-5 -0.0263,0.0866 0.27527,-0.0385 2.03985,-4.67187 -0.58695,-7.00399 -4.13235,-8.87002 0,0 -0.22658,-0.18962 -0.21809,-0.69593 -0.59147,-1.10452 -1.19149,-1.70279 -1.79152,-2.30101 0,0 -0.2209,-0.1958 -0.1961,-0.72031 -0.70992,-1.36987 -1.44464,-2.21528 -2.17943,-3.06069 0,0 0.19897,-0.0298 0.17636,-0.34167 -1.40659,-1.76 -2.79063,-3.20814 -4.17462,-4.65629 0,0 0.27234,-0.0445 0.2154,-0.35634 -0.79539,-1.06651 -1.53378,-1.82135 -2.27217,-2.57619 0,0 -0.0334,-0.082 0.0739,-0.37584 -0.49043,-1.50534 -1.08819,-2.71693 -1.68596,-3.92852 4.8421,-1.06877 6.96698,-4.10213 6.0499,-8.58875 -0.32719,-1.60053 -0.58322,-3.21557 -0.52781,-5.00875 9.49144,12.89625 18.62222,25.9891 27.81951,39.03496 0.70962,1.00649 1.86837,2.37355 2.85155,2.40147 7.20926,0.20467 14.42701,0.11037 23.22704,0.11037 -13.94196,-19.49392 -27.0135,-37.77081 -40.72026,-56.93589 -4.80043,5.32762 -9.05637,10.05095 -13.31224,14.77425 z"
   id="path14"
   style="stroke-width:1.00107" />
<path
   fill="#d56736"
   opacity="1"
   stroke="none"
   d="m 753.692,618.68031 c 0,34.63301 0,69.26595 0,104.31403 -4.40139,0 -8.42983,0 -13.10893,0 0,-34.61584 0,-69.03337 -0.0891,-104.30774 -1.77124,-1.24031 -3.44998,-1.93771 -5.13593,-1.95555 -9.78725,-0.10358 -19.57742,0.0295 -29.36308,-0.13127 -1.40084,-0.023 -3.75542,-0.97667 -3.97083,-1.89719 -0.44852,-1.91674 -0.45964,-4.69736 0.65733,-6.0055 1.12136,-1.31327 3.83265,-1.26811 5.8472,-1.81829 4.40145,-0.039 8.80297,-0.078 13.93878,0.17624 2.51775,0.15015 4.30126,0.007 6.08471,-0.13591 15.7427,-0.049 31.48539,-0.098 48.0258,0.1587 4.42949,0.40621 8.07502,0.74721 11.68909,0.53937 3.58895,-0.20637 4.47934,1.2507 4.502,4.62079 0.0237,3.52109 -1.20939,4.57354 -4.63481,4.50938 -9.76776,-0.18315 -19.54303,-0.16262 -29.31066,0.022 -1.72194,0.0326 -3.42157,1.24391 -5.13154,1.91094 z"
   id="path15"
   style="stroke-width:1.00107" />
<path
   fill="#cc6c40"
   opacity="1"
   stroke="none"
   d="m 461.95696,350.86417 c 7.23938,-5.31192 14.43809,-10.68034 21.72631,-15.9243 16.48512,-11.86119 32.98655,-23.70041 49.56935,-35.42406 1.64349,-1.16197 3.89434,-2.07628 5.86186,-2.0735 20.66408,0.0292 41.32792,0.26006 61.99157,0.46573 1.78901,0.0178 3.57576,0.25388 5.44279,0.39453 0,6.23387 -0.0392,12.04174 0.007,17.84893 0.14545,18.17191 0.45854,36.34443 0.34797,54.5145 -0.0174,2.84551 -1.21673,6.25569 -3.03604,8.42623 -12.51563,14.93134 -25.31545,29.62511 -38.11191,44.31852 -1.14452,1.31413 -2.77757,2.49003 -4.41538,3.041 -12.76067,4.29247 -25.59268,8.3716 -38.37423,12.60274 -16.5788,5.4882 -33.11689,11.09956 -49.6999,16.57477 -12.31684,4.06672 -24.69496,7.94764 -37.01407,12.00767 -15.78994,5.20391 -31.52797,10.56578 -47.32726,15.74085 -9.79302,3.20771 -19.65818,6.19503 -30.24011,9.22406 -0.99154,-0.0954 -1.23395,-0.13365 -1.27854,-0.46511 1.81091,-1.07681 3.35718,-2.06843 5.04747,-2.61149 15.15944,-4.87033 30.35945,-9.61441 45.51611,-14.49339 9.74927,-3.13833 19.4345,-6.4752 29.16984,-9.65765 6.54088,-2.13821 13.15283,-4.06208 19.67162,-6.26369 7.1738,-2.42284 14.24087,-5.16296 21.42135,-7.56463 7.601,-2.54231 15.28064,-4.84922 22.92617,-7.25827 5.15991,-1.62586 10.41219,-3.00874 15.459,-4.93148 7.93097,-3.02151 15.72363,-6.40641 23.57482,-9.63748 0.75934,-0.31249 1.49224,-0.74873 2.28225,-0.9177 4.74056,-1.01389 9.56103,-1.728 14.21728,-3.03321 2.59143,-0.72643 5.4902,-1.86447 7.25899,-3.74843 6.47227,-6.89366 12.5882,-14.12733 18.72534,-21.32933 6.9955,-8.20928 13.96193,-16.44784 20.71356,-24.85644 1.23029,-1.53226 1.91406,-3.93771 1.92781,-5.94643 0.1427,-20.77362 -0.0487,-41.55026 0.19878,-62.32195 0.0657,-5.51838 -1.66518,-8.24885 -7.18964,-8.2611 -19.34345,-0.0429 -38.68738,-0.0655 -58.03034,0.0373 -1.89653,0.0101 -4.13033,0.45323 -5.62703,1.51454 -10.28463,7.29293 -20.41826,14.79907 -30.59323,22.24657 -9.06694,6.6365 -18.01499,13.4432 -27.2327,19.86264 -4.55607,3.17294 -9.60171,5.64237 -14.54106,8.29731 -0.11527,-0.13282 -0.34607,-0.39832 -0.34607,-0.39829 z"
   id="path16"
   style="stroke-width:1.00107" />
<path
   fill="#cc6c40"
   opacity="1"
   stroke="none"
   d="m 322.06056,499.15878 c 10.96686,-8.9296 21.87204,-17.93642 32.91642,-26.769 13.36826,-10.69101 26.85433,-21.23458 39.96494,-33.08205 -18.12247,0 -36.24495,0 -54.36742,0 -0.21998,-0.58382 -0.43997,-1.16767 -0.65995,-1.7515 40.4777,-28.79871 80.9554,-57.59745 121.73776,-86.54414 0.30465,-0.14795 0.53545,0.11755 0.57146,0.576 -1.92087,2.21934 -3.72867,4.19047 -5.86122,5.70367 -8.10944,5.75415 -16.41086,11.23945 -24.47761,17.05147 -10.90707,7.85842 -21.6376,15.96158 -32.49398,23.8911 -8.42204,6.15152 -16.93651,12.17634 -25.37449,18.30623 -2.09898,1.52478 -3.95293,3.4011 -6.10775,4.83226 -5.4865,3.64399 -11.12694,7.05719 -16.5835,10.74383 -0.9267,0.62608 -1.84036,2.25683 -1.66686,3.22801 0.14982,0.83887 1.84903,1.98448 2.87246,1.99386 11.17197,0.10246 22.3457,0.004 33.51898,-0.031 3.97407,-0.0125 7.9482,-0.002 11.92229,-0.002 0.22207,0.55216 0.44413,1.10433 0.66619,1.6565 -1.26862,1.8039 -2.23775,3.96176 -3.86616,5.3404 -3.77458,3.19577 -7.92791,5.93846 -11.82143,9 -15.74459,12.38032 -31.49553,24.75402 -47.08471,37.32794 -1.32971,1.07256 -1.48277,3.605 -2.18246,5.45923 1.82301,0.10095 3.67937,0.44828 5.45617,0.20759 1.01576,-0.13762 1.82707,-1.50082 2.87521,-1.79348 0.60785,-0.16971 1.50269,0.68899 2.03716,1.353 -7.90568,2.96202 -15.54809,5.7569 -23.2954,8.2219 -0.96595,0.30736 -2.48745,-1.13254 -3.75152,-1.76281 0,0 0.13871,0.19907 0.42128,0.13671 1.0961,-0.74922 1.90969,-1.43605 2.72329,-2.12288 0,0 -0.001,0.10019 0.20456,0.0589 0.70586,-0.43746 1.20609,-0.83364 1.70629,-1.22979 z"
   id="path17"
   style="stroke-width:1.00107" />
<path
   fill="#bc6842"
   opacity="1"
   stroke="none"
   d="m 600.72736,401.1859 c -2.28354,3.53536 -4.61942,7.40665 -7.47048,10.85111 -6.02907,7.28397 -11.95287,14.72537 -18.66908,21.34106 -3.49103,3.43884 -8.30948,6.01748 -12.99231,7.665 -13.58134,4.77839 -27.4352,8.77456 -41.11154,13.29152 -16.64438,5.49718 -33.22189,11.19731 -49.81865,16.83819 -11.87776,4.03699 -23.6678,8.34843 -35.62727,12.1247 -14.02595,4.4288 -28.19458,8.40527 -42.29161,12.61053 -0.43536,0.12986 -0.76307,0.62079 -1.64014,1.30398 -1.26965,1.01643 -2.04009,1.67231 -3.12828,2.45737 -3.3636,1.78734 -6.40944,3.44544 -9.52144,5.03447 -0.0662,-0.069 -0.199,-0.2067 -0.199,-0.2067 6.75252,-6.05011 14.27755,-10.39278 23.11042,-13.12121 23.83235,-7.36161 47.44843,-15.42279 71.16019,-23.17628 30.3665,-9.92953 60.6881,-20.00191 91.14883,-29.63376 8.77352,-2.77423 12.67404,-10.37253 18.3153,-16.22733 6.45987,-6.70436 12.32546,-13.98164 18.73506,-21.15265 z"
   id="path18"
   style="stroke-width:1.00107" />
<path
   fill="#bc6842"
   opacity="1"
   stroke="none"
   d="m 672.44923,376.05644 c -3.55945,-3.36944 -7.58471,-6.77635 -10.84678,-10.80219 -9.19229,-11.3448 -18.1131,-22.91128 -27.05052,-34.46034 -3.14343,-4.06202 -6.00322,-8.34278 -9.04115,-12.48803 -0.75171,-1.02578 -1.69304,-1.91259 -3.5707,-4.00243 -0.61022,3.88384 -1.36731,6.51761 -1.38301,9.15583 -0.10513,17.67804 -0.10476,35.35733 -0.004,53.03542 0.0186,3.25988 -0.5319,5.94473 -4.05635,7.53447 0.48346,-3.41067 2.0567,-6.83261 2.09537,-10.27178 0.22231,-19.79587 0.0813,-39.5958 0.0638,-59.39436 -0.002,-1.77628 -1.8e-4,-3.5526 -1.8e-4,-5.32888 0.43704,-0.18394 0.87401,-0.36786 1.31105,-0.5518 17.45497,22.41802 34.90995,44.83607 52.48234,67.57409 z"
   id="path19"
   style="stroke-width:1.00107" />
<path
   fill="#c46f49"
   opacity="1"
   stroke="none"
   d="m 535.08286,544.63119 c -1.09436,2.57498 -2.51139,5.25524 -4.47726,8.97354 5.23887,0.32976 10.31616,0.91196 15.39509,0.9262 31.81198,0.0889 63.62426,0.0568 95.43648,0.0335 1.24122,-9.1e-4 2.48213,-0.31894 3.77241,-0.49591 -1.87405,-6.97289 -5.87298,-10.36577 -12.31947,-10.47052 -6.82702,-0.11104 -13.67273,0.22642 -20.47617,-0.18987 -1.97405,-0.12082 -3.831,-2.15826 -5.68623,-3.71304 2.35586,0.42619 4.62547,1.83345 6.96306,1.95763 6.27459,0.33323 12.58674,-0.0892 18.86817,0.17111 8.30374,0.34417 13.81446,5.33951 15.0993,13.90281 -0.88568,0.20503 -1.12918,0.26064 -1.37263,0.31619 -0.33465,0.006 -0.66936,0.0125 -1.66677,-0.10731 -1.22033,-0.04 -1.77783,0.046 -2.3354,0.13194 -11.92012,-0.0244 -23.84025,-0.0488 -36.63555,-0.22593 -6.32102,-0.087 -11.76698,-0.0213 -17.21288,0.0444 -20.19821,0 -40.39642,0 -60.59463,0 -0.30295,-0.473 -0.60589,-0.94606 -0.90878,-1.41906 2.60951,-3.24347 5.21902,-6.48693 8.15126,-9.83576 z"
   id="path20"
   style="stroke-width:1.00107" />
<path
   fill="#bc6842"
   opacity="1"
   stroke="none"
   d="m 415.33144,533.5918 c 1.54016,-0.60286 3.08029,-1.20572 4.98073,-1.70757 -35.63344,38.14732 -86.30087,36.26242 -111.90907,24.66202 3.52409,-2.57522 6.63789,-4.85062 10.19368,-7.12976 0.44201,-0.004 0.68722,0.22721 0.52689,0.52959 -0.57403,1.02355 -0.92645,1.78915 -1.41138,2.4588 -3.24811,4.48573 -3.17578,5.13351 2.0487,6.44189 4.79616,1.20114 9.71666,2.55707 14.60056,2.63016 13.05814,0.19543 25.89856,-0.0733 38.9789,-3.24603 16.89439,-4.0978 30.10061,-12.84327 41.99099,-24.6391 z"
   id="path21"
   style="stroke-width:1.00107" />
<path
   fill="#bc6842"
   opacity="1"
   stroke="none"
   d="m 318.91536,549.29806 c 17.22675,-13.24104 34.5764,-26.36805 51.92771,-39.49289 2.25299,-1.70414 4.51441,-3.39719 7.09322,-5.20171 0.32127,-0.10633 0.45408,0.0314 0.4075,0.39725 -1.05731,1.74099 -2.06801,3.11608 -3.42542,4.53844 -15.85012,11.5934 -31.32787,23.17424 -46.88085,34.65321 -2.75719,2.03493 -5.82769,3.64508 -8.75348,5.45134 -4e-5,0 -0.24525,-0.231 -0.36868,-0.34564 z"
   id="path22"
   style="stroke-width:1.00107" />
<path
   fill="#bc6842"
   opacity="1"
   stroke="none"
   d="m 630.13056,434.65163 c -0.0864,-0.75011 0.13086,-1.6317 0.65256,-2.98039 0.79496,-1.04423 1.28545,-1.62136 1.77594,-2.19847 6.03017,-6.74558 11.99411,-13.55191 18.10833,-20.2204 6.6966,-7.30365 13.51671,-14.49443 20.33768,-21.68234 0.50295,-0.53004 1.44826,-0.64004 2.54769,-0.84006 -14.13292,16.00023 -28.62572,31.89517 -43.4222,47.92166 z"
   id="path23"
   style="stroke-width:1.00107" />
<path
   fill="#bc6842"
   opacity="1"
   stroke="none"
   d="m 452.02555,505.81135 c 4.30096,-4.22473 9.17268,-8.31938 13.48271,-12.93845 5.40479,-5.79232 12.11473,-5.63065 19.09737,-5.37759 9.06898,0.32866 18.14704,0.40703 27.43915,0.9588 -12.03697,0.4749 -24.35241,-0.0732 -36.51442,1.0461 -4.32063,0.39768 -8.39235,4.67524 -12.35066,7.49997 -3.76502,2.68675 -7.23372,5.78896 -11.15415,8.81117 z"
   id="path24"
   style="stroke-width:1.00107" />
<path
   fill="#bc6842"
   opacity="1"
   stroke="none"
   d="m 754.15018,618.60636 c 1.25179,-0.59308 2.95142,-1.80442 4.67336,-1.83699 9.76763,-0.18462 19.5429,-0.20515 29.31066,-0.022 3.42542,0.0642 4.65851,-0.98829 4.63481,-4.50938 -0.0227,-3.37009 -0.91305,-4.82716 -4.502,-4.62079 -3.61407,0.20784 -7.2596,-0.13316 -11.22072,-0.46945 5.2842,-0.23577 10.89761,-0.23577 17.14672,-0.23577 0,2.49461 -0.16451,4.92084 0.0398,7.31547 0.2837,3.32487 -1.14671,4.29085 -4.32851,4.26292 -11.76429,-0.10333 -23.53047,0.0101 -35.75415,0.11599 z"
   id="path25"
   style="stroke-width:1.00107" />
<path
   fill="#bc6842"
   opacity="1"
   stroke="none"
   d="m 708.10009,606.78267 c -1.58601,0.64631 -4.2973,0.60115 -5.41866,1.91442 -1.11697,1.30814 -1.10585,4.08876 -0.65733,6.0055 0.21541,0.92052 2.56999,1.87422 3.97083,1.89719 9.78566,0.16073 19.57583,0.0277 29.36308,0.13127 1.68595,0.0178 3.36469,0.71524 5.14491,1.48139 -13.12543,0.38262 -26.34891,0.38262 -39.89371,0.38262 0,-4.43972 0,-8.02993 0,-11.90852 2.47798,0 4.77012,0 7.49088,0.0961 z"
   id="path26"
   style="stroke-width:1.00107" />
<path
   fill="#bc6842"
   opacity="1"
   stroke="none"
   d="m 316.68766,502.42287 c 1.58155,0.52326 3.10305,1.96316 4.069,1.6558 7.74731,-2.465 15.38972,-5.25988 23.65858,-8.24247 1.69924,-0.61924 2.80405,-0.94991 4.29665,-1.28724 2.44829,-0.67552 4.50885,-1.34432 6.8912,-2.02626 0.74975,-0.0396 1.17771,-0.0662 1.60571,-0.0927 0.24243,0.0382 0.48484,0.0764 1.0888,0.18889 -13.10744,4.62033 -26.57289,9.17689 -40.0487,13.70268 -2.39068,0.80287 -4.82428,1.4779 -7.76398,1.28094 1.96174,-1.69088 3.92348,-3.38179 6.20274,-5.17964 z"
   id="path27"
   style="stroke-width:1.00107" />
<path
   fill="#da6833"
   opacity="1"
   stroke="none"
   d="m 579.46961,488.50273 c 0.31705,-7.32507 5.43979,-10.44133 11.69806,-12.60451 0.44431,0.53631 0.49074,0.76538 0.5371,0.99443 -3.27483,3.74167 -6.54967,7.48338 -10.41542,11.41064 -1.00047,0.19021 -1.41014,0.19482 -1.81974,0.19944 z"
   id="path28"
   style="stroke-width:1.00107" />
<path
   fill="#bc6842"
   opacity="1"
   stroke="none"
   d="m 422.68969,530.5247 c 2.00723,-2.75317 4.05422,-5.91377 6.75277,-8.35296 2.45626,-2.22016 5.62013,-3.65688 8.8398,-5.36799 -4.84448,4.58999 -10.05668,9.10896 -15.59257,13.72095 z"
   id="path29"
   style="stroke-width:1.00107" />
<path
   fill="#bc6842"
   opacity="1"
   stroke="none"
   d="m 512.18382,489.08915 c 3.29591,4.10907 6.66708,8.56205 9.95664,13.38749 -3.3482,-4.09954 -6.61479,-8.57158 -9.95664,-13.38749 z"
   id="path30"
   style="stroke-width:1.00107" />
<path
   fill="#bc6842"
   opacity="1"
   stroke="none"
   d="m 615.76819,384.13373 c -2.66375,3.32841 -5.63192,6.76795 -8.94787,10.23056 2.64934,-3.35774 5.6464,-6.73856 8.94787,-10.23056 z"
   id="path31"
   style="stroke-width:1.00107" />
<path
   fill="#bc6842"
   opacity="1"
   stroke="none"
   d="m 442.69745,513.48426 c 2.54265,-2.50646 5.40977,-5.117 8.64175,-7.62897 -2.52917,2.57402 -5.42323,5.04951 -8.64175,7.62897 z"
   id="path32"
   style="stroke-width:1.00107" />
<path
   fill="#bc6842"
   opacity="1"
   stroke="none"
   d="m 544.56955,533.90273 c 3.47441,1.52576 6.10121,3.85788 4.05513,8.4849 -1.53329,-2.66139 -2.75869,-5.40301 -4.05513,-8.4849 z"
   id="path33"
   style="stroke-width:1.00107" />
<path
   fill="#bc6842"
   opacity="1"
   stroke="none"
   d="m 675.31373,385.59355 c -0.71218,-2.18787 -1.11586,-4.515 -1.4141,-7.20896 2.69662,1.66549 5.76192,3.59458 1.4141,7.20896 z"
   id="path34"
   style="stroke-width:1.00107" />
<path
   fill="#c46f49"
   opacity="1"
   stroke="none"
   d="m 547.99802,542.41207 c -3.67644,0.76529 -7.71056,1.47174 -12.18397,2.15771 2.02194,-0.69062 4.48319,-1.36076 7.67274,-1.98593 1.14965,0.0229 1.57086,6.8e-4 1.99208,-0.0214 0.72049,-0.0697 1.44104,-0.13945 2.51915,-0.15033 z"
   id="path35"
   style="stroke-width:1.00107" />
<path
   fill="#7c381d"
   opacity="1"
   stroke="none"
   d="m 588.86923,556.07881 c 5.01168,-0.2585 10.45764,-0.32425 16.374,-0.25685 -4.99964,0.23864 -10.46968,0.34418 -16.374,0.25685 z"
   id="path36"
   style="stroke-width:1.00107" />
<path
   fill="#bc6842"
   opacity="1"
   stroke="none"
   d="m 623.00579,442.54564 c 1.53439,-2.16027 3.38083,-4.43608 5.58617,-6.68594 -1.51875,2.20742 -3.39647,4.38893 -5.58617,6.68594 z"
   id="path37"
   style="stroke-width:1.00107" />
<path
   fill="#bc6842"
   opacity="1"
   stroke="none"
   d="m 526.42383,508.92123 c 1.55626,1.51491 3.18558,3.36251 4.67092,5.5834 -1.6286,-1.50143 -3.11326,-3.37607 -4.67092,-5.5834 z"
   id="path38"
   style="stroke-width:1.00107" />
<path
   fill="#bc6842"
   opacity="1"
   stroke="none"
   d="m 606.18774,394.51802 c -1.26004,2.07239 -2.81942,4.29249 -4.7402,6.5059 1.23933,-2.12391 2.84012,-4.24107 4.7402,-6.5059 z"
   id="path39"
   style="stroke-width:1.00107" />
<path
   fill="#bc6842"
   opacity="1"
   stroke="none"
   d="m 595.8188,472.06644 c -0.32329,-0.30666 -0.33777,-0.6681 -0.0521,-1.44311 1.76873,-1.66148 3.23739,-2.90934 4.81313,-4.04796 0.10709,0.10927 0.32262,0.32648 0.32262,0.32648 -1.59163,1.70326 -3.1832,3.40655 -5.08364,5.16459 z"
   id="path40"
   style="stroke-width:1.00107" />
<path
   fill="#c46f49"
   opacity="1"
   stroke="none"
   d="m 578.39944,500.15131 c -4.59865,-0.0828 -2.91924,-3.45289 -2.62503,-6.23228 0.99045,1.85979 1.75511,3.86936 2.62503,6.23228 z"
   id="path41"
   style="stroke-width:1.00107" />
<path
   fill="#bc6842"
   opacity="1"
   stroke="none"
   d="m 522.13521,503.151 c 1.37861,1.36006 2.83224,3.04477 4.25819,5.09519 -1.41288,-1.34636 -2.79803,-3.05845 -4.25819,-5.09519 z"
   id="path42"
   style="stroke-width:1.00107" />
<path
   fill="#c46f49"
   opacity="1"
   stroke="none"
   d="m 591.74912,518.99843 c -1.32595,-1.4399 -2.72008,-3.21749 -4.05544,-5.36463 1.36829,1.42927 2.67781,3.22807 4.05544,5.36463 z"
   id="path43"
   style="stroke-width:1.00107" />
<path
   fill="#bc6842"
   opacity="1"
   stroke="none"
   d="m 603.54426,460.5633 c 0.51908,0.0334 1.03816,0.0668 1.93233,0.21798 -0.76441,1.66066 -1.90392,3.20366 -3.42762,4.81139 -0.38419,0.0648 -0.59025,-0.13588 -0.53441,-0.47122 0.71377,-1.74292 1.37177,-3.15052 2.0297,-4.55815 z"
   id="path44"
   style="stroke-width:1.00107" />
<path
   fill="#bc6842"
   opacity="1"
   stroke="none"
   d="m 536.17527,522.11711 c 1.32388,1.1176 2.70792,2.56574 4.02484,4.37133 -1.36628,-1.10862 -2.66553,-2.57467 -4.02484,-4.37133 z"
   id="path45"
   style="stroke-width:1.00107" />
<path
   fill="#c46f49"
   opacity="1"
   stroke="none"
   d="m 583.37947,507.22329 c -1.20939,-1.1873 -2.4836,-2.70401 -3.70375,-4.59265 1.24904,1.17312 2.44402,2.71816 3.70375,4.59265 z"
   id="path46"
   style="stroke-width:1.00107" />
<path
   fill="#bc6842"
   opacity="1"
   stroke="none"
   d="m 611.07766,455.61655 c 0.72899,-1.27029 1.75138,-2.66692 3.12804,-4.08622 -0.7087,1.30487 -1.77166,2.63239 -3.12804,4.08622 z"
   id="path47"
   style="stroke-width:1.00107" />
<path
   fill="#bc6842"
   opacity="1"
   stroke="none"
   d="m 532.08403,514.63743 c 0.96009,1.12383 1.55785,2.33542 2.05249,3.88782 -1.04023,-0.73126 -1.97729,-1.80339 -2.99602,-3.1672 0.13923,-0.40535 0.36025,-0.51914 0.94353,-0.72062 z"
   id="path48"
   style="stroke-width:1.00107" />
<path
   fill="#c46f49"
   opacity="1"
   stroke="none"
   d="m 586.42956,511.21619 c -0.93462,-0.76755 -1.94962,-1.8428 -2.96848,-3.28013 0.96015,0.74946 1.92409,1.86098 2.96848,3.28013 z"
   id="path49"
   style="stroke-width:1.00107" />
<path
   fill="#bc6842"
   opacity="1"
   stroke="none"
   d="m 438.92333,516.80766 c 0.71878,-1.01994 1.75199,-2.1159 3.12819,-3.22666 -0.70928,1.04036 -1.76152,2.09544 -3.12819,3.22666 z"
   id="path50"
   style="stroke-width:1.00107" />
<path
   fill="#bc6842"
   opacity="1"
   stroke="none"
   d="m 606.19134,460.70795 c 0.4451,-0.9255 1.17127,-1.96536 2.27095,-2.92196 -0.41425,0.9914 -1.202,1.89954 -2.27095,2.92196 z"
   id="path51"
   style="stroke-width:1.00107" />
<path
   fill="#bc6842"
   opacity="1"
   stroke="none"
   d="m 728.13971,606.82074 c -1.37104,0.24145 -3.15455,0.38445 -5.20839,0.30873 1.41838,-0.28154 3.10715,-0.34436 5.20839,-0.30873 z"
   id="path52"
   style="stroke-width:1.00107" />
<path
   fill="#bc6842"
   opacity="1"
   stroke="none"
   d="m 534.11478,519.1638 c 0.682,0.44507 1.42039,1.19991 2.08462,2.3092 -0.72562,-0.4301 -1.37696,-1.21477 -2.08462,-2.3092 z"
   id="path53"
   style="stroke-width:1.00107" />
<path
   fill="#bc6842"
   opacity="1"
   stroke="none"
   d="m 319.81897,500.32621 c -0.48286,0.69031 -1.29645,1.37714 -2.45642,2.02742 0.47763,-0.7014 1.30167,-1.36617 2.45642,-2.02742 z"
   id="path54"
   style="stroke-width:1.00107" />
<path
   fill="#c46f49"
   opacity="1"
   stroke="none"
   d="m 596.68896,526.10423 c -0.66789,-0.53796 -1.38197,-1.41368 -2.06948,-2.6648 0.69209,0.52543 1.35766,1.42621 2.06948,2.6648 z"
   id="path55"
   style="stroke-width:1.00107" />
<path
   fill="#bc6842"
   opacity="1"
   stroke="none"
   d="m 540.17976,527.11098 c 0.66845,0.51895 1.40317,1.36436 2.09794,2.58744 -0.70387,-0.50191 -1.36773,-1.38148 -2.09794,-2.58744 z"
   id="path56"
   style="stroke-width:1.00107" />
<path
   fill="#c46f49"
   opacity="1"
   stroke="none"
   d="m 593.49531,521.23436 c -0.56172,-0.23002 -1.1943,-0.75521 -1.7738,-1.63062 0.60302,0.21175 1.15301,0.7736 1.7738,1.63062 z"
   id="path57"
   style="stroke-width:1.00107" />
<path
   fill="#c46f49"
   opacity="1"
   stroke="none"
   d="m 599.5209,530.2445 c -0.56203,-0.23008 -1.20378,-0.75551 -1.78395,-1.63423 0.60913,0.21078 1.15668,0.77483 1.78395,1.63423 z"
   id="path58"
   style="stroke-width:1.00107" />
<path
   fill="#bc6842"
   opacity="1"
   stroke="none"
   d="m 542.53758,530.87835 c 0.5514,0.28539 1.15142,0.88366 1.71699,1.84268 -0.57901,-0.26944 -1.12369,-0.89962 -1.71699,-1.84268 z"
   id="path59"
   style="stroke-width:1.00107" />
<path
   fill="#bc6842"
   opacity="1"
   stroke="none"
   d="m 621.05838,444.65684 c 0.15467,-0.57123 0.59599,-1.24993 1.35619,-1.99463 -0.14393,0.58504 -0.60675,1.23612 -1.35619,1.99463 z"
   id="path60"
   style="stroke-width:1.00107" />
<path
   fill="#bc6842"
   opacity="1"
   stroke="none"
   d="m 321.81455,499.17121 c -0.25419,0.38372 -0.75442,0.7799 -1.50775,1.20129 0.25184,-0.37947 0.75678,-0.78417 1.50775,-1.20129 z"
   id="path61"
   style="stroke-width:1.00107" />
<path
   fill="#c46f49"
   opacity="1"
   stroke="none"
   d="m 579.46276,488.84315 c 0.41645,-0.34504 0.82612,-0.34965 1.5424,-0.35833 -0.12695,0.60668 -0.5605,1.21746 -1.2579,1.94404 -0.27301,-0.33792 -0.28218,-0.79164 -0.2845,-1.58571 z"
   id="path62"
   style="stroke-width:1.00107" />
<path
   fill="#c46f49"
   opacity="1"
   stroke="none"
   d="m 604.54705,536.21835 c -0.53747,-0.23406 -1.15514,-0.76939 -1.80215,-1.62788 0.55433,0.22673 1.13817,0.77666 1.80215,1.62788 z"
   id="path63"
   style="stroke-width:1.00107" />
<path
   fill="#7c381d"
   opacity="1"
   stroke="none"
   d="m 642.5088,556.22169 c 0.33221,-0.24017 0.88971,-0.32615 1.85902,-0.29278 -0.27007,0.22861 -0.9519,0.33782 -1.85902,0.29278 z"
   id="path64"
   style="stroke-width:1.00107" />
<path
   fill="#bc6842"
   opacity="1"
   stroke="none"
   d="m 673.87953,377.75218 c -0.37399,-0.0684 -0.82496,-0.41286 -1.30054,-1.07314 0.3914,0.0552 0.80748,0.42613 1.30054,1.07314 z"
   id="path65"
   style="stroke-width:1.00107" />
<path
   fill="#bc6842"
   opacity="1"
   stroke="none"
   d="m 545.30103,542.46328 c -0.24338,0.12125 -0.66459,0.14343 -1.40109,0.16305 0.19757,-0.089 0.71048,-0.17558 1.40109,-0.16305 z"
   id="path66"
   style="stroke-width:1.00107" />
<path
   fill="#c46f49"
   opacity="1"
   stroke="none"
   d="m 602.78852,534.0725 c -0.38505,-0.0975 -0.81536,-0.49476 -1.26859,-1.21037 0.39257,0.0912 0.80798,0.50081 1.26859,1.21037 z"
   id="path67"
   style="stroke-width:1.00107" />
<path
   fill="#bc6842"
   opacity="1"
   stroke="none"
   d="m 614.81085,451.40282 c -0.0176,-0.43361 0.22738,-0.9837 0.7971,-1.54238 0.0384,0.46958 -0.24808,0.94771 -0.7971,1.54238 z"
   id="path68"
   style="stroke-width:1.00107" />
<path
   fill="#bc6842"
   opacity="1"
   stroke="none"
   d="m 420.93574,531.90098 c 0.0786,-0.3828 0.44269,-0.82952 1.12775,-1.28877 -0.0668,0.39991 -0.45451,0.81241 -1.12775,1.28877 z"
   id="path69"
   style="stroke-width:1.00107" />
<path
   fill="#c46f49"
   opacity="1"
   stroke="none"
   d="m 597.81472,528.06639 c -0.38566,-0.13848 -0.79606,-0.58337 -1.17543,-1.36339 0.40423,0.12882 0.77755,0.5929 1.17543,1.36339 z"
   id="path70"
   style="stroke-width:1.00107" />
<path
   fill="#c46f49"
   opacity="1"
   stroke="none"
   d="m 576.89895,492.68129 c -0.33343,-0.14459 -0.36654,-0.35207 -0.41443,-0.87493 0.44192,-0.31179 0.89863,-0.30821 1.6978,-0.282 -0.0995,0.37978 -0.54125,0.73691 -1.28337,1.15693 z"
   id="path71"
   style="stroke-width:1.00107" />
<path
   fill="#c46f49"
   opacity="1"
   stroke="none"
   d="m 587.75655,513.07403 c -0.37674,-0.11037 -0.79759,-0.5189 -1.23787,-1.2449 0.38499,0.10395 0.78941,0.52537 1.23787,1.2449 z"
   id="path72"
   style="stroke-width:1.00107" />
<path
   fill="#c46f49"
   opacity="1"
   stroke="none"
   d="m 606.77597,539.0891 c -0.3699,-0.11837 -0.79068,-0.5357 -1.21886,-1.27716 0.38431,0.11 0.77614,0.54413 1.21886,1.27716 z"
   id="path73"
   style="stroke-width:1.00107" />
<path
   fill="#c46f49"
   opacity="1"
   stroke="none"
   d="m 579.72398,502.07545 c -0.36079,-0.11926 -0.77492,-0.53273 -1.20786,-1.26267 0.37228,0.11186 0.76337,0.54016 1.20786,1.26267 z"
   id="path74"
   style="stroke-width:1.00107" />
<path
   fill="#bc6842"
   opacity="1"
   stroke="none"
   d="m 619.09361,446.73275 c -0.0941,-0.25199 0.0517,-0.57325 0.4853,-0.8862 0.24442,0.36651 0.0668,0.63604 -0.4853,0.8862 z"
   id="path75"
   style="stroke-width:1.00107" />
<path
   fill="#bc6842"
   opacity="1"
   stroke="none"
   d="m 601.76686,465.75865 c -0.004,0.41876 -0.18663,0.68365 -0.65488,1.01958 -0.20954,0.12362 -0.42507,-0.0936 -0.41315,-0.41177 0.21149,-0.57829 0.4608,-0.77547 0.75989,-0.90967 0,0 0.20606,0.20063 0.30814,0.30186 z"
   id="path76"
   style="stroke-width:1.00107" />
<path
   fill="#bc6842"
   opacity="1"
   stroke="none"
   d="m 593.7167,474.30117 c -0.16812,-0.21657 -0.0559,-0.42557 0.31303,-0.65624 0.19304,0.21016 0.0966,0.43866 -0.31303,0.65624 z"
   id="path77"
   style="stroke-width:1.00107" />
<path
   fill="#bc6842"
   opacity="1"
   stroke="none"
   d="m 591.96721,476.74995 c -0.3088,-0.0864 -0.35523,-0.31542 -0.43795,-0.89307 0.15572,-0.34684 0.34779,-0.34513 0.82783,-0.32585 0.14955,0.37046 0.0111,0.72331 -0.38988,1.21892 z"
   id="path78"
   style="stroke-width:1.00107" />
<path
   fill="#bc6842"
   opacity="1"
   stroke="none"
   d="m 674.17697,386.66085 c -0.0999,-0.24218 0.0349,-0.56481 0.45439,-0.89631 0.24588,0.34515 0.0778,0.62006 -0.45439,0.89631 z"
   id="path79"
   style="stroke-width:1.00107" />
<path
   fill="#c46f49"
   opacity="1"
   stroke="none"
   d="m 578.74019,491.49164 c -0.069,-0.19702 0.11094,-0.4826 0.52782,-0.87145 0.065,0.19208 -0.10697,0.48746 -0.52782,0.87145 z"
   id="path80"
   style="stroke-width:1.00107" />
<path
   fill="#bc6842"
   opacity="1"
   stroke="none"
   d="m 609.08113,457.72378 c -0.0999,-0.24014 0.0421,-0.56409 0.46795,-0.91438 0.11381,0.2593 -0.0562,0.54493 -0.46795,0.91438 z"
   id="path81"
   style="stroke-width:1.00107" />
<path
   fill="#bc6842"
   opacity="1"
   stroke="none"
   d="m 629.20609,435.71563 c -0.12254,-0.23473 -0.0205,-0.5701 0.36789,-0.93488 0.26769,0.3205 0.1245,0.60836 -0.36789,0.93488 z"
   id="path82"
   style="stroke-width:1.00107" />
<path
   fill="#bc6842"
   opacity="1"
   stroke="none"
   d="m 610.06345,456.69241 c -0.10648,-0.23122 0.0293,-0.55926 0.4429,-0.94276 0.11833,0.24499 -0.0411,0.54544 -0.4429,0.94276 z"
   id="path83"
   style="stroke-width:1.00107" />
<path
   fill="#bc6842"
   opacity="1"
   stroke="none"
   d="m 620.15229,445.70474 c -0.12266,-0.23564 -0.0102,-0.56977 0.38414,-0.95147 0.1383,0.25261 -0.005,0.55281 -0.38414,0.95147 z"
   id="path84"
   style="stroke-width:1.00107" />
<path
   fill="#bc6842"
   opacity="1"
   stroke="none"
   d="m 618.02063,447.69326 c -0.0845,-0.24334 0.0795,-0.55974 0.52928,-0.88751 0.0969,0.26391 -0.0919,0.53918 -0.52928,0.88751 z"
   id="path85"
   style="stroke-width:1.00107" />
<path
   fill="#bc6842"
   opacity="1"
   stroke="none"
   d="m 617.05944,448.69203 c -0.10263,-0.24032 0.0416,-0.56693 0.46868,-0.93356 0.11467,0.25572 -0.0536,0.55149 -0.46868,0.93356 z"
   id="path86"
   style="stroke-width:1.00107" />
<path
   fill="#7c381d"
   opacity="1"
   stroke="none"
   d="m 646.44811,556.17219 c 0.0809,-0.18486 0.32445,-0.24047 0.93296,-0.20876 -0.0135,0.17081 -0.39201,0.25441 -0.93296,0.20876 z"
   id="path87"
   style="stroke-width:1.00107" />
<path
   fill="#c46f49"
   opacity="1"
   stroke="none"
   d="m 601.43331,532.3202 c -0.18907,0.0508 -0.46386,-0.14648 -0.83815,-0.58245 0.18449,-0.0477 0.4685,0.14331 0.83815,0.58245 z"
   id="path88"
   style="stroke-width:1.00107" />
<path
   fill="#c46f49"
   opacity="1"
   stroke="none"
   d="m 605.51459,537.2807 c -0.21137,0.0638 -0.49672,-0.13426 -0.87432,-0.58281 0.20526,-0.06 0.50289,0.13041 0.87432,0.58281 z"
   id="path89"
   style="stroke-width:1.00107" />
<path
   fill="#bc6842"
   opacity="1"
   stroke="none"
   d="m 616.17377,449.72866 c -0.12347,-0.24026 -0.0155,-0.57463 0.37875,-0.93919 0.14179,0.26153 -0.003,0.5533 -0.37875,0.93919 z"
   id="path90"
   style="stroke-width:1.00107" />
<path
   fill="#200e09"
   opacity="1"
   stroke="none"
   d="m 655.09084,228.63159 c -3.29102,-2.78109 -6.3036,-5.33871 -10.33534,-8.76149 12.89188,0 24.4021,0 35.88537,0 -5.10154,5.49359 -10.03716,10.80858 -15.25446,16.42688 -3.69263,-2.74332 -6.85494,-5.09262 -10.29557,-7.66539 z"
   id="path91"
   style="stroke-width:1.00107" />
<path
   fill="#e66d32"
   opacity="1"
   stroke="none"
   d="m 319.12367,549.94608 c 3.08616,-2.10864 6.15666,-3.71879 8.91385,-5.75372 15.55298,-11.47897 31.03073,-23.05981 47.11696,-34.40165 5.09961,-1.50467 9.61647,-3.2137 14.29688,-4.98464 -0.46538,-2.12064 -0.8105,-3.6933 -1.15563,-5.26593 0.77046,-0.65584 1.5409,-1.31172 2.61433,-2.0185 9.39581,4.37659 17.97293,0.2468 26.68967,-1.63163 4.2833,-0.92302 8.57797,-1.79339 13.69246,-2.85951 -0.88626,2.55405 -1.39025,4.00647 -1.84488,5.31663 2.01593,0.76499 3.75842,1.42624 5.50095,2.08746 -0.4499,0.6449 -0.89463,1.83687 -1.35061,1.84121 -2.12662,0.0203 -4.25639,-0.28755 -7.65799,-1.79684 -1.09033,3.27701 -2.18065,6.554 -3.40495,10.23361 2.87338,0.63443 4.53707,1.00174 7.63224,1.68514 -2.67778,0.88147 -3.96332,1.30466 -5.59548,1.84195 1.19836,3.6504 -0.68109,5.57277 -3.00253,8.46925 -2.27984,2.84465 -8.01274,4.62408 -6.27703,10.53003 -11.85085,12.14869 -25.05707,20.89416 -41.95146,24.99196 -13.08034,3.1727 -25.92076,3.44146 -38.9789,3.24603 -4.8839,-0.0731 -9.8044,-1.42902 -14.60056,-2.63016 -5.22448,-1.30838 -5.29681,-1.95616 -2.0487,-6.44189 0.48493,-0.66965 0.83735,-1.43525 1.41138,-2.4588 z"
   id="path92"
   style="stroke-width:1.00107" />
<path
   fill="#da6833"
   opacity="1"
   stroke="none"
   d="m 601.51456,465.12145 c -0.35493,0.46954 -0.60424,0.66672 -0.92282,1.13575 -1.58766,1.45679 -3.05632,2.70465 -4.81558,4.0929 -1.62114,-4.06232 3.07935,-10.57571 7.52222,-10.06586 -0.41205,1.68669 -1.07005,3.09429 -1.78382,4.83721 z"
   id="path93"
   style="stroke-width:1.00107" />
<path
   fill="#da6833"
   opacity="1"
   stroke="none"
   d="m 632.23058,429.46617 c -0.16201,0.58371 -0.6525,1.16084 -1.39993,1.86688 0.18584,-0.53857 0.62861,-1.20602 1.39993,-1.86688 z"
   id="path94"
   style="stroke-width:1.00107" />
<path
   fill="#0f0f0f"
   opacity="1"
   stroke="none"
   d="m 260.45752,657.73647 c -2.78508,6.29028 -7.74449,9.5536 -13.80473,9.89729 -9.88952,0.56069 -19.83399,0.15143 -30.01067,0.15143 0,-12.59497 0,-25.53926 0,-39.57811 10.48434,0.54683 21.0393,0.1254 31.22182,1.8741 12.76372,2.19205 17.61344,13.75785 12.59358,27.65529 z"
   id="path95"
   style="stroke-width:1.00107" />
<path
   fill="#131313"
   opacity="1"
   stroke="none"
   d="m 560.37174,658.83604 c 2.15457,3.79579 4.0745,7.31596 6.4231,11.62215 -15.4981,0 -29.43767,0 -43.91232,0 0.67993,-7.77754 4.75443,-12.96568 11.29603,-15.74745 9.2182,-3.92009 18.18079,-3.32425 26.19319,4.1253 z"
   id="path96"
   style="stroke-width:1.00107" />
<path
   fill="#101010"
   opacity="1"
   stroke="none"
   d="m 343.41148,685.76087 c 5.77432,-0.009 11.06896,-0.009 16.27729,-0.009 4.1654,18.34314 -12.73751,24.01009 -24.76708,21.02286 -4.69059,-1.16472 -7.71518,-5.61213 -7.72135,-10.47052 -0.006,-4.62567 2.88411,-8.4412 7.82236,-9.67668 2.54835,-0.63757 5.26724,-0.59314 8.38878,-0.86631 z"
   id="path97"
   style="stroke-width:1.00107" />
<path
   fill="#100c0b"
   opacity="1"
   stroke="none"
   d="m 904.01196,685.26416 c -4.0665,-16.57202 2.36325,-31.21073 17.12692,-37.06895 13.89608,-5.51405 31.80905,-3.40101 41.28155,10.67328 12.99354,19.30582 0.64352,46.54079 -20.98547,49.09945 -18.46717,2.18459 -32.88178,-6.02451 -37.423,-22.70378 z"
   id="path98"
   style="stroke-width:1.00107" />
<path
   fill="#110a09"
   opacity="1"
   stroke="none"
   d="m 829.70653,713.98865 c -4.0635,-0.59033 -7.85228,-0.64741 -11.21161,-1.87788 -7.43577,-2.72347 -11.07935,-9.30402 -9.84613,-16.55252 1.16767,-6.86344 7.30651,-12.54389 14.65554,-12.73511 10.82565,-0.28178 21.66412,-0.0728 32.46466,-0.0728 4.74227,19.20884 -7.38006,31.54061 -26.06246,31.23829 z"
   id="path99"
   style="stroke-width:1.00107" />
<path
   fill="#140b09"
   opacity="1"
   stroke="none"
   d="m 537.81021,500.36434 c 4.2797,-4.75031 8.53564,-9.47364 13.33607,-14.80126 13.70676,19.16508 26.7783,37.44197 40.72026,56.93589 -8.80003,0 -16.01778,0.0943 -23.22704,-0.11037 -0.98318,-0.0279 -2.14193,-1.39498 -2.85155,-2.40147 -9.19729,-13.04586 -18.32807,-26.13871 -27.72214,-39.42454 -0.24655,-0.20485 -0.27942,-0.17121 -0.2556,-0.19825 z"
   id="path100"
   style="stroke-width:1.00107" />
<path
   fill="#e86d31"
   opacity="1"
   stroke="none"
   d="m 357.40664,492.13676 c -0.62584,0.31976 -1.0538,0.34631 -2.22776,0.37772 -2.78221,0.68365 -4.81848,1.36241 -6.85475,2.04114 -1.10484,0.33067 -2.20965,0.66134 -3.67767,1.01255 -1.12887,-0.37541 -2.02371,-1.23411 -2.63156,-1.0644 -1.04814,0.29266 -1.85945,1.65586 -2.87521,1.79348 -1.7768,0.24069 -3.63316,-0.10664 -5.45617,-0.20759 0.69969,-1.85423 0.85275,-4.38667 2.18246,-5.45923 15.58918,-12.57392 31.34012,-24.94762 47.08471,-37.32794 3.89352,-3.06154 8.04685,-5.80423 11.82143,-9 1.62841,-1.37864 2.59754,-3.5365 3.86616,-5.3404 -0.22206,-0.55217 -0.44412,-1.10434 -0.66619,-1.6565 -3.97409,0 -7.94822,-0.0105 -11.92229,0.002 -11.17328,0.0352 -22.34701,0.13341 -33.51898,0.031 -1.02343,-0.009 -2.72264,-1.15499 -2.87246,-1.99386 -0.1735,-0.97118 0.74016,-2.60193 1.66686,-3.22801 5.45656,-3.68664 11.097,-7.09984 16.5835,-10.74383 2.15482,-1.43116 4.00877,-3.30748 6.10775,-4.83226 8.43798,-6.12989 16.95245,-12.15471 25.37449,-18.30623 10.85638,-7.92952 21.58691,-16.03268 32.49398,-23.8911 8.06675,-5.81202 16.36817,-11.29732 24.47761,-17.05147 2.13255,-1.5132 3.94035,-3.48433 5.97647,-5.57081 4.90336,-3.11343 9.949,-5.58286 14.50507,-8.7558 9.21771,-6.41944 18.16576,-13.22614 27.2327,-19.86264 10.17497,-7.4475 20.3086,-14.95364 30.59323,-22.24657 1.4967,-1.06131 3.7305,-1.50446 5.62703,-1.51454 19.34296,-0.10289 38.68689,-0.0802 58.03034,-0.0373 5.52446,0.0122 7.25538,2.74272 7.18964,8.2611 -0.24747,20.77169 -0.0561,41.54833 -0.19878,62.32195 -0.0138,2.00872 -0.69752,4.41417 -1.92781,5.94643 -6.75163,8.4086 -13.71806,16.64716 -20.71356,24.85644 -6.13714,7.202 -12.25307,14.43567 -18.72534,21.32933 -1.76879,1.88396 -4.66756,3.022 -7.25899,3.74843 -4.65625,1.30521 -9.47672,2.01932 -14.21728,3.03321 -0.79001,0.16897 -1.52291,0.60521 -2.28225,0.9177 -7.85119,3.23107 -15.64385,6.61597 -23.57482,9.63748 -5.04681,1.92274 -10.29909,3.30562 -15.459,4.93148 -7.64553,2.40905 -15.32517,4.71596 -22.92617,7.25827 -7.18048,2.40167 -14.24755,5.14179 -21.42135,7.56463 -6.51879,2.20161 -13.13074,4.12548 -19.67162,6.26369 -9.73534,3.18245 -19.42057,6.51932 -29.16984,9.65765 -15.15666,4.87898 -30.35667,9.62306 -45.51611,14.49339 -1.69029,0.54306 -3.23656,1.53468 -5.04747,2.61152 z"
   id="path101"
   style="stroke-width:1.00107" />
<path
   fill="#e36b31"
   opacity="1"
   stroke="none"
   d="m 387.978,499.66936 c 0.66286,1.44341 1.00798,3.01607 1.47336,5.13671 -4.68041,1.77094 -9.19727,3.47997 -13.9502,4.93741 0.77462,-1.62669 1.78532,-3.00178 2.90882,-4.67371 3.15858,-1.95497 6.20442,-3.61307 9.56802,-5.40041 z"
   id="path102"
   style="stroke-width:1.00107" />
<path
   fill="#cc6c40"
   opacity="1"
   stroke="none"
   d="m 348.71189,494.54896 c 1.64851,-0.67207 3.68478,-1.35083 6.14523,-2.02137 -1.63638,0.67705 -3.69694,1.34585 -6.14523,2.02137 z"
   id="path103"
   style="stroke-width:1.00107" />
</svg>
