<svg version="1.1" id="Layer_1" xmlns="http://www.w3.org/2000/svg" xmlns:xlink="http://www.w3.org/1999/xlink" x="0px" y="0px"
	 width="100%" viewBox="0 0 1024 1024" enable-background="new 0 0 1024 1024" xml:space="preserve">
<path fill="#FEFEFD" opacity="1.000000" stroke="none" 
	d="
M540.000000,1025.000000 
	C360.000000,1025.000000 180.500000,1025.000000 1.000000,1025.000000 
	C1.000000,683.666687 1.000000,342.333344 1.000000,1.000000 
	C342.333344,1.000000 683.666687,1.000000 1025.000000,1.000000 
	C1025.000000,342.333344 1025.000000,683.666687 1025.000000,1025.000000 
	C863.500000,1025.000000 702.000000,1025.000000 540.000000,1025.000000 
M45.299320,605.140503 
	C51.102589,627.344482 55.905907,649.869507 62.911186,671.687561 
	C78.942184,721.616333 104.036072,766.949219 135.723404,808.654358 
	C154.120193,832.867249 175.012161,854.773987 197.585846,875.116882 
	C223.074265,898.086548 251.013474,917.705444 280.932892,934.308350 
	C312.458008,951.802307 345.638153,965.545349 380.365204,975.623047 
	C417.844635,986.499634 455.998230,993.028198 494.950775,993.875183 
	C516.057190,994.334167 537.241272,993.357056 558.328308,992.037415 
	C586.308777,990.286316 613.778442,985.007690 640.823730,977.611450 
	C672.085144,969.062195 702.002747,957.142822 731.079590,942.805298 
	C771.774048,922.739075 808.288879,896.748291 841.234070,865.818481 
	C868.748108,839.987488 892.702759,811.089172 913.591675,779.500183 
	C938.449768,741.908936 956.852783,701.420532 969.526123,658.427795 
	C986.677246,600.244629 993.231384,540.800903 988.254822,480.125000 
	C985.507507,446.628937 979.731384,413.759338 970.341187,381.567261 
	C953.839783,324.996735 927.124695,273.561462 891.757996,226.452255 
	C869.331970,196.580414 844.005676,169.466553 815.129028,145.924286 
	C774.981445,113.193192 730.733643,87.191467 682.166504,68.806152 
	C632.350647,49.948147 580.759766,40.016560 527.580505,38.151642 
	C500.195160,37.191273 472.964813,39.467892 445.894196,43.202549 
	C388.509827,51.119274 334.488007,69.578362 283.942322,97.658066 
	C227.827393,128.831635 179.640411,169.522079 140.162979,220.393280 
	C104.468979,266.389069 77.603134,316.899841 59.900967,372.412323 
	C45.883621,416.369476 38.529465,461.364166 37.171471,507.378052 
	C36.209976,539.956970 39.724766,572.214905 45.299320,605.140503 
z"/>
<path fill="#F0732B" opacity="1.000000" stroke="none" 
	d="
M45.226543,604.716187 
	C39.724766,572.214905 36.209976,539.956970 37.171471,507.378052 
	C38.529465,461.364166 45.883621,416.369476 59.900967,372.412323 
	C77.603134,316.899841 104.468979,266.389069 140.162979,220.393280 
	C179.640411,169.522079 227.827393,128.831635 283.942322,97.658066 
	C334.488007,69.578362 388.509827,51.119274 445.894196,43.202549 
	C472.964813,39.467892 500.195160,37.191273 527.580505,38.151642 
	C580.759766,40.016560 632.350647,49.948147 682.166504,68.806152 
	C730.733643,87.191467 774.981445,113.193192 815.129028,145.924286 
	C844.005676,169.466553 869.331970,196.580414 891.757996,226.452255 
	C927.124695,273.561462 953.839783,324.996735 970.341187,381.567261 
	C979.731384,413.759338 985.507507,446.628937 988.254822,480.125000 
	C993.231384,540.800903 986.677246,600.244629 969.526123,658.427795 
	C956.852783,701.420532 938.449768,741.908936 913.591675,779.500183 
	C892.702759,811.089172 868.748108,839.987488 841.234070,865.818481 
	C808.288879,896.748291 771.774048,922.739075 731.079590,942.805298 
	C702.002747,957.142822 672.085144,969.062195 640.823730,977.611450 
	C613.778442,985.007690 586.308777,990.286316 558.328308,992.037415 
	C537.241272,993.357056 516.057190,994.334167 494.950775,993.875183 
	C455.998230,993.028198 417.844635,986.499634 380.365204,975.623047 
	C345.638153,965.545349 312.458008,951.802307 280.932892,934.308350 
	C251.013474,917.705444 223.074265,898.086548 197.585846,875.116882 
	C175.012161,854.773987 154.120193,832.867249 135.723404,808.654358 
	C104.036072,766.949219 78.942184,721.616333 62.911186,671.687561 
	C55.905907,649.869507 51.102589,627.344482 45.226543,604.716187 
M208.425873,658.219727 
	C202.780075,662.463684 197.054962,666.607483 191.519821,670.991150 
	C188.473770,673.403564 185.747101,676.219238 183.002609,678.973145 
	C183.002609,678.973145 182.875000,678.860901 182.170334,678.918945 
	C178.440323,681.456848 174.710312,683.994812 170.980301,686.532715 
	C171.256226,687.057678 171.532150,687.582642 171.808075,688.107666 
	C176.617279,686.569458 181.448807,685.097473 186.232254,683.482971 
	C234.172531,667.301941 282.125977,651.159424 330.029938,634.871521 
	C351.452148,627.587585 372.800629,620.083435 394.127380,612.523560 
	C413.875305,605.523254 433.351776,597.678406 453.340179,591.468628 
	C463.264221,588.385559 468.249115,581.185730 474.332214,573.519348 
	C475.284271,572.425415 476.236328,571.331543 477.828888,570.037659 
	C482.788025,564.459106 487.850677,558.967834 492.658386,553.261719 
	C494.754547,550.773865 496.328094,547.845642 498.503021,544.844666 
	C498.503021,544.844666 498.787628,544.489868 499.426178,544.402649 
	C502.385345,540.744507 506.616058,537.985168 506.619019,532.400513 
	C506.634003,504.070740 506.744720,475.740814 506.928253,447.411591 
	C506.952850,443.618103 505.727631,442.155121 501.719788,442.174164 
	C476.223419,442.295258 450.724823,442.074829 425.230774,442.338440 
	C422.579926,442.365814 419.954285,444.826965 416.828705,446.399261 
	C416.578125,446.658783 416.327545,446.918304 415.393860,447.205444 
	C409.846802,451.143982 404.173950,454.918823 398.783173,459.060730 
	C391.307220,464.804810 384.043121,470.824615 376.348755,476.888428 
	C376.348755,476.888428 376.067505,477.138397 375.374695,477.144043 
	C371.485535,480.345398 367.596344,483.546783 363.365417,486.912109 
	C363.365417,486.912109 363.076111,487.157104 362.385529,487.164764 
	C352.406891,494.592499 342.351929,501.920593 332.477997,509.485016 
	C326.467926,514.089294 320.737091,519.058044 314.988708,523.988098 
	C314.988708,523.988098 314.884216,523.866577 314.174896,523.901306 
	C309.671936,527.210876 305.171021,530.523254 300.665680,533.829468 
	C289.212158,542.234558 277.721008,550.589050 266.326721,559.073669 
	C263.458008,561.209839 260.896912,563.759094 258.111328,566.113403 
	C258.111328,566.113403 258.101807,566.196167 257.408295,566.190552 
	C250.179657,571.712830 242.951004,577.235107 235.374283,582.923157 
	C235.374283,582.923157 235.078629,583.170593 234.384460,583.181091 
	C224.366379,590.136414 214.348297,597.091736 203.156464,604.862000 
	C206.546799,605.199097 208.590164,605.595703 210.629272,605.574951 
	C229.572830,605.381897 248.515411,605.083130 267.459198,604.938599 
	C268.943970,604.927246 270.435822,605.846741 271.924438,606.333618 
	C271.155212,607.680054 270.653564,609.315063 269.568604,610.320984 
	C265.708832,613.899597 261.650391,617.264038 257.338287,620.874084 
	C257.338287,620.874084 257.067688,621.123047 256.375885,621.139893 
	C253.828506,623.349915 251.281158,625.559937 248.381454,627.944275 
	C248.381454,627.944275 248.095596,628.214111 247.407242,628.220276 
	C235.650406,637.089722 223.878464,645.939392 212.160767,654.860229 
	C211.019989,655.728699 210.213852,657.036804 209.150848,658.144592 
	C209.150848,658.144592 209.114594,658.239563 208.425873,658.219727 
M487.407349,676.013916 
	C486.131500,674.129639 484.855652,672.245361 483.592163,670.379395 
	C504.972748,645.435242 526.144104,620.834717 547.198303,596.134277 
	C559.832153,581.312561 572.408997,566.438110 584.759216,551.380432 
	C590.356262,544.556274 590.321167,544.136108 584.963257,537.357300 
	C564.725586,511.752594 544.320190,486.280457 523.951843,460.779266 
	C523.311707,459.977783 522.389160,459.401855 521.029480,458.231049 
	C521.029480,461.551025 521.030029,464.033691 521.029358,466.516388 
	C521.023132,490.012482 521.127991,513.509827 520.872742,537.003174 
	C520.840027,540.013062 519.655212,543.586548 517.778137,545.907104 
	C505.213348,561.439575 492.428345,576.799072 479.438965,591.978638 
	C476.604248,595.291260 473.044647,598.510254 469.142090,600.279968 
	C458.994751,604.881592 448.607269,609.047058 438.074707,612.690125 
	C385.838348,630.758240 333.514374,648.572998 281.255035,666.574951 
	C276.884125,668.080688 272.304840,669.670776 268.601318,672.313354 
	C243.794434,690.013733 219.203354,708.016541 194.532104,725.907288 
	C186.206680,731.944519 177.851700,737.941101 168.859558,744.425476 
	C171.637634,745.505432 173.570282,746.356445 175.565887,747.017334 
	C198.723373,754.686646 221.929581,754.298889 245.441910,748.289856 
	C267.791016,742.578125 285.822968,730.148987 302.498596,714.814148 
	C320.515015,698.246277 339.074097,682.265625 357.541382,666.195374 
	C359.496826,664.493713 362.399078,663.029480 364.906250,662.955627 
	C377.560272,662.583069 390.232300,662.544556 402.889252,662.808777 
	C405.158142,662.856201 408.200134,664.281616 409.507233,666.075073 
	C423.238434,684.914795 436.695831,703.954285 450.195557,722.962280 
	C450.793243,723.803772 451.069550,724.873474 451.564728,725.993347 
	C446.826660,726.219788 441.370819,724.838989 438.454285,726.956299 
	C432.082184,731.581909 427.000427,737.985107 420.791534,744.269470 
	C471.953125,744.269470 521.584106,744.269470 572.205627,744.269470 
	C566.847229,738.288818 562.330688,732.958740 557.452271,727.983582 
	C556.038696,726.541992 553.597839,725.383301 551.610474,725.355652 
	C543.456482,725.242188 535.292419,725.812622 527.139771,725.674561 
	C525.026123,725.638794 522.141541,724.531128 520.965942,722.924438 
	C509.756805,707.604492 498.839355,692.071167 487.407349,676.013916 
M600.948364,333.557220 
	C593.763428,326.028137 585.216125,322.130524 574.573914,322.976501 
	C569.949524,323.344116 565.255310,322.761597 560.591797,322.721222 
	C548.436096,322.615997 536.278503,322.460266 524.125244,322.610443 
	C522.033997,322.636292 519.481995,323.553833 517.977600,324.955444 
	C514.830200,327.887726 512.137207,331.335632 509.436066,334.714417 
	C488.542480,360.849823 467.681183,387.011047 446.836609,413.185547 
	C442.951630,418.063904 439.186920,423.037964 434.778992,428.726318 
	C437.544067,428.726318 439.319824,428.726746 441.095581,428.726196 
	C464.920776,428.718811 488.746368,428.649414 512.570496,428.806427 
	C514.777649,428.820923 517.776306,429.612335 519.055847,431.160278 
	C535.178467,450.665619 551.063171,470.367798 566.985291,490.038635 
	C575.112488,500.079285 583.192566,510.158081 591.789917,520.835632 
	C592.145935,518.993225 592.483887,518.047913 592.488953,517.100830 
	C592.637512,489.286346 592.580872,461.468872 593.029114,433.659515 
	C593.111694,428.536438 594.646484,423.222260 596.536987,418.398438 
	C598.771790,412.696075 602.216248,407.477997 604.963379,401.963837 
	C608.987061,393.886932 615.365906,389.351807 624.287048,387.870636 
	C636.926819,385.772125 649.527710,383.419769 662.104492,380.967072 
	C672.921143,378.857635 683.680603,376.455566 695.320496,374.002747 
	C693.390259,371.950226 692.425354,370.829163 691.363403,369.809143 
	C673.884155,353.019958 652.580383,345.702942 628.782776,345.134155 
	C618.108337,344.879028 608.765991,342.203796 600.948364,333.557220 
M840.894836,366.809387 
	C840.146240,380.255402 840.558655,393.888977 838.422852,407.110901 
	C832.874329,441.459778 817.242126,470.998383 792.874451,495.883423 
	C791.154968,497.639374 789.647827,499.603271 788.029053,501.485474 
	C794.561157,508.091644 800.832520,514.434143 807.094177,520.766785 
	C899.031921,437.179535 879.285400,290.009460 806.267944,226.801880 
	C799.926697,233.252472 793.559509,239.729477 787.122742,246.277298 
	C788.219177,247.488510 789.094055,248.487869 790.003479,249.454742 
	C810.035339,270.754150 825.758789,294.766541 833.335205,323.189423 
	C837.042358,337.097015 838.423218,351.624725 840.894836,366.809387 
M792.520996,450.047852 
	C808.693848,423.158234 814.557312,394.057281 812.092285,362.881561 
	C809.538879,330.587860 797.907410,302.183289 777.326782,277.335205 
	C774.309570,273.692291 770.960510,270.324310 767.111450,266.114349 
	C760.311340,273.678986 754.125793,280.559937 748.310059,287.029449 
	C797.280151,344.799957 798.950928,402.901581 748.696594,461.240356 
	C754.843750,467.459656 761.205872,473.896393 768.585022,481.362122 
	C776.586975,470.923370 784.353516,460.791718 792.520996,450.047852 
M709.080261,421.967865 
	C714.730347,428.299316 720.380432,434.630798 725.914795,440.832642 
	C770.151367,403.090363 761.455933,335.563324 726.475952,307.442902 
	C720.468201,313.663849 714.408386,319.938690 708.284424,326.279999 
	C710.120789,328.640350 711.796448,330.707275 713.379700,332.842743 
	C729.122437,354.076447 733.357971,376.844360 721.570923,401.223328 
	C718.131165,408.337646 713.123535,414.693970 709.080261,421.967865 
z"/>
<path fill="#FDFCFA" opacity="1.000000" stroke="none" 
	d="
M376.067505,477.138397 
	C376.067505,477.138397 376.348755,476.888428 376.893585,476.871399 
	C378.787476,476.270142 380.315796,475.923737 381.456970,475.063629 
	C389.839050,468.746185 398.208679,462.408234 406.441437,455.898621 
	C409.832001,453.217712 412.875580,450.097961 416.076996,447.177826 
	C416.327545,446.918304 416.578125,446.658783 417.455627,446.259155 
	C420.907959,445.394470 423.729156,444.060730 426.559448,444.041229 
	C450.167908,443.878204 473.778107,443.951508 497.387756,443.966492 
	C504.513733,443.971008 505.147095,444.547729 505.056763,451.621124 
	C504.774872,473.700043 504.268738,495.777649 504.192902,517.856934 
	C504.163208,526.512756 505.864014,535.329102 499.117584,542.551270 
	C498.743927,542.951233 498.885742,543.832581 498.787598,544.489868 
	C498.787628,544.489868 498.503021,544.844666 497.966888,544.977051 
	C490.683289,553.485474 483.935852,561.861572 477.188385,570.237610 
	C476.236328,571.331543 475.284271,572.425415 473.765625,573.764038 
	C469.704224,577.305786 466.360657,580.785950 462.663635,583.838013 
	C460.018463,586.021729 457.096741,588.115417 453.951202,589.397217 
	C447.281708,592.115051 440.372223,594.239624 433.584991,596.673889 
	C421.472290,601.018127 409.399170,605.473633 397.268524,609.766907 
	C385.482330,613.938110 373.645416,617.966125 361.829468,622.053284 
	C350.101685,626.109985 338.397064,630.235657 326.636749,634.195862 
	C313.976288,638.459290 301.235779,642.485413 288.581604,646.766907 
	C279.058044,649.989197 269.640900,653.525024 260.131409,656.790161 
	C242.791946,662.743652 225.429901,668.632019 208.055542,674.483032 
	C199.544693,677.349243 190.985092,680.070679 181.719391,683.095276 
	C182.283997,681.026428 182.579498,679.943665 182.875000,678.860901 
	C182.875000,678.860901 183.002609,678.973145 183.297150,678.941956 
	C189.934174,674.197083 196.352814,669.580994 202.580597,664.720337 
	C204.981888,662.846191 206.949432,660.416260 209.114594,658.239563 
	C209.114594,658.239563 209.150848,658.144592 209.562805,658.134399 
	C210.928345,657.873779 212.086411,657.887939 212.804596,657.332947 
	C222.327850,649.973877 231.841888,642.600403 241.231125,635.071960 
	C243.739532,633.060730 245.819122,630.514648 248.095596,628.214111 
	C248.095596,628.214111 248.381454,627.944275 248.934708,627.929871 
	C252.014542,625.651306 254.541138,623.387207 257.067688,621.123047 
	C257.067688,621.123047 257.338287,620.874084 257.884338,620.875671 
	C262.119934,618.234985 265.897858,615.705811 269.471985,612.915588 
	C272.480133,610.567261 275.251221,607.915283 278.127258,605.397705 
	C277.892273,604.775879 277.657318,604.154053 277.422333,603.532227 
	C255.494598,601.916260 233.422607,604.146973 211.340881,602.519043 
	C214.913101,599.073425 218.715515,596.530090 222.309814,593.720459 
	C226.658127,590.321533 230.830276,586.697327 235.078644,583.170593 
	C235.078629,583.170593 235.374283,582.923157 235.926941,582.909058 
	C239.145966,581.156372 241.961929,579.606628 244.446411,577.638489 
	C249.099579,573.952393 253.560760,570.023865 258.101807,566.196167 
	C258.101807,566.196167 258.111328,566.113403 258.508911,566.106689 
	C263.261078,563.211792 267.710205,560.455261 271.950378,557.407959 
	C280.597290,551.193848 289.255219,544.982544 297.670227,538.462463 
	C303.611298,533.859253 309.160217,528.749939 314.884216,523.866577 
	C314.884216,523.866577 314.988708,523.988098 315.300293,523.956848 
	C318.574463,522.175476 321.745453,520.698669 324.462494,518.626526 
	C334.585846,510.906067 344.610870,503.053711 354.559784,495.109314 
	C357.585754,492.693024 360.247528,489.820618 363.076111,487.157104 
	C363.076111,487.157104 363.365417,486.912109 363.905090,486.883728 
	C368.319000,483.616364 372.193268,480.377380 376.067505,477.138397 
z"/>
<path fill="#FDFBF6" opacity="1.000000" stroke="none" 
	d="
M487.622711,676.306519 
	C498.839355,692.071167 509.756805,707.604492 520.965942,722.924438 
	C522.141541,724.531128 525.026123,725.638794 527.139771,725.674561 
	C535.292419,725.812622 543.456482,725.242188 551.610474,725.355652 
	C553.597839,725.383301 556.038696,726.541992 557.452271,727.983582 
	C562.330688,732.958740 566.847229,738.288818 572.205627,744.269470 
	C521.584106,744.269470 471.953125,744.269470 420.791534,744.269470 
	C427.000427,737.985107 432.082184,731.581909 438.454285,726.956299 
	C441.370819,724.838989 446.826660,726.219788 451.564728,725.993347 
	C451.069550,724.873474 450.793243,723.803772 450.195557,722.962280 
	C436.695831,703.954285 423.238434,684.914795 409.507233,666.075073 
	C408.200134,664.281616 405.158142,662.856201 402.889252,662.808777 
	C390.232300,662.544556 377.560272,662.583069 364.906250,662.955627 
	C362.399078,663.029480 359.496826,664.493713 357.541382,666.195374 
	C339.074097,682.265625 320.515015,698.246277 302.498596,714.814148 
	C285.822968,730.148987 267.791016,742.578125 245.441910,748.289856 
	C221.929581,754.298889 198.723373,754.686646 175.565887,747.017334 
	C173.570282,746.356445 171.637634,745.505432 168.859558,744.425476 
	C177.851700,737.941101 186.206680,731.944519 194.532104,725.907288 
	C219.203354,708.016541 243.794434,690.013733 268.601318,672.313354 
	C272.304840,669.670776 276.884125,668.080688 281.255035,666.574951 
	C333.514374,648.572998 385.838348,630.758240 438.074707,612.690125 
	C448.607269,609.047058 458.994751,604.881592 469.142090,600.279968 
	C473.044647,598.510254 476.604248,595.291260 479.438965,591.978638 
	C492.428345,576.799072 505.213348,561.439575 517.778137,545.907104 
	C519.655212,543.586548 520.840027,540.013062 520.872742,537.003174 
	C521.127991,513.509827 521.023132,490.012482 521.029358,466.516388 
	C521.030029,464.033691 521.029480,461.551025 521.029480,458.231049 
	C522.389160,459.401855 523.311707,459.977783 523.951843,460.779266 
	C544.320190,486.280457 564.725586,511.752594 584.963257,537.357300 
	C590.321167,544.136108 590.356262,544.556274 584.759216,551.380432 
	C572.408997,566.438110 559.832153,581.312561 547.198303,596.134277 
	C526.144104,620.834717 504.972748,645.435242 483.592163,670.379395 
	C484.855652,672.245361 486.131500,674.129639 487.622711,676.306519 
M452.364929,696.131104 
	C458.867859,704.960938 465.345184,713.809814 471.902008,722.599426 
	C472.858612,723.881714 474.163605,725.820251 475.360443,725.860046 
	C483.867157,726.143005 492.387634,726.010803 501.661957,726.010803 
	C485.864746,703.989258 470.356018,682.369934 454.590607,660.392761 
	C449.354065,665.945435 444.710449,670.676086 440.371185,675.671204 
	C439.691895,676.453186 439.864990,678.797485 440.549072,679.804504 
	C444.188568,685.161743 448.116333,690.323181 452.364929,696.131104 
z"/>
<path fill="#FDFBF8" opacity="1.000000" stroke="none" 
	d="
M601.215149,333.793060 
	C608.765991,342.203796 618.108337,344.879028 628.782776,345.134155 
	C652.580383,345.702942 673.884155,353.019958 691.363403,369.809143 
	C692.425354,370.829163 693.390259,371.950226 695.320496,374.002747 
	C683.680603,376.455566 672.921143,378.857635 662.104492,380.967072 
	C649.527710,383.419769 636.926819,385.772125 624.287048,387.870636 
	C615.365906,389.351807 608.987061,393.886932 604.963379,401.963837 
	C602.216248,407.477997 598.771790,412.696075 596.536987,418.398438 
	C594.646484,423.222260 593.111694,428.536438 593.029114,433.659515 
	C592.580872,461.468872 592.637512,489.286346 592.488953,517.100830 
	C592.483887,518.047913 592.145935,518.993225 591.789917,520.835632 
	C583.192566,510.158081 575.112488,500.079285 566.985291,490.038635 
	C551.063171,470.367798 535.178467,450.665619 519.055847,431.160278 
	C517.776306,429.612335 514.777649,428.820923 512.570496,428.806427 
	C488.746368,428.649414 464.920776,428.718811 441.095581,428.726196 
	C439.319824,428.726746 437.544067,428.726318 434.778992,428.726318 
	C439.186920,423.037964 442.951630,418.063904 446.836609,413.185547 
	C467.681183,387.011047 488.542480,360.849823 509.436066,334.714417 
	C512.137207,331.335632 514.830200,327.887726 517.977600,324.955444 
	C519.481995,323.553833 522.033997,322.636292 524.125244,322.610443 
	C536.278503,322.460266 548.436096,322.615997 560.591797,322.721222 
	C565.255310,322.761597 569.949524,323.344116 574.573914,322.976501 
	C585.216125,322.130524 593.763428,326.028137 601.215149,333.793060 
M576.494446,349.891998 
	C568.461365,349.891998 560.428284,349.891998 552.498169,349.891998 
	C559.173767,356.658630 565.482788,363.053711 572.137695,369.799408 
	C578.683105,363.784058 585.442993,357.571655 592.202881,351.359253 
	C592.020752,350.867950 591.838623,350.376648 591.656433,349.885345 
	C586.934814,349.885345 582.213135,349.885345 576.494446,349.891998 
z"/>
<path fill="#FDFAF4" opacity="1.000000" stroke="none" 
	d="
M840.875916,366.340576 
	C838.423218,351.624725 837.042358,337.097015 833.335205,323.189423 
	C825.758789,294.766541 810.035339,270.754150 790.003479,249.454742 
	C789.094055,248.487869 788.219177,247.488510 787.122742,246.277298 
	C793.559509,239.729477 799.926697,233.252472 806.267944,226.801880 
	C879.285400,290.009460 899.031921,437.179535 807.094177,520.766785 
	C800.832520,514.434143 794.561157,508.091644 788.029053,501.485474 
	C789.647827,499.603271 791.154968,497.639374 792.874451,495.883423 
	C817.242126,470.998383 832.874329,441.459778 838.422852,407.110901 
	C840.558655,393.888977 840.146240,380.255402 840.875916,366.340576 
z"/>
<path fill="#FDFAF4" opacity="1.000000" stroke="none" 
	d="
M792.320557,450.353943 
	C784.353516,460.791718 776.586975,470.923370 768.585022,481.362122 
	C761.205872,473.896393 754.843750,467.459656 748.696594,461.240356 
	C798.950928,402.901581 797.280151,344.799957 748.310059,287.029449 
	C754.125793,280.559937 760.311340,273.678986 767.111450,266.114349 
	C770.960510,270.324310 774.309570,273.692291 777.326782,277.335205 
	C797.907410,302.183289 809.538879,330.587860 812.092285,362.881561 
	C814.557312,394.057281 808.693848,423.158234 792.320557,450.353943 
z"/>
<path fill="#FDFAF4" opacity="1.000000" stroke="none" 
	d="
M708.957397,421.682800 
	C713.123535,414.693970 718.131165,408.337646 721.570923,401.223328 
	C733.357971,376.844360 729.122437,354.076447 713.379700,332.842743 
	C711.796448,330.707275 710.120789,328.640350 708.284424,326.279999 
	C714.408386,319.938690 720.468201,313.663849 726.475952,307.442902 
	C761.455933,335.563324 770.151367,403.090363 725.914795,440.832642 
	C720.380432,434.630798 714.730347,428.299316 708.957397,421.682800 
z"/>
<path fill="#F8D5AF" opacity="1.000000" stroke="none" 
	d="
M182.522659,678.889893 
	C182.579498,679.943665 182.283997,681.026428 181.719391,683.095276 
	C190.985092,680.070679 199.544693,677.349243 208.055542,674.483032 
	C225.429901,668.632019 242.791946,662.743652 260.131409,656.790161 
	C269.640900,653.525024 279.058044,649.989197 288.581604,646.766907 
	C301.235779,642.485413 313.976288,638.459290 326.636749,634.195862 
	C338.397064,630.235657 350.101685,626.109985 361.829468,622.053284 
	C373.645416,617.966125 385.482330,613.938110 397.268524,609.766907 
	C409.399170,605.473633 421.472290,601.018127 433.584991,596.673889 
	C440.372223,594.239624 447.281708,592.115051 453.951202,589.397217 
	C457.096741,588.115417 460.018463,586.021729 462.663635,583.838013 
	C466.360657,580.785950 469.704224,577.305786 473.535095,573.974487 
	C468.249115,581.185730 463.264221,588.385559 453.340179,591.468628 
	C433.351776,597.678406 413.875305,605.523254 394.127380,612.523560 
	C372.800629,620.083435 351.452148,627.587585 330.029938,634.871521 
	C282.125977,651.159424 234.172531,667.301941 186.232254,683.482971 
	C181.448807,685.097473 176.617279,686.569458 171.808075,688.107666 
	C171.532150,687.582642 171.256226,687.057678 170.980301,686.532715 
	C174.710312,683.994812 178.440323,681.456848 182.522659,678.889893 
z"/>
<path fill="#F8D5AF" opacity="1.000000" stroke="none" 
	d="
M499.106873,544.446289 
	C498.885742,543.832581 498.743927,542.951233 499.117584,542.551270 
	C505.864014,535.329102 504.163208,526.512756 504.192902,517.856934 
	C504.268738,495.777649 504.774872,473.700043 505.056763,451.621124 
	C505.147095,444.547729 504.513733,443.971008 497.387756,443.966492 
	C473.778107,443.951508 450.167908,443.878204 426.559448,444.041229 
	C423.729156,444.060730 420.907959,445.394470 417.699738,446.138977 
	C419.954285,444.826965 422.579926,442.365814 425.230774,442.338440 
	C450.724823,442.074829 476.223419,442.295258 501.719788,442.174164 
	C505.727631,442.155121 506.952850,443.618103 506.928253,447.411591 
	C506.744720,475.740814 506.634003,504.070740 506.619019,532.400513 
	C506.616058,537.985168 502.385345,540.744507 499.106873,544.446289 
z"/>
<path fill="#F8D5AF" opacity="1.000000" stroke="none" 
	d="
M234.731552,583.175842 
	C230.830276,586.697327 226.658127,590.321533 222.309814,593.720459 
	C218.715515,596.530090 214.913101,599.073425 211.340881,602.519043 
	C233.422607,604.146973 255.494598,601.916260 277.422333,603.532227 
	C277.657318,604.154053 277.892273,604.775879 278.127258,605.397705 
	C275.251221,607.915283 272.480133,610.567261 269.471985,612.915588 
	C265.897858,615.705811 262.119934,618.234985 258.048767,620.793457 
	C261.650391,617.264038 265.708832,613.899597 269.568604,610.320984 
	C270.653564,609.315063 271.155212,607.680054 271.924438,606.333618 
	C270.435822,605.846741 268.943970,604.927246 267.459198,604.938599 
	C248.515411,605.083130 229.572830,605.381897 210.629272,605.574951 
	C208.590164,605.595703 206.546799,605.199097 203.156464,604.862000 
	C214.348297,597.091736 224.366379,590.136414 234.731552,583.175842 
z"/>
<path fill="#F8D5AF" opacity="1.000000" stroke="none" 
	d="
M314.529541,523.883911 
	C309.160217,528.749939 303.611298,533.859253 297.670227,538.462463 
	C289.255219,544.982544 280.597290,551.193848 271.950378,557.407959 
	C267.710205,560.455261 263.261078,563.211792 258.550476,566.109253 
	C260.896912,563.759094 263.458008,561.209839 266.326721,559.073669 
	C277.721008,550.589050 289.212158,542.234558 300.665680,533.829468 
	C305.171021,530.523254 309.671936,527.210876 314.529541,523.883911 
z"/>
<path fill="#F8D5AF" opacity="1.000000" stroke="none" 
	d="
M362.730835,487.160950 
	C360.247528,489.820618 357.585754,492.693024 354.559784,495.109314 
	C344.610870,503.053711 334.585846,510.906067 324.462494,518.626526 
	C321.745453,520.698669 318.574463,522.175476 315.246338,523.894348 
	C320.737091,519.058044 326.467926,514.089294 332.477997,509.485016 
	C342.351929,501.920593 352.406891,494.592499 362.730835,487.160950 
z"/>
<path fill="#F8D5AF" opacity="1.000000" stroke="none" 
	d="
M247.751419,628.217163 
	C245.819122,630.514648 243.739532,633.060730 241.231125,635.071960 
	C231.841888,642.600403 222.327850,649.973877 212.804596,657.332947 
	C212.086411,657.887939 210.928345,657.873779 209.613586,658.132446 
	C210.213852,657.036804 211.019989,655.728699 212.160767,654.860229 
	C223.878464,645.939392 235.650406,637.089722 247.751419,628.217163 
z"/>
<path fill="#F8D5AF" opacity="1.000000" stroke="none" 
	d="
M415.735413,447.191650 
	C412.875580,450.097961 409.832001,453.217712 406.441437,455.898621 
	C398.208679,462.408234 389.839050,468.746185 381.456970,475.063629 
	C380.315796,475.923737 378.787476,476.270142 377.063385,476.790405 
	C384.043121,470.824615 391.307220,464.804810 398.783173,459.060730 
	C404.173950,454.918823 409.846802,451.143982 415.735413,447.191650 
z"/>
<path fill="#F8D5AF" opacity="1.000000" stroke="none" 
	d="
M477.508636,570.137634 
	C483.935852,561.861572 490.683289,553.485474 497.784882,545.113403 
	C496.328094,547.845642 494.754547,550.773865 492.658386,553.261719 
	C487.850677,558.967834 482.788025,564.459106 477.508636,570.137634 
z"/>
<path fill="#F8D5AF" opacity="1.000000" stroke="none" 
	d="
M208.770233,658.229614 
	C206.949432,660.416260 204.981888,662.846191 202.580597,664.720337 
	C196.352814,669.580994 189.934174,674.197083 183.234055,678.881897 
	C185.747101,676.219238 188.473770,673.403564 191.519821,670.991150 
	C197.054962,666.607483 202.780075,662.463684 208.770233,658.229614 
z"/>
<path fill="#F8D5AF" opacity="1.000000" stroke="none" 
	d="
M257.755066,566.193359 
	C253.560760,570.023865 249.099579,573.952393 244.446411,577.638489 
	C241.961929,579.606628 239.145966,581.156372 236.100983,582.826172 
	C242.951004,577.235107 250.179657,571.712830 257.755066,566.193359 
z"/>
<path fill="#F8D5AF" opacity="1.000000" stroke="none" 
	d="
M375.721100,477.141235 
	C372.193268,480.377380 368.319000,483.616364 364.075989,486.801758 
	C367.596344,483.546783 371.485535,480.345398 375.721100,477.141235 
z"/>
<path fill="#F8D5AF" opacity="1.000000" stroke="none" 
	d="
M256.721802,621.131470 
	C254.541138,623.387207 252.014542,625.651306 249.110870,627.842712 
	C251.281158,625.559937 253.828506,623.349915 256.721802,621.131470 
z"/>
<path fill="#E67737" opacity="1.000000" stroke="none" 
	d="
M452.154633,695.841736 
	C448.116333,690.323181 444.188568,685.161743 440.549072,679.804504 
	C439.864990,678.797485 439.691895,676.453186 440.371185,675.671204 
	C444.710449,670.676086 449.354065,665.945435 454.590607,660.392761 
	C470.356018,682.369934 485.864746,703.989258 501.661957,726.010803 
	C492.387634,726.010803 483.867157,726.143005 475.360443,725.860046 
	C474.163605,725.820251 472.858612,723.881714 471.902008,722.599426 
	C465.345184,713.809814 458.867859,704.960938 452.154633,695.841736 
z"/>
<path fill="#D08352" opacity="1.000000" stroke="none" 
	d="
M576.992981,349.888672 
	C582.213135,349.885345 586.934814,349.885345 591.656433,349.885345 
	C591.838623,350.376648 592.020752,350.867950 592.202881,351.359253 
	C585.442993,357.571655 578.683105,363.784058 572.137695,369.799408 
	C565.482788,363.053711 559.173767,356.658630 552.498169,349.891998 
	C560.428284,349.891998 568.461365,349.891998 576.992981,349.888672 
M561.715027,357.798950 
	C564.028809,359.926758 566.250916,362.169342 568.700134,364.127716 
	C569.725708,364.947784 571.861084,365.968933 572.423035,365.530060 
	C577.223633,361.780914 581.778687,357.717316 586.407227,353.747803 
	C586.070496,353.442902 585.733826,353.137970 585.397095,352.833069 
	C576.492188,352.833069 567.587219,352.833069 557.922852,352.833069 
	C559.480652,354.945496 560.351990,356.127167 561.715027,357.798950 
z"/>
<path fill="#EF722A" opacity="1.000000" stroke="none" 
	d="
M561.469238,357.553894 
	C560.351990,356.127167 559.480652,354.945496 557.922852,352.833069 
	C567.587219,352.833069 576.492188,352.833069 585.397095,352.833069 
	C585.733826,353.137970 586.070496,353.442902 586.407227,353.747803 
	C581.778687,357.717316 577.223633,361.780914 572.423035,365.530060 
	C571.861084,365.968933 569.725708,364.947784 568.700134,364.127716 
	C566.250916,362.169342 564.028809,359.926758 561.469238,357.553894 
z"/>
</svg>