<?xml version="1.0" encoding="UTF-8" standalone="no"?>
<svg
   version="1.1"
   id="Layer_1"
   x="0px"
   y="0px"
   width="100%"
   viewBox="0 0 1168 880"
   enable-background="new 0 0 1168 880"
   xml:space="preserve"
   sodipodi:docname="RavenTag_Logo_EIVP.svg"
   inkscape:export-filename="RavenTag_Logo_EIVP.jpg"
   inkscape:export-xdpi="96"
   inkscape:export-ydpi="96"
   inkscape:version="1.4.3 (1:1.4.3+202512261035+0d15f75042)"
   xmlns:inkscape="http://www.inkscape.org/namespaces/inkscape"
   xmlns:sodipodi="http://sodipodi.sourceforge.net/DTD/sodipodi-0.dtd"
   xmlns="http://www.w3.org/2000/svg"
   xmlns:svg="http://www.w3.org/2000/svg"><defs
   id="defs23" /><sodipodi:namedview
   id="namedview23"
   pagecolor="#ffffff"
   bordercolor="#000000"
   borderopacity="0.25"
   inkscape:showpageshadow="2"
   inkscape:pageopacity="0.0"
   inkscape:pagecheckerboard="0"
   inkscape:deskcolor="#d1d1d1"
   inkscape:zoom="1.2227273"
   inkscape:cx="584.34944"
   inkscape:cy="440"
   inkscape:window-width="2560"
   inkscape:window-height="1284"
   inkscape:window-x="0"
   inkscape:window-y="0"
   inkscape:window-maximized="1"
   inkscape:current-layer="Layer_1" />
<path
   fill="#FEFEFD"
   opacity="1.000000"
   stroke="none"
   d=" M798.000000,881.000000   C532.032349,881.000000 266.564758,881.000000 1.048567,881.000000   C1.048567,587.734802 1.048567,294.469635 1.048567,1.102226   C390.217682,1.102226 779.435364,1.102226 1168.826538,1.102226   C1168.826538,294.333252 1168.826538,587.666626 1168.826538,881.000000   C1045.469482,881.000000 921.984741,881.000000 798.000000,881.000000  M629.944519,673.888672   C646.013000,664.347412 660.062134,671.978516 660.643433,690.564209   C660.653870,690.897278 660.653015,691.230774 660.652527,691.564026   C660.632446,705.727966 660.605469,719.891968 660.602173,734.055908   C660.601929,735.301880 660.754944,736.547852 660.825012,737.615417   C669.525696,737.615417 677.778625,737.615417 686.255615,737.615417   C686.255615,721.663879 686.279480,706.029114 686.238464,690.394470   C686.228394,686.565247 686.762329,682.514465 685.717346,678.955688   C683.779846,672.357605 682.000488,665.246033 678.141907,659.765808   C666.139587,642.718994 638.563110,644.973816 625.384216,654.370178   C624.078003,655.219238 622.771790,656.068298 620.729370,657.395874   C620.729370,653.998596 620.729370,651.448914 620.729370,648.611328   C612.314819,648.611328 604.409241,648.611328 596.328613,648.611328   C596.328613,678.397949 596.328613,707.919067 596.328613,737.465332   C604.979492,737.465332 613.322144,737.465332 621.986572,737.465332   C621.986572,722.349915 622.029419,707.717957 621.968506,693.086426   C621.938049,685.778259 624.036804,679.361938 629.944519,673.888672  M400.390747,482.805908   C442.872772,468.653503 485.388397,454.600189 527.796936,440.230835   C533.469421,438.308807 539.759521,435.917419 543.768250,431.800507   C556.534729,418.689484 568.412170,404.707520 580.475952,390.924530   C581.875732,389.325256 583.019714,386.875122 583.050903,384.800964   C583.401245,361.488434 583.558167,338.172485 583.652588,314.856995   C583.678284,308.522858 583.099243,307.986908 576.786377,307.968201   C556.457397,307.907898 536.126160,307.812836 515.801086,308.102264   C512.573669,308.148163 508.882355,309.414551 506.235474,311.288818   C473.353180,334.572632 440.626678,358.076477 407.855743,381.517639   C378.191498,402.736633 348.514343,423.937622 318.870331,445.184845   C316.780182,446.682953 314.916412,448.496979 312.947388,450.164124   C313.084381,450.528961 313.221375,450.893799 313.358368,451.258636   C332.603760,451.258636 351.849152,451.258636 372.347778,451.258636   C342.310394,474.552734 313.367401,496.998108 284.424408,519.443481   C284.807587,520.098877 285.190735,520.754211 285.573883,521.409546   C323.598602,508.628571 361.623322,495.847595 400.390747,482.805908  M513.528503,570.971191   C551.676880,570.971191 589.825317,570.971191 629.248962,570.971191   C626.895996,567.674316 625.346863,565.573914 623.871338,563.423035   C619.788696,557.471680 614.497437,554.382751 606.952942,555.006409   C601.330139,555.471252 595.621948,555.140442 589.968323,554.845886   C588.338379,554.761047 586.141907,554.029053 585.261780,552.822815   C574.380066,537.908447 563.694153,522.851257 552.975525,507.855743   C553.805481,506.822845 554.289795,506.146881 554.846802,505.537323   C587.429077,469.882294 619.974854,434.193726 652.675598,398.647644   C655.696411,395.363953 656.252686,393.317474 653.180176,389.570740   C638.612122,371.806244 624.441956,353.716095 610.012451,335.836853   C605.941772,330.792969 601.472961,326.070404 597.186707,321.200470   C596.783813,321.378448 596.380920,321.556458 595.978027,321.734436   C595.978027,324.858978 595.963318,327.983612 595.980530,331.108063   C596.081360,349.439117 596.109863,367.771271 596.354309,386.100464   C596.411987,390.424530 594.874756,393.616455 592.026062,396.793549   C580.914124,409.186462 570.131042,421.873993 559.052856,434.297882   C553.145569,440.922668 548.025879,448.201630 538.508118,450.930511   C521.070801,455.930115 503.854614,461.724579 486.634552,467.453094   C449.349731,479.856567 412.103210,492.376160 374.887817,504.986420   C369.419739,506.839264 363.507019,508.506714 358.994965,511.865265   C335.617249,529.266235 312.628784,547.190063 289.501465,564.927490   C286.377960,567.323059 283.236328,569.695068 279.276031,572.706970   C283.912415,573.943481 287.389801,575.040405 290.940521,575.790039   C311.811737,580.195923 332.465485,578.083130 352.718109,572.518982   C360.937378,570.260864 369.797821,567.380615 376.245392,562.162476   C399.147858,543.627197 421.088928,523.906799 443.550507,504.819305   C445.620697,503.060089 448.787598,501.744904 451.469421,501.701019   C462.127319,501.526764 472.806854,501.719055 483.449432,502.302948   C485.827271,502.433350 488.808472,504.148590 490.282990,506.074890   C498.480469,516.783752 506.318268,527.768738 514.239014,538.688354   C517.901123,543.736877 521.472107,548.851501 525.845032,555.006836   C512.865662,553.771606 507.166199,561.421814 500.894745,571.009766   C505.710083,571.009766 509.126099,571.009766 513.528503,570.971191  M537.238831,277.717773   C532.971069,283.136261 528.703308,288.554718 523.910950,294.639252   C526.245544,294.773346 527.517822,294.903717 528.790833,294.910980   C548.787415,295.024963 568.786377,295.000427 588.777893,295.375732   C591.359558,295.424194 594.606079,296.884552 596.337036,298.788666   C602.488159,305.555206 608.195312,312.733734 613.927673,319.870972   C628.110107,337.528961 642.223389,355.242523 656.322266,372.967316   C657.105347,373.951752 657.506531,375.240021 658.085449,376.386871   C658.697205,376.003998 659.309021,375.621155 659.920776,375.238281   C659.920776,373.474091 659.920044,371.709900 659.920959,369.945709   C659.932922,346.115997 659.849304,322.285400 660.062012,298.457489   C660.093506,294.932281 660.865051,291.084015 662.446350,287.970367   C665.832153,281.303711 669.698608,274.831757 673.940674,268.674408   C675.566284,266.314819 678.528442,264.059875 681.268860,263.422638   C694.722412,260.294220 708.296204,257.675201 721.847778,254.978333   C730.742615,253.208206 739.671936,251.611633 750.147095,249.644058   C745.300842,244.827271 741.682983,240.476105 737.332031,237.058105   C727.008301,228.947952 714.637512,225.548187 701.898682,225.174500   C686.459839,224.721603 672.348938,222.664230 661.860046,209.634415   C658.258362,205.160248 652.503906,204.274384 646.767578,204.372864   C631.608459,204.633148 616.447327,204.882233 601.286865,204.894806   C596.704773,204.898605 593.289062,206.499695 590.518555,210.024109   C572.919739,232.412140 555.288696,254.774872 537.238831,277.717773  M237.385345,622.054382   C219.926804,622.054382 202.468277,622.054382 184.628571,622.054382   C184.628571,660.819214 184.628571,699.181213 184.628571,737.468689   C193.701859,737.468689 202.432053,737.468689 211.820374,737.468689   C211.820374,726.555542 211.820374,716.017212 211.820374,705.267212   C218.981644,705.267212 225.483704,705.077942 231.961365,705.391785   C233.721130,705.476990 236.010040,706.648376 237.022934,708.061707   C241.382309,714.144165 246.036057,720.169434 249.306686,726.841003   C253.773056,735.951721 260.048035,739.727478 270.160950,738.040039   C274.883423,737.252136 279.846344,737.905273 285.613953,737.905273   C277.025238,724.658264 269.110413,712.450684 261.158966,700.186584   C261.829803,699.740479 262.209015,699.418152 262.642883,699.209778   C288.232819,686.924194 289.605316,651.311829 272.998413,635.399109   C263.272736,626.080017 251.242599,623.021240 237.385345,622.054382  M893.471680,185.021881   C883.751648,160.293213 870.501526,137.940582 851.468079,121.185760   C845.162231,126.560211 839.254700,131.595154 833.163574,136.786621   C863.875732,167.954498 879.940918,204.502914 879.959778,247.389023   C879.978577,290.180176 864.929016,327.032990 833.397827,357.037598   C839.333862,363.260315 844.890930,369.085693 850.436523,374.899078   C899.338562,329.989014 918.483643,253.344513 893.471680,185.021881  M573.296814,666.221802   C561.577454,650.388550 545.591064,645.090698 526.697876,648.046631   C509.419586,650.749878 496.580048,660.084778 490.766479,676.773926   C484.713318,694.150879 486.775696,710.803162 500.118225,724.550293   C513.632996,738.474915 530.765625,740.898315 549.035889,738.315613   C559.019043,736.904419 567.711853,732.783569 574.547485,724.404663   C570.032104,719.432739 565.617065,714.571289 561.241882,709.753784   C540.676270,724.003357 516.649475,719.455688 514.701660,700.558105   C536.766357,700.558105 558.769287,700.558105 580.810852,700.558105   C581.750549,688.110535 580.276550,676.921326 573.296814,666.221802  M369.470947,737.914734   C372.716583,737.914734 375.962219,737.914734 379.389832,737.914734   C379.389832,724.070129 379.437439,710.942322 379.368866,697.815186   C379.336731,691.658569 379.497131,685.458130 378.838531,679.356628   C377.507507,667.025452 372.190918,656.814636 360.184753,651.973755   C354.137756,649.535706 347.421967,648.009033 340.914368,647.611145   C325.884735,646.692200 311.495728,649.326599 298.438751,658.609741   C301.926239,664.665161 305.258850,670.451599 308.695312,676.418396   C317.640442,669.862000 326.876953,667.249573 337.066315,667.977173   C347.384857,668.713989 353.133820,674.801147 353.080536,685.609314   C345.996155,685.609314 338.876953,685.312500 331.795288,685.700867   C325.863251,686.026184 319.750275,686.402466 314.118378,688.092407   C304.858612,690.870911 297.873993,696.842712 296.075928,706.873413   C294.273743,716.927246 297.302826,725.536621 305.328827,732.271851   C316.548798,741.687561 340.179596,741.515869 351.033569,731.783936   C352.213470,730.725952 353.363556,729.634827 355.217224,727.921631   C355.561584,731.791687 355.827209,734.776978 356.106445,737.915344   C360.527191,737.915344 364.507446,737.915344 369.470947,737.914734  M966.579468,748.014832   C967.551636,743.642944 969.297241,739.283813 969.369507,734.897095   C969.817078,707.742371 969.913513,680.581482 969.994629,653.422302   C969.997925,652.312866 968.893799,650.479919 967.946899,650.200745   C959.617249,647.745300 956.360229,650.172424 956.034668,658.733643   C956.000366,659.634888 955.860840,660.532104 955.743103,661.698975   C933.962891,645.405273 907.773315,645.406738 892.699280,661.379822   C878.049805,676.902954 876.543396,702.270020 889.513123,718.245239   C895.789490,725.976013 903.732300,731.383789 913.723694,733.032959   C928.923401,735.541748 943.214050,733.960144 955.927673,721.274353   C955.308960,728.266174 955.109436,733.742371 954.281372,739.121887   C953.047791,747.135864 948.060120,752.861145 940.505615,754.678711   C933.550781,756.351990 925.857361,757.310059 918.916809,756.110352   C909.626831,754.504272 900.748901,750.514771 891.173828,747.378357   C889.743042,749.843018 887.777405,753.229126 885.827698,756.587708   C886.629761,757.426392 887.033447,757.963745 887.546326,758.359619   C888.467529,759.070862 889.433716,759.729675 890.416748,760.354309   C904.670410,769.409485 920.448364,770.474426 936.655212,769.034058   C950.292603,767.822021 960.770081,761.866394 966.579468,748.014832  M816.067749,299.484680   C810.211365,307.614288 804.355042,315.743896 798.249451,324.219421   C801.966125,327.854980 805.994141,331.580078 809.770386,335.545074   C814.161377,340.155487 814.213135,340.242432 818.673523,335.740967   C839.181335,315.044189 849.976868,289.948273 853.293701,261.167114   C856.824158,230.532669 849.653687,202.601944 832.834839,177.127975   C827.778442,169.469482 821.219971,162.802719 814.991028,155.246613   C809.497070,160.565308 805.077942,165.074615 800.392517,169.287827   C797.817566,171.603394 797.760376,173.137054 800.219910,175.723465   C809.585571,185.572220 817.609009,196.575592 822.474548,209.240723   C834.250061,239.893005 832.229004,269.902924 816.067749,299.484680  M422.166931,671.195068   C419.667175,664.675476 417.264618,658.115417 414.585083,651.670532   C414.053314,650.391541 412.487793,648.690247 411.350128,648.652344   C403.437683,648.389099 395.512390,648.513367 386.820007,648.513367   C390.720184,658.212341 394.292603,667.103882 397.870819,675.993164   C405.629486,695.267761 413.338348,714.562988 421.245117,733.776672   C421.927155,735.434143 423.876495,737.664978 425.324188,737.731384   C433.603516,738.110962 441.909180,737.915710 450.290771,737.915710   C462.526337,708.149475 474.673248,678.598999 487.153595,648.237305   C480.059235,648.237305 473.929077,648.492920 467.832367,648.151367   C463.453003,647.906067 461.401337,649.580994 459.812225,653.634033   C452.655884,671.886292 445.148010,690.000732 437.424255,709.008118   C432.235931,696.117310 427.361725,684.007019 422.166931,671.195068  M788.330322,707.230652   C786.650940,721.597473 790.964905,730.906189 803.847656,735.661133   C817.396118,740.661804 831.041138,739.695190 843.372559,731.004639   C844.487488,730.218933 845.588318,729.413025 847.285217,728.192566   C847.739624,731.796082 848.079956,734.495483 848.473816,737.618652   C852.117554,737.618652 855.453247,737.869995 858.709961,737.473083   C859.754456,737.345764 861.403992,735.502991 861.400757,734.449280   C861.339661,714.625305 861.662842,694.770264 860.604492,674.991333   C860.051758,664.661743 854.248169,656.480530 843.926697,652.657104   C829.091797,647.161865 814.306396,647.915466 800.296143,654.891052   C787.444153,661.289795 789.415283,660.530884 796.512878,671.125977   C796.666931,671.356018 797.088806,671.406677 797.643005,671.657349   C806.573547,663.803223 817.244690,661.082458 829.046509,662.036072   C841.763184,663.063538 849.660950,674.393311 846.194885,687.312500   C844.342224,687.312500 842.371582,687.274231 840.402832,687.319092   C831.413330,687.523743 822.352173,687.117249 813.453247,688.129883   C801.980103,689.435303 792.152954,693.924988 788.330322,707.230652  M745.935608,640.694702   C745.249207,636.459351 746.733521,634.401367 751.311890,634.973328   C753.440979,635.239258 755.634888,634.971619 757.799438,634.970215   C766.911438,634.964417 776.023376,634.967773 785.446167,634.967773   C785.446167,630.364197 785.446167,626.351929 785.446167,622.086914   C769.175354,622.086914 753.372131,622.088806 737.568970,622.086304   C723.748718,622.084167 709.927551,622.003540 696.109497,622.175598   C694.569214,622.194763 691.899780,623.443054 691.726868,624.457642   C691.163757,627.760742 691.515991,631.219849 691.515991,635.201782   C705.215210,635.201782 717.926208,635.201782 731.300903,635.201782   C731.300903,669.664124 731.300903,703.526062 731.300903,737.415527   C736.562134,737.415527 741.131531,737.415527 745.938599,737.415527   C745.938599,705.227661 745.938599,673.443726 745.935608,640.694702  M778.079834,259.282166   C775.905273,270.894287 769.752380,280.479950 762.057068,289.499207   C767.694214,294.838318 772.980591,299.845154 778.234741,304.821503   C812.435242,278.989777 811.802490,215.982147 778.706604,192.507309   C773.289246,197.752106 767.968018,202.903870 762.424316,208.270996   C775.926636,222.206528 781.235596,239.026672 778.079834,259.282166  z"
   id="path1" />
<path
   fill="#EA7734"
   opacity="1.000000"
   stroke="none"
   d=" M400.019409,482.936279   C361.623322,495.847595 323.598602,508.628571 285.573883,521.409546   C285.190735,520.754211 284.807587,520.098877 284.424408,519.443481   C313.367401,496.998108 342.310394,474.552734 372.347778,451.258636   C351.849152,451.258636 332.603760,451.258636 313.358368,451.258636   C313.221375,450.893799 313.084381,450.528961 312.947388,450.164124   C314.916412,448.496979 316.780182,446.682953 318.870331,445.184845   C348.514343,423.937622 378.191498,402.736633 407.855743,381.517639   C440.626678,358.076477 473.353180,334.572632 506.235474,311.288818   C508.882355,309.414551 512.573669,308.148163 515.801086,308.102264   C536.126160,307.812836 556.457397,307.907898 576.786377,307.968201   C583.099243,307.986908 583.678284,308.522858 583.652588,314.856995   C583.558167,338.172485 583.401245,361.488434 583.050903,384.800964   C583.019714,386.875122 581.875732,389.325256 580.475952,390.924530   C568.412170,404.707520 556.534729,418.689484 543.768250,431.800507   C539.759521,435.917419 533.469421,438.308807 527.796936,440.230835   C485.388397,454.600189 442.872772,468.653503 400.019409,482.936279  z"
   id="path2" />
<path
   fill="#E87837"
   opacity="1.000000"
   stroke="none"
   d=" M513.035278,570.990479   C509.126099,571.009766 505.710083,571.009766 500.894745,571.009766   C507.166199,561.421814 512.865662,553.771606 525.845032,555.006836   C521.472107,548.851501 517.901123,543.736877 514.239014,538.688354   C506.318268,527.768738 498.480469,516.783752 490.282990,506.074890   C488.808472,504.148590 485.827271,502.433350 483.449432,502.302948   C472.806854,501.719055 462.127319,501.526764 451.469421,501.701019   C448.787598,501.744904 445.620697,503.060089 443.550507,504.819305   C421.088928,523.906799 399.147858,543.627197 376.245392,562.162476   C369.797821,567.380615 360.937378,570.260864 352.718109,572.518982   C332.465485,578.083130 311.811737,580.195923 290.940521,575.790039   C287.389801,575.040405 283.912415,573.943481 279.276031,572.706970   C283.236328,569.695068 286.377960,567.323059 289.501465,564.927490   C312.628784,547.190063 335.617249,529.266235 358.994965,511.865265   C363.507019,508.506714 369.419739,506.839264 374.887817,504.986420   C412.103210,492.376160 449.349731,479.856567 486.634552,467.453094   C503.854614,461.724579 521.070801,455.930115 538.508118,450.930511   C548.025879,448.201630 553.145569,440.922668 559.052856,434.297882   C570.131042,421.873993 580.914124,409.186462 592.026062,396.793549   C594.874756,393.616455 596.411987,390.424530 596.354309,386.100464   C596.109863,367.771271 596.081360,349.439117 595.980530,331.108063   C595.963318,327.983612 595.978027,324.858978 595.978027,321.734436   C596.380920,321.556458 596.783813,321.378448 597.186707,321.200470   C601.472961,326.070404 605.941772,330.792969 610.012451,335.836853   C624.441956,353.716095 638.612122,371.806244 653.180176,389.570740   C656.252686,393.317474 655.696411,395.363953 652.675598,398.647644   C619.974854,434.193726 587.429077,469.882294 554.846802,505.537323   C554.289795,506.146881 553.805481,506.822845 552.975525,507.855743   C563.694153,522.851257 574.380066,537.908447 585.261780,552.822815   C586.141907,554.029053 588.338379,554.761047 589.968323,554.845886   C595.621948,555.140442 601.330139,555.471252 606.952942,555.006409   C614.497437,554.382751 619.788696,557.471680 623.871338,563.423035   C625.346863,565.573914 626.895996,567.674316 629.248962,570.971191   C589.825317,570.971191 551.676880,570.971191 513.035278,570.990479  M550.432800,531.041321   C542.830933,520.398926 535.229065,509.756592 527.537598,498.988770   C523.040405,503.503326 518.687195,507.873291 514.175537,512.402405   C523.588013,525.446777 532.887268,538.392151 542.280090,551.269409   C543.308838,552.679871 544.825500,554.666626 546.199402,554.736145   C553.176880,555.089722 560.181885,554.899109 567.768738,554.899109   C561.772949,546.640747 556.318298,539.127869 550.432800,531.041321  z"
   id="path3" />
<path
   fill="#E97736"
   opacity="1.000000"
   stroke="none"
   d=" M537.453552,277.431854   C555.288696,254.774872 572.919739,232.412140 590.518555,210.024109   C593.289062,206.499695 596.704773,204.898605 601.286865,204.894806   C616.447327,204.882233 631.608459,204.633148 646.767578,204.372864   C652.503906,204.274384 658.258362,205.160248 661.860046,209.634415   C672.348938,222.664230 686.459839,224.721603 701.898682,225.174500   C714.637512,225.548187 727.008301,228.947952 737.332031,237.058105   C741.682983,240.476105 745.300842,244.827271 750.147095,249.644058   C739.671936,251.611633 730.742615,253.208206 721.847778,254.978333   C708.296204,257.675201 694.722412,260.294220 681.268860,263.422638   C678.528442,264.059875 675.566284,266.314819 673.940674,268.674408   C669.698608,274.831757 665.832153,281.303711 662.446350,287.970367   C660.865051,291.084015 660.093506,294.932281 660.062012,298.457489   C659.849304,322.285400 659.932922,346.115997 659.920959,369.945709   C659.920044,371.709900 659.920776,373.474091 659.920776,375.238281   C659.309021,375.621155 658.697205,376.003998 658.085449,376.386871   C657.506531,375.240021 657.105347,373.951752 656.322266,372.967316   C642.223389,355.242523 628.110107,337.528961 613.927673,319.870972   C608.195312,312.733734 602.488159,305.555206 596.337036,298.788666   C594.606079,296.884552 591.359558,295.424194 588.777893,295.375732   C568.786377,295.000427 548.787415,295.024963 528.790833,294.910980   C527.517822,294.903717 526.245544,294.773346 523.910950,294.639252   C528.703308,288.554718 532.971069,283.136261 537.453552,277.431854  M629.094666,233.414124   C633.421570,236.989029 637.748413,240.563934 642.475647,244.469635   C648.018433,239.541138 653.372925,234.780121 659.604309,229.239349   C647.220337,229.239349 636.146545,229.239349 624.322144,229.239349   C626.141541,230.824387 627.356689,231.882980 629.094666,233.414124  z"
   id="path4" />
<path
   fill="#3A464F"
   opacity="1.000000"
   stroke="none"
   d=" M237.866119,622.071899   C251.242599,623.021240 263.272736,626.080017 272.998413,635.399109   C289.605316,651.311829 288.232819,686.924194 262.642883,699.209778   C262.209015,699.418152 261.829803,699.740479 261.158966,700.186584   C269.110413,712.450684 277.025238,724.658264 285.613953,737.905273   C279.846344,737.905273 274.883423,737.252136 270.160950,738.040039   C260.048035,739.727478 253.773056,735.951721 249.306686,726.841003   C246.036057,720.169434 241.382309,714.144165 237.022934,708.061707   C236.010040,706.648376 233.721130,705.476990 231.961365,705.391785   C225.483704,705.077942 218.981644,705.267212 211.820374,705.267212   C211.820374,716.017212 211.820374,726.555542 211.820374,737.468689   C202.432053,737.468689 193.701859,737.468689 184.628571,737.468689   C184.628571,699.181213 184.628571,660.819214 184.628571,622.054382   C202.468277,622.054382 219.926804,622.054382 237.866119,622.071899  M256.784027,660.983215   C254.883713,651.436218 249.726685,645.817078 239.269928,644.661560   C230.288864,643.669128 221.111206,644.455933 211.848373,644.455933   C211.848373,657.597168 211.848373,670.481628 211.848373,683.508606   C220.435150,683.508606 228.754120,683.968140 237.002792,683.402527   C249.882553,682.519409 256.684326,674.763672 256.784027,660.983215  z"
   id="path5" />
<path
   fill="#E67839"
   opacity="1.000000"
   stroke="none"
   d=" M893.645935,185.369186   C918.483643,253.344513 899.338562,329.989014 850.436523,374.899078   C844.890930,369.085693 839.333862,363.260315 833.397827,357.037598   C864.929016,327.032990 879.978577,290.180176 879.959778,247.389023   C879.940918,204.502914 863.875732,167.954498 833.163574,136.786621   C839.254700,131.595154 845.162231,126.560211 851.468079,121.185760   C870.501526,137.940582 883.751648,160.293213 893.645935,185.369186  z"
   id="path6" />
<path
   fill="#39454F"
   opacity="1.000000"
   stroke="none"
   d=" M573.504639,666.520142   C580.276550,676.921326 581.750549,688.110535 580.810852,700.558105   C558.769287,700.558105 536.766357,700.558105 514.701660,700.558105   C516.649475,719.455688 540.676270,724.003357 561.241882,709.753784   C565.617065,714.571289 570.032104,719.432739 574.547485,724.404663   C567.711853,732.783569 559.019043,736.904419 549.035889,738.315613   C530.765625,740.898315 513.632996,738.474915 500.118225,724.550293   C486.775696,710.803162 484.713318,694.150879 490.766479,676.773926   C496.580048,660.084778 509.419586,650.749878 526.697876,648.046631   C545.591064,645.090698 561.577454,650.388550 573.504639,666.520142  M555.661926,680.103455   C550.376343,669.405701 540.959290,664.858765 529.810303,667.621338   C520.725220,669.872498 514.350891,677.134583 514.512268,685.137451   C528.529053,685.137451 542.545227,685.137451 556.843994,685.137451   C556.455261,683.406494 556.168457,682.129150 555.661926,680.103455  z"
   id="path7" />
<path
   fill="#39454E"
   opacity="1.000000"
   stroke="none"
   d=" M368.979309,737.915039   C364.507446,737.915344 360.527191,737.915344 356.106445,737.915344   C355.827209,734.776978 355.561584,731.791687 355.217224,727.921631   C353.363556,729.634827 352.213470,730.725952 351.033569,731.783936   C340.179596,741.515869 316.548798,741.687561 305.328827,732.271851   C297.302826,725.536621 294.273743,716.927246 296.075928,706.873413   C297.873993,696.842712 304.858612,690.870911 314.118378,688.092407   C319.750275,686.402466 325.863251,686.026184 331.795288,685.700867   C338.876953,685.312500 345.996155,685.609314 353.080536,685.609314   C353.133820,674.801147 347.384857,668.713989 337.066315,667.977173   C326.876953,667.249573 317.640442,669.862000 308.695312,676.418396   C305.258850,670.451599 301.926239,664.665161 298.438751,658.609741   C311.495728,649.326599 325.884735,646.692200 340.914368,647.611145   C347.421967,648.009033 354.137756,649.535706 360.184753,651.973755   C372.190918,656.814636 377.507507,667.025452 378.838531,679.356628   C379.497131,685.458130 379.336731,691.658569 379.368866,697.815186   C379.437439,710.942322 379.389832,724.070129 379.389832,737.914734   C375.962219,737.914734 372.716583,737.914734 368.979309,737.915039  M324.018188,718.447449   C331.098236,723.636536 338.520538,722.736328 345.677429,719.037354   C351.874542,715.834351 354.417542,708.893738 353.096985,701.102661   C345.620026,701.102661 338.094452,700.566467 330.678375,701.238342   C321.397583,702.079102 318.114990,710.238220 324.018188,718.447449  z"
   id="path8" />
<path
   fill="#38444E"
   opacity="1.000000"
   stroke="none"
   d=" M626.059814,654.189636   C638.563110,644.973816 666.139587,642.718994 678.141907,659.765808   C682.000488,665.246033 683.779846,672.357605 685.717346,678.955688   C686.762329,682.514465 686.228394,686.565247 686.238464,690.394470   C686.279480,706.029114 686.255615,721.663879 686.255615,737.615417   C677.778625,737.615417 669.525696,737.615417 660.825012,737.615417   C660.754944,736.547852 660.601929,735.301880 660.602173,734.055908   C660.605469,719.891968 660.632446,705.727966 660.652527,691.564026   C660.653015,691.230774 660.653870,690.897278 660.643433,690.564209   C660.062134,671.978516 646.013000,664.347412 629.230713,673.998779   C627.306580,675.075012 625.398804,675.817200 625.004700,677.045227   C623.120483,682.916199 620.617432,688.855347 620.244690,694.888245   C619.506226,706.838440 619.846191,718.870300 620.118713,730.859802   C620.215881,735.133667 618.754456,736.624878 614.703308,736.041382   C613.887207,735.923889 613.038818,736.049133 612.206787,736.020264   C607.741638,735.865540 601.401428,737.398071 599.305603,735.086609   C596.898621,732.431946 598.026001,726.369263 598.008850,721.785522   C597.925293,699.460449 598.042725,677.134399 597.902100,654.809875   C597.879333,651.199341 598.743774,649.621277 602.622925,649.907104   C606.765686,650.212402 610.948730,650.017456 615.113220,649.965942   C617.833435,649.932312 619.005127,651.174744 619.060547,653.896240   C619.100403,655.851624 619.559937,657.798523 619.832275,659.749207   C620.371948,659.885742 620.911560,660.022339 621.451172,660.158936   C622.987366,658.169128 624.523621,656.179382 626.059814,654.189636  z"
   id="path9" />
<path
   fill="#E47A3C"
   opacity="1.000000"
   stroke="none"
   d=" M966.410645,748.357910   C960.770081,761.866394 950.292603,767.822021 936.655212,769.034058   C920.448364,770.474426 904.670410,769.409485 890.416748,760.354309   C889.433716,759.729675 888.467529,759.070862 887.546326,758.359619   C887.033447,757.963745 886.629761,757.426392 885.827698,756.587708   C887.777405,753.229126 889.743042,749.843018 891.173828,747.378357   C900.748901,750.514771 909.626831,754.504272 918.916809,756.110352   C925.857361,757.310059 933.550781,756.351990 940.505615,754.678711   C948.060120,752.861145 953.047791,747.135864 954.281372,739.121887   C955.109436,733.742371 955.308960,728.266174 955.927673,721.274353   C943.214050,733.960144 928.923401,735.541748 913.723694,733.032959   C903.732300,731.383789 895.789490,725.976013 889.513123,718.245239   C876.543396,702.270020 878.049805,676.902954 892.699280,661.379822   C907.773315,645.406738 933.962891,645.405273 955.743103,661.698975   C955.860840,660.532104 956.000366,659.634888 956.034668,658.733643   C956.360229,650.172424 959.617249,647.745300 967.946899,650.200745   C968.893799,650.479919 969.997925,652.312866 969.994629,653.422302   C969.913513,680.581482 969.817078,707.742371 969.369507,734.897095   C969.297241,739.283813 967.551636,743.642944 966.410645,748.357910  M920.017151,720.898438   C923.672424,720.949219 927.336182,721.180908 930.981201,721.011658   C937.740845,720.697693 943.531006,718.042053 948.188049,713.093689   C958.340271,702.306396 959.115356,684.380066 950.579895,673.149414   C939.908081,659.107666 919.308777,660.073914 909.398315,666.041321   C899.699097,671.881531 893.534363,684.801636 895.297791,695.406128   C897.584167,709.155457 905.273621,717.896301 920.017151,720.898438  z"
   id="path10" />
<path
   fill="#E67839"
   opacity="1.000000"
   stroke="none"
   d=" M816.242554,299.160126   C832.229004,269.902924 834.250061,239.893005 822.474548,209.240723   C817.609009,196.575592 809.585571,185.572220 800.219910,175.723465   C797.760376,173.137054 797.817566,171.603394 800.392517,169.287827   C805.077942,165.074615 809.497070,160.565308 814.991028,155.246613   C821.219971,162.802719 827.778442,169.469482 832.834839,177.127975   C849.653687,202.601944 856.824158,230.532669 853.293701,261.167114   C849.976868,289.948273 839.181335,315.044189 818.673523,335.740967   C814.213135,340.242432 814.161377,340.155487 809.770386,335.545074   C805.994141,331.580078 801.966125,327.854980 798.249451,324.219421   C804.355042,315.743896 810.211365,307.614288 816.242554,299.160126  z"
   id="path11" />
<path
   fill="#39454E"
   opacity="1.000000"
   stroke="none"
   d=" M422.327240,671.545898   C427.361725,684.007019 432.235931,696.117310 437.424255,709.008118   C445.148010,690.000732 452.655884,671.886292 459.812225,653.634033   C461.401337,649.580994 463.453003,647.906067 467.832367,648.151367   C473.929077,648.492920 480.059235,648.237305 487.153595,648.237305   C474.673248,678.598999 462.526337,708.149475 450.290771,737.915710   C441.909180,737.915710 433.603516,738.110962 425.324188,737.731384   C423.876495,737.664978 421.927155,735.434143 421.245117,733.776672   C413.338348,714.562988 405.629486,695.267761 397.870819,675.993164   C394.292603,667.103882 390.720184,658.212341 386.820007,648.513367   C395.512390,648.513367 403.437683,648.389099 411.350128,648.652344   C412.487793,648.690247 414.053314,650.391541 414.585083,651.670532   C417.264618,658.115417 419.667175,664.675476 422.327240,671.545898  z"
   id="path12" />
<path
   fill="#E37A3D"
   opacity="1.000000"
   stroke="none"
   d=" M788.457031,706.828003   C792.152954,693.924988 801.980103,689.435303 813.453247,688.129883   C822.352173,687.117249 831.413330,687.523743 840.402832,687.319092   C842.371582,687.274231 844.342224,687.312500 846.194885,687.312500   C849.660950,674.393311 841.763184,663.063538 829.046509,662.036072   C817.244690,661.082458 806.573547,663.803223 797.643005,671.657349   C797.088806,671.406677 796.666931,671.356018 796.512878,671.125977   C789.415283,660.530884 787.444153,661.289795 800.296143,654.891052   C814.306396,647.915466 829.091797,647.161865 843.926697,652.657104   C854.248169,656.480530 860.051758,664.661743 860.604492,674.991333   C861.662842,694.770264 861.339661,714.625305 861.400757,734.449280   C861.403992,735.502991 859.754456,737.345764 858.709961,737.473083   C855.453247,737.869995 852.117554,737.618652 848.473816,737.618652   C848.079956,734.495483 847.739624,731.796082 847.285217,728.192566   C845.588318,729.413025 844.487488,730.218933 843.372559,731.004639   C831.041138,739.695190 817.396118,740.661804 803.847656,735.661133   C790.964905,730.906189 786.650940,721.597473 788.457031,706.828003  M838.443481,697.826538   C829.500122,698.265991 820.463318,698.067993 811.644836,699.359680   C805.330078,700.284668 802.226440,705.620483 802.079895,712.249939   C801.949585,718.143433 804.850220,723.211304 810.663147,724.880005   C815.673706,726.318481 821.135498,727.331970 826.276306,726.939941   C838.316040,726.021851 852.621948,714.413330 846.148132,697.847534   C844.019958,697.847534 841.719849,697.847534 838.443481,697.826538  z"
   id="path13" />
<path
   fill="#E37B3E"
   opacity="1.000000"
   stroke="none"
   d=" M745.937134,641.177246   C745.938599,673.443726 745.938599,705.227661 745.938599,737.415527   C741.131531,737.415527 736.562134,737.415527 731.300903,737.415527   C731.300903,703.526062 731.300903,669.664124 731.300903,635.201782   C717.926208,635.201782 705.215210,635.201782 691.515991,635.201782   C691.515991,631.219849 691.163757,627.760742 691.726868,624.457642   C691.899780,623.443054 694.569214,622.194763 696.109497,622.175598   C709.927551,622.003540 723.748718,622.084167 737.568970,622.086304   C753.372131,622.088806 769.175354,622.086914 785.446167,622.086914   C785.446167,626.351929 785.446167,630.364197 785.446167,634.967773   C776.023376,634.967773 766.911438,634.964417 757.799438,634.970215   C755.634888,634.971619 753.440979,635.239258 751.311890,634.973328   C746.733521,634.401367 745.249207,636.459351 745.937134,641.177246  z"
   id="path14" />
<path
   fill="#E6793A"
   opacity="1.000000"
   stroke="none"
   d=" M778.153748,258.858368   C781.235596,239.026672 775.926636,222.206528 762.424316,208.270996   C767.968018,202.903870 773.289246,197.752106 778.706604,192.507309   C811.802490,215.982147 812.435242,278.989777 778.234741,304.821503   C772.980591,299.845154 767.694214,294.838318 762.057068,289.499207   C769.752380,280.479950 775.905273,270.894287 778.153748,258.858368  z"
   id="path15" />
<path
   fill="#485057"
   opacity="1.000000"
   stroke="none"
   d=" M625.722046,654.279907   C624.523621,656.179382 622.987366,658.169128 621.451172,660.158936   C620.911560,660.022339 620.371948,659.885742 619.832275,659.749207   C619.559937,657.798523 619.100403,655.851624 619.060547,653.896240   C619.005127,651.174744 617.833435,649.932312 615.113220,649.965942   C610.948730,650.017456 606.765686,650.212402 602.622925,649.907104   C598.743774,649.621277 597.879333,651.199341 597.902100,654.809875   C598.042725,677.134399 597.925293,699.460449 598.008850,721.785522   C598.026001,726.369263 596.898621,732.431946 599.305603,735.086609   C601.401428,737.398071 607.741638,735.865540 612.206787,736.020264   C613.038818,736.049133 613.887207,735.923889 614.703308,736.041382   C618.754456,736.624878 620.215881,735.133667 620.118713,730.859802   C619.846191,718.870300 619.506226,706.838440 620.244690,694.888245   C620.617432,688.855347 623.120483,682.916199 625.004700,677.045227   C625.398804,675.817200 627.306580,675.075012 628.895996,674.113770   C624.036804,679.361938 621.938049,685.778259 621.968506,693.086426   C622.029419,707.717957 621.986572,722.349915 621.986572,737.465332   C613.322144,737.465332 604.979492,737.465332 596.328613,737.465332   C596.328613,707.919067 596.328613,678.397949 596.328613,648.611328   C604.409241,648.611328 612.314819,648.611328 620.729370,648.611328   C620.729370,651.448914 620.729370,653.998596 620.729370,657.395874   C622.771790,656.068298 624.078003,655.219238 625.722046,654.279907  z"
   id="path16" />
<path
   fill="#FEF8F1"
   opacity="1.000000"
   stroke="none"
   d=" M550.648193,531.328125   C556.318298,539.127869 561.772949,546.640747 567.768738,554.899109   C560.181885,554.899109 553.176880,555.089722 546.199402,554.736145   C544.825500,554.666626 543.308838,552.679871 542.280090,551.269409   C532.887268,538.392151 523.588013,525.446777 514.175537,512.402405   C518.687195,507.873291 523.040405,503.503326 527.537598,498.988770   C535.229065,509.756592 542.830933,520.398926 550.648193,531.328125  z"
   id="path17" />
<path
   fill="#FEF4EA"
   opacity="1.000000"
   stroke="none"
   d=" M628.833252,233.177856   C627.356689,231.882980 626.141541,230.824387 624.322144,229.239349   C636.146545,229.239349 647.220337,229.239349 659.604309,229.239349   C653.372925,234.780121 648.018433,239.541138 642.475647,244.469635   C637.748413,240.563934 633.421570,236.989029 628.833252,233.177856  z"
   id="path18" />
<path
   fill="#FAFBFB"
   opacity="1.000000"
   stroke="none"
   d=" M256.812012,661.401611   C256.684326,674.763672 249.882553,682.519409 237.002792,683.402527   C228.754120,683.968140 220.435150,683.508606 211.848373,683.508606   C211.848373,670.481628 211.848373,657.597168 211.848373,644.455933   C221.111206,644.455933 230.288864,643.669128 239.269928,644.661560   C249.726685,645.817078 254.883713,651.436218 256.812012,661.401611  z"
   id="path19" />
<path
   fill="#F7F8F9"
   opacity="1.000000"
   stroke="none"
   d=" M555.771729,680.477661   C556.168457,682.129150 556.455261,683.406494 556.843994,685.137451   C542.545227,685.137451 528.529053,685.137451 514.512268,685.137451   C514.350891,677.134583 520.725220,669.872498 529.810303,667.621338   C540.959290,664.858765 550.376343,669.405701 555.771729,680.477661  z"
   id="path20" />
<path
   fill="#F7F9FA"
   opacity="1.000000"
   stroke="none"
   d=" M323.725983,718.191711   C318.114990,710.238220 321.397583,702.079102 330.678375,701.238342   C338.094452,700.566467 345.620026,701.102661 353.096985,701.105103   C354.417542,708.893738 351.874542,715.834351 345.677429,719.037354   C338.520538,722.736328 331.098236,723.636536 323.725983,718.191711  z"
   id="path21" />
<path
   fill="#FDFCF8"
   opacity="1.000000"
   stroke="none"
   d=" M919.578430,720.853394   C905.273621,717.896301 897.584167,709.155457 895.297791,695.406128   C893.534363,684.801636 899.699097,671.881531 909.398315,666.041321   C919.308777,660.073914 939.908081,659.107666 950.579895,673.149414   C959.115356,684.380066 958.340271,702.306396 948.188049,713.093689   C943.531006,718.042053 937.740845,720.697693 930.981201,721.011658   C927.336182,721.180908 923.672424,720.949219 919.578430,720.853394  z"
   id="path22" />
<path
   fill="#FEFAF5"
   opacity="1.000000"
   stroke="none"
   d=" M838.931641,697.837036   C841.719849,697.847534 844.019958,697.847534 846.148132,697.847534   C852.621948,714.413330 838.316040,726.021851 826.276306,726.939941   C821.135498,727.331970 815.673706,726.318481 810.663147,724.880005   C804.850220,723.211304 801.949585,718.143433 802.079895,712.249939   C802.226440,705.620483 805.330078,700.284668 811.644836,699.359680   C820.463318,698.067993 829.500122,698.265991 838.931641,697.837036  z"
   id="path23" />
</svg>
